<svg width="48" height="48" viewBox="0 0 48 48" fill="none" xmlns="http://www.w3.org/2000/svg">
<path d="M44.2105 31.6042C41.2496 31.6042 38.3495 31.1419 35.6008 30.2349C34.2594 29.7726 32.736 30.1288 31.8543 31.0282L26.4051 35.1436C20.1524 31.8064 16.1507 27.8072 12.859 21.6L16.8632 16.2796C17.8712 15.2716 18.2325 13.7962 17.8005 12.4143C16.8859 9.64801 16.4211 6.74527 16.4211 3.78948C16.4211 1.70017 14.7209 0 12.6316 0H3.78948C1.70017 0 0 1.70017 0 3.78948C0 28.1659 19.8341 48 44.2105 48C46.2998 48 48 46.2998 48 44.2105V35.3937C48 33.3044 46.2998 31.6042 44.2105 31.6042Z" fill="#ED1C24"/>
</svg>
