<svg width="85" height="113" viewBox="0 0 85 113" fill="none" xmlns="http://www.w3.org/2000/svg">
<path d="M56.463 83.9072C56.3407 84.0101 55.9537 84.3444 55.8518 84.9359C55.7296 85.7074 56.1167 86.5818 56.8704 86.9933C56.8704 86.9933 55.2407 91.1081 57.2778 93.4226C59.3148 95.7372 61.1481 95.2229 61.1481 95.2229C61.4537 95.1971 62.0037 95.12 62.5741 94.7085C63.5926 93.9627 63.9185 92.7283 64 92.3939C64.1629 92.4711 65.8944 93.2683 67.4018 91.931C69.0926 90.4394 68.9092 87.7648 68.8889 87.5076C68.8685 87.1733 68.7667 86.0932 68.1759 85.1416L59.1111 83.65L57.8889 84.4215L56.463 83.9072Z" fill="#D9D9D9"/>
<path d="M45.259 41.7303C51.0035 41.1645 55.4035 46.3338 55.4442 51.503C55.4849 55.1035 53.4072 58.6268 50.3516 60.5042C50.3516 60.5042 52.796 73.1058 40.9812 75.4203C40.9812 75.4203 37.9257 77.9921 34.6664 75.9347C34.6664 75.9347 32.8331 84.4215 23.4627 77.2206C23.4627 77.2206 17.759 85.193 10.8331 75.6775C3.90712 66.162 0.851562 68.9909 0.851562 68.9909L13.0738 57.6752L45.259 41.7303Z" fill="#D9D9D9"/>
<path d="M64.6108 82.6213C64.4275 82.1584 64.0201 81.2583 63.1849 80.5639C62.7979 80.2296 62.0849 79.6638 61.1479 79.7924C60.1293 79.9209 59.4979 80.7953 59.3145 81.0782C58.6627 81.9784 58.5405 83.0071 58.4997 83.3928C58.459 83.3671 57.7256 82.6984 56.8701 83.1356C56.2997 83.4443 55.8923 84.1386 55.8516 84.9359C55.8719 85.0388 56.0553 86.0417 56.7886 86.4018C57.1756 86.6075 57.5423 86.5304 57.6849 86.4789C57.6849 86.4789 56.259 89.5651 57.2775 91.3653C57.2775 91.3653 57.8682 93.0884 59.2942 93.6799C59.559 93.7827 61.1479 94.4514 62.3701 93.1655C63.246 92.2397 63.3682 90.9024 63.3886 90.5938C63.4701 90.6709 64.896 92.0082 66.6071 91.1853C68.3182 90.3623 68.6645 88.1249 68.6849 88.022C68.7053 87.7648 68.8479 85.5274 67.4627 83.9072C66.3016 82.5441 64.8756 82.5956 64.6108 82.6213Z" fill="white"/>
<path d="M29.1663 3.41111C28.7182 4.18264 28.82 4.33695 28.3515 5.21134C27.4756 6.80583 26.8033 6.80583 26.3145 7.7831C25.5811 9.22329 25.9682 11.4864 26.7219 12.9266C27.8422 15.0612 30.0422 15.9613 31.8145 15.2412C32.7107 14.8812 34.0348 13.8782 34.2589 12.4123C34.4219 11.3064 33.8311 10.8692 34.0552 9.84051C34.3607 8.5032 35.4811 8.60607 36.0922 7.26875C36.7033 5.93144 36.4589 3.79688 35.4811 2.38241C34.3404 0.736481 32.5682 0.607893 31.407 1.09653C30.2052 1.61088 29.4719 2.87104 29.1663 3.41111Z" fill="white"/>
<path d="M16.1295 22.9565C15.7832 24.2681 14.3777 24.4481 13.8888 24.4995C13.6036 24.5252 11.9943 24.731 11.4443 23.4708C11.2203 22.9565 11.1999 22.2107 11.4443 21.6706C11.6888 21.1305 12.1573 20.9505 13.074 20.6419C14.2554 20.2304 14.8258 20.0504 15.3147 20.3847C15.9666 20.8476 16.374 22.0049 16.1295 22.9565Z" fill="white"/>
<path d="M0.647949 68.991L6.35165 57.6752C6.35165 57.6752 5.53684 48.9313 12.0554 48.6741C12.0554 48.6741 10.222 41.9875 16.1294 39.9301C16.1294 39.9301 13.4813 30.1574 21.0183 30.9289C21.0387 26.3769 22.872 22.5964 25.3979 21.6192C28.1276 20.5647 30.7961 23.1108 32.0183 24.2424C34.1572 26.274 35.2165 28.7944 35.685 30.1574C36.2757 29.7459 36.9683 29.3602 37.7424 29.0258C40.3294 27.9714 42.6313 28.2543 44.0368 28.6144C45.0146 28.9487 47.5202 29.9517 49.5368 32.9863C50.1276 33.8865 51.7572 36.3554 51.9813 40.1873C52.1646 43.222 51.3702 45.5623 50.9627 46.6167C50.9627 46.6167 53.2035 57.9324 40.5739 58.7039C40.5739 58.7039 34.8702 79.7924 20.2035 68.4766C20.2035 68.4766 23.8702 65.9049 24.0739 62.0472C24.0739 62.0472 19.9998 69.5053 12.6665 64.619C12.6665 64.619 13.8887 69.7625 18.9813 68.7338C18.9813 68.7338 14.7035 75.4204 9.2035 73.1058C3.7035 70.7912 3.7035 69.2482 3.7035 69.2482L0.647949 68.991Z" fill="white"/>
<path d="M18.7775 50.7314C18.7775 50.7314 26.1109 56.9036 27.7405 46.1023C27.7405 46.1023 34.259 52.0173 37.9257 40.1873C37.9257 40.1873 38.5368 53.3032 28.3516 48.4169C28.3516 48.4169 26.722 61.2756 18.3701 50.2171" fill="#D9D9D9"/>
<path d="M72.463 100.974C72.3407 101.077 71.9537 101.411 71.8518 102.003C71.7296 102.774 72.1167 103.648 72.8704 104.06C72.8704 104.06 71.2407 108.175 73.2778 110.489C75.3148 112.804 77.1481 112.29 77.1481 112.29C77.4537 112.264 78.0037 112.187 78.5741 111.775C79.5926 111.029 79.9185 109.795 80 109.461C80.1629 109.538 81.8944 110.335 83.4018 108.998C85.0926 107.506 84.9092 104.831 84.8889 104.574C84.8685 104.24 84.7667 103.16 84.1759 102.208L75.1111 100.717L73.8889 101.488L72.463 100.974Z" fill="#D9D9D9"/>
<path d="M61.259 58.797C67.0035 58.2312 71.4035 63.4004 71.4442 68.5697C71.4849 72.1701 69.4072 75.6934 66.3516 77.5708C66.3516 77.5708 68.796 90.1724 56.9812 92.487C56.9812 92.487 53.9257 95.0588 50.6664 93.0014C50.6664 93.0014 48.8331 101.488 39.4627 94.2872C39.4627 94.2872 33.759 102.26 26.8331 92.7442C19.9071 83.2287 16.8516 86.0576 16.8516 86.0576L29.0738 74.7419L61.259 58.797Z" fill="#D9D9D9"/>
<path d="M80.6108 99.688C80.4275 99.225 80.0201 98.3249 79.1849 97.6305C78.7979 97.2962 78.0849 96.7304 77.1479 96.859C76.1293 96.9876 75.4979 97.862 75.3145 98.1449C74.6627 99.045 74.5405 100.074 74.4997 100.459C74.459 100.434 73.7256 99.7651 72.8701 100.202C72.2997 100.511 71.8923 101.205 71.8516 102.003C71.8719 102.105 72.0553 103.108 72.7886 103.468C73.1756 103.674 73.5423 103.597 73.6849 103.546C73.6849 103.546 72.259 106.632 73.2775 108.432C73.2775 108.432 73.8682 110.155 75.2942 110.747C75.559 110.849 77.1479 111.518 78.3701 110.232C79.246 109.306 79.3682 107.969 79.3886 107.66C79.4701 107.738 80.896 109.075 82.6071 108.252C84.3182 107.429 84.6645 105.192 84.6849 105.089C84.7053 104.831 84.8479 102.594 83.4627 100.974C82.3016 99.6108 80.8756 99.6622 80.6108 99.688Z" fill="white"/>
<path d="M45.1663 20.4778C44.7182 21.2493 44.82 21.4036 44.3515 22.278C43.4756 23.8725 42.8033 23.8725 42.3145 24.8498C41.5811 26.29 41.9682 28.5531 42.7219 29.9933C43.8422 32.1279 46.0422 33.028 47.8145 32.3079C48.7107 31.9478 50.0348 30.9448 50.2589 29.4789C50.4219 28.3731 49.8311 27.9359 50.0552 26.9072C50.3607 25.5699 51.4811 25.6727 52.0922 24.3354C52.7033 22.9981 52.4589 20.8635 51.4811 19.4491C50.3404 17.8031 48.5682 17.6746 47.407 18.1632C46.2052 18.6775 45.4719 19.9377 45.1663 20.4778Z" fill="white"/>
<path d="M32.1295 40.0231C31.7832 41.3347 30.3777 41.5148 29.8888 41.5662C29.6036 41.5919 27.9943 41.7977 27.4443 40.5375C27.2203 40.0231 27.1999 39.2773 27.4443 38.7373C27.6888 38.1972 28.1573 38.0172 29.074 37.7086C30.2554 37.2971 30.8258 37.1171 31.3147 37.4514C31.9666 37.9143 32.374 39.0716 32.1295 40.0231Z" fill="white"/>
<path d="M16.6479 86.0577L22.3517 74.7419C22.3517 74.7419 21.5368 65.9979 28.0554 65.7408C28.0554 65.7408 26.222 59.0542 32.1294 56.9968C32.1294 56.9968 29.4813 47.2241 37.0183 47.9956C37.0387 43.4436 38.872 39.6631 41.3979 38.6858C44.1276 37.6314 46.7961 40.1774 48.0183 41.309C50.1572 43.3407 51.2165 45.861 51.685 47.2241C52.2757 46.8126 52.9683 46.4268 53.7424 46.0925C56.3294 45.0381 58.6313 45.321 60.0368 45.681C61.0146 46.0153 63.5202 47.0183 65.5368 50.053C66.1276 50.9531 67.7572 53.422 67.9813 57.2539C68.1646 60.2886 67.3702 62.6289 66.9627 63.6833C66.9627 63.6833 69.2035 74.9991 56.5739 75.7706C56.5739 75.7706 50.8702 96.8591 36.2035 85.5433C36.2035 85.5433 39.8702 82.9715 40.0739 79.1139C40.0739 79.1139 35.9998 86.572 28.6665 81.6857C28.6665 81.6857 29.8887 86.8292 34.9813 85.8005C34.9813 85.8005 30.7035 92.4871 25.2035 90.1725C19.7035 87.8579 19.7035 86.3148 19.7035 86.3148L16.6479 86.0577Z" fill="white"/>
<path d="M34.7775 67.7981C34.7775 67.7981 42.1109 73.9703 43.7405 63.169C43.7405 63.169 50.259 69.084 53.9257 57.2539C53.9257 57.2539 54.5368 70.3699 44.3516 65.4835C44.3516 65.4835 42.722 78.3423 34.3701 67.2838" fill="#D9D9D9"/>
</svg>
