<svg width="23" height="40" viewBox="0 0 23 40" fill="none" xmlns="http://www.w3.org/2000/svg">
<path d="M17.6777 23.5302C17.474 24.5589 18.1259 25.3304 18.1462 25.8705C18.187 26.462 18.2073 26.9763 18.024 27.5164C17.7796 28.2879 17.2703 28.6994 16.9036 29.008C16.9036 29.008 16.537 29.3166 14.2148 31.4512C12.9518 32.6085 12.0759 33.8172 11.6685 34.4344C10.7925 35.7203 10.5074 36.5433 9.42773 37.7777C9.02032 38.2406 8.77587 38.6521 8.28698 38.9093C7.28884 39.3979 6.31106 38.8836 6.12772 38.7807C5.53698 38.4721 5.17032 38.0092 4.94625 37.7263C4.94625 37.7263 -1.45005 34.6402 3.45921 27.7736C3.45921 27.7736 -4.05745 18.721 4.13143 17.5637C4.13143 17.5637 2.88884 13.2431 4.72217 10.4399C4.72217 10.4399 2.21662 8.61398 2.31847 6.11937C2.44069 2.87896 5.27217 0.384344 7.00365 0.74439C7.41106 0.821543 7.73699 1.07872 8.44995 1.053C9.52958 1.02729 9.75365 0.435776 10.6092 0.435776C11.1185 0.435776 11.3629 0.66724 12.9314 1.82453C13.4203 2.18458 14.174 2.72464 15.1314 3.3933C15.1314 3.3933 18.0444 4.75634 16.6999 9.89986C16.6999 9.89986 19.9592 14.529 15.2536 17.0494C15.2536 17.0494 18.737 18.4124 17.6777 23.5302Z" fill="white"/>
<path d="M15.1312 3.41902C15.5182 3.62476 16.109 4.03624 16.5571 4.80776C17.7182 6.9166 16.6997 9.92556 16.6997 9.92556C20.1219 15.4548 15.2534 17.075 15.2534 17.075C17.3923 18.4895 17.9627 19.8011 18.0645 20.8041C18.1664 21.8328 17.759 22.45 17.983 24.2502C18.0442 24.7646 18.146 25.3304 18.1664 26.2562C18.1664 26.8477 18.1867 27.4135 18.0442 27.9021C17.7386 29.0852 16.7404 29.6252 16.2108 29.9595C14.0312 31.2969 12.2386 33.5343 11.4034 34.8459C10.1201 36.8519 9.9775 38.3435 8.59231 38.935C7.89972 39.2436 7.20713 39.1922 7.00343 39.1664C6.71824 39.1407 5.88306 39.0378 4.53862 37.9577C4.04973 37.5719 4.64047 35.7974 5.47565 35.4888C8.10342 34.563 9.14231 30.7053 9.14231 30.7053C16.6997 27.0277 11.2608 21.1899 11.2608 21.1899C8.69417 22.3471 7.06454 20.0326 7.06454 20.0326C12.4016 20.0583 10.4053 13.3717 10.4053 13.3717C11.5664 13.7061 11.6071 16.2521 11.6071 16.2521C11.6071 16.2521 12.6664 15.9178 13.1756 15.6606C14.0516 15.1977 15.0701 14.0404 15.2738 12.6516C15.5386 10.8514 14.4793 8.71684 14.4793 8.71684C17.596 6.06793 14.9479 3.239 14.9479 3.239" fill="#D9D9D9"/>
<path d="M2.19631 35.1031C2.42038 35.566 2.7463 36.1318 3.23519 36.6976C3.68334 37.2119 4.11112 37.572 4.45742 37.8292C4.76297 37.0576 5.06853 36.2861 5.39445 35.5146C4.27408 35.3088 3.17408 35.1031 2.05371 34.9231" fill="white"/>
<path d="M21.6777 23.5302C21.474 24.5589 22.1259 25.3304 22.1462 25.8705C22.187 26.462 22.2073 26.9763 22.024 27.5164C21.7796 28.2879 21.2703 28.6994 20.9036 29.008C20.9036 29.008 20.537 29.3166 18.2148 31.4512C16.9518 32.6085 16.0759 33.8172 15.6685 34.4344C14.7925 35.7203 14.5074 36.5433 13.4277 37.7777C13.0203 38.2406 12.7759 38.6521 12.287 38.9093C11.2888 39.3979 10.3111 38.8836 10.1277 38.7807C9.53698 38.4721 9.17032 38.0092 8.94625 37.7263C8.94625 37.7263 2.54995 34.6402 7.45921 27.7736C7.45921 27.7736 -0.0574536 18.721 8.13143 17.5637C8.13143 17.5637 6.88884 13.2431 8.72217 10.4399C8.72217 10.4399 6.21662 8.61398 6.31847 6.11937C6.44069 2.87896 9.27217 0.384344 11.0037 0.74439C11.4111 0.821543 11.737 1.07872 12.4499 1.053C13.5296 1.02729 13.7536 0.435776 14.6092 0.435776C15.1185 0.435776 15.3629 0.66724 16.9314 1.82453C17.4203 2.18458 18.174 2.72464 19.1314 3.3933C19.1314 3.3933 22.0444 4.75634 20.6999 9.89986C20.6999 9.89986 23.9592 14.529 19.2536 17.0494C19.2536 17.0494 22.737 18.4124 21.6777 23.5302Z" fill="white"/>
<path d="M19.1312 3.41902C19.5182 3.62476 20.109 4.03624 20.5571 4.80776C21.7182 6.9166 20.6997 9.92556 20.6997 9.92556C24.1219 15.4548 19.2534 17.075 19.2534 17.075C21.3923 18.4895 21.9627 19.8011 22.0645 20.8041C22.1664 21.8328 21.759 22.45 21.983 24.2502C22.0442 24.7646 22.146 25.3304 22.1664 26.2562C22.1664 26.8477 22.1867 27.4135 22.0442 27.9021C21.7386 29.0852 20.7404 29.6252 20.2108 29.9595C18.0312 31.2969 16.2386 33.5343 15.4034 34.8459C14.1201 36.8519 13.9775 38.3435 12.5923 38.935C11.8997 39.2436 11.2071 39.1922 11.0034 39.1664C10.7182 39.1407 9.88306 39.0378 8.53862 37.9577C8.04973 37.5719 8.64047 35.7974 9.47565 35.4888C12.1034 34.563 13.1423 30.7053 13.1423 30.7053C20.6997 27.0277 15.2608 21.1899 15.2608 21.1899C12.6942 22.3471 11.0645 20.0326 11.0645 20.0326C16.4016 20.0583 14.4053 13.3717 14.4053 13.3717C15.5664 13.7061 15.6071 16.2521 15.6071 16.2521C15.6071 16.2521 16.6664 15.9178 17.1756 15.6606C18.0516 15.1977 19.0701 14.0404 19.2738 12.6516C19.5386 10.8514 18.4793 8.71684 18.4793 8.71684C21.596 6.06793 18.9479 3.239 18.9479 3.239" fill="#D9D9D9"/>
<path d="M6.19631 35.1031C6.42038 35.566 6.7463 36.1318 7.23519 36.6976C7.68334 37.2119 8.11112 37.572 8.45742 37.8292C8.76297 37.0576 9.06853 36.2861 9.39445 35.5146C8.27408 35.3088 7.17408 35.1031 6.05371 34.9231" fill="white"/>
</svg>
