<svg width="63" height="63" viewBox="0 0 63 63" fill="none" xmlns="http://www.w3.org/2000/svg">
<path d="M14.7613 54.602C14.1094 53.7276 13.8446 52.9818 13.7224 52.3903C13.2742 50.3329 14.1094 48.4555 14.415 47.864C12.052 47.1954 8.34461 45.6266 5.06499 41.7432C3.41499 39.7887 0.99091 36.9341 0.664984 32.5878C0.603873 31.6877 0.3798 28.9102 1.74461 26.2355C2.45758 24.8211 3.37424 23.9467 3.94461 23.4837C4.63721 23.0466 5.92054 22.4036 7.57054 22.5065C8.32424 22.5579 8.95573 22.7379 9.46499 22.9437C9.46499 22.9437 9.42424 14.4054 16.3298 16.2057C16.2279 15.4341 16.0854 13.531 16.8391 11.5251C17.0428 10.985 18.102 8.13036 20.6076 7.43599C22.8076 6.81877 24.5391 8.31038 24.9057 8.61899C26.2298 9.77628 26.8205 11.2936 27.0446 11.9623C27.0446 11.9623 30.3039 9.77627 31.9335 11.4736C31.9335 11.4736 44.0742 10.3935 41.2631 25.9012C41.2631 25.9012 45.3983 33.5136 38.6965 36.574C38.6965 36.574 42.2613 45.858 33.3187 50.873C33.2168 52.056 32.9113 54.1648 31.6483 55.9393C29.8557 58.4339 27.3094 58.5625 24.8242 58.7168C20.2409 58.974 16.5131 56.9423 14.7613 54.602Z" fill="white"/>
<path d="M5.39111 42.129C6.79667 42.669 8.73185 43.1834 11.0133 43.132C16.1059 42.9777 19.793 40.0201 21.3615 38.6057C21.3615 38.6057 20.3226 44.3664 17.3689 46.1409C17.6541 46.681 19.0189 49.0213 21.443 49.5099C22.0337 49.6385 23.7041 49.9728 25.1504 48.6098C26.0059 47.8125 26.4133 46.7838 26.5967 46.2181C26.5967 46.2181 32.4022 50.7958 32.2393 33.4622C32.2393 33.4622 39.3078 34.3623 38.9207 24.0495C38.9207 24.0495 40.1633 24.6153 40.9985 23.7924C41.4059 23.3809 41.4874 22.7122 41.5689 22.7379C41.63 22.7637 41.63 23.3294 41.2633 25.9269C41.2633 25.9269 45.3985 33.5393 38.6967 36.5997C38.6967 36.5997 42.7911 46.1666 33.5022 50.7958C33.2578 53.3418 32.4837 54.9363 31.9541 55.785C29.4893 59.7455 24.3356 60.9028 19.08 58.5368C16.6763 59.1797 14.2726 57.6624 13.3356 54.9877C12.5004 52.6217 12.9282 49.7928 14.4356 47.864C13.5189 47.6582 12.48 47.3239 11.3596 46.8096C8.60963 45.5237 6.63371 43.5949 5.39111 42.129Z" fill="#D9D9D9"/>
<path d="M22.93 25.3869C22.93 25.3869 26.4744 28.3186 28.0429 22.8408C28.0429 22.8408 29.2041 28.6273 23.5207 27.3157C23.5207 27.3157 22.5429 38.8629 14.5781 30.9418C14.5781 30.9418 21.3411 35.0309 23.0726 25.8755" fill="#D9D9D9"/>
<path d="M17.98 1.85527C18.0818 2.88397 17.2467 3.8098 16.4522 3.98983C15.8207 4.14413 14.9244 3.86123 14.5985 2.98683C14.293 2.16387 14.68 1.34092 14.7207 1.26377C15.1281 0.415084 15.9633 0.132187 16.6152 0.312211C17.1652 0.466516 17.8781 0.980869 17.98 1.85527Z" fill="white"/>
<path d="M51.6726 35.3653C50.5522 35.0052 48.9022 36.5483 48.7189 38.5028C48.617 39.5573 48.8818 41.2289 49.9615 41.769C50.8374 42.1805 51.8559 41.6918 52.304 40.8689C52.4263 40.6374 52.5078 39.9173 52.6503 38.4771C52.7929 37.0369 52.7929 36.6769 52.63 36.2911C52.4059 35.8539 52.0392 35.4939 51.6726 35.3653Z" fill="white"/>
<path d="M24.7613 57.802C24.1094 56.9276 23.8446 56.1818 23.7224 55.5903C23.2742 53.5329 24.1094 51.6555 24.415 51.064C22.052 50.3954 18.3446 48.8266 15.065 44.9432C13.415 42.9887 10.9909 40.1341 10.665 35.7878C10.6039 34.8877 10.3798 32.1102 11.7446 29.4355C12.4576 28.0211 13.3742 27.1467 13.9446 26.6838C14.6372 26.2466 15.9205 25.6036 17.5705 25.7065C18.3242 25.7579 18.9557 25.9379 19.465 26.1437C19.465 26.1437 19.4242 17.6054 26.3298 19.4057C26.2279 18.6341 26.0854 16.731 26.8391 14.7251C27.0428 14.185 28.102 11.3304 30.6076 10.636C32.8076 10.0188 34.5391 11.5104 34.9057 11.819C36.2298 12.9763 36.8205 14.4936 37.0446 15.1623C37.0446 15.1623 40.3039 12.9763 41.9335 14.6736C41.9335 14.6736 54.0742 13.5935 51.2631 29.1012C51.2631 29.1012 55.3983 36.7136 48.6965 39.774C48.6965 39.774 52.2613 49.0581 43.3187 54.073C43.2168 55.256 42.9113 57.3648 41.6483 59.1394C39.8557 61.634 37.3094 61.7625 34.8242 61.9168C30.2409 62.174 26.5131 60.1423 24.7613 57.802Z" fill="white"/>
<path d="M15.3911 45.329C16.7967 45.869 18.7319 46.3834 21.0133 46.332C26.1059 46.1777 29.793 43.2201 31.3615 41.8057C31.3615 41.8057 30.3226 47.5664 27.3689 49.3409C27.6541 49.881 29.0189 52.2213 31.443 52.7099C32.0337 52.8385 33.7041 53.1728 35.1504 51.8098C36.0059 51.0126 36.4133 49.9839 36.5967 49.4181C36.5967 49.4181 42.4022 53.9958 42.2393 36.6622C42.2393 36.6622 49.3078 37.5623 48.9207 27.2495C48.9207 27.2495 50.1633 27.8153 50.9985 26.9924C51.4059 26.5809 51.4874 25.9122 51.5689 25.9379C51.63 25.9637 51.63 26.5294 51.2633 29.1269C51.2633 29.1269 55.3985 36.7393 48.6967 39.7997C48.6967 39.7997 52.7911 49.3666 43.5022 53.9958C43.2578 56.5418 42.4837 58.1363 41.9541 58.985C39.4893 62.9455 34.3356 64.1028 29.08 61.7368C26.6763 62.3797 24.2726 60.8624 23.3356 58.1878C22.5004 55.8217 22.9282 52.9928 24.4356 51.064C23.5189 50.8582 22.48 50.5239 21.3596 50.0096C18.6096 48.7237 16.6337 46.7949 15.3911 45.329Z" fill="#D9D9D9"/>
<path d="M32.93 28.5869C32.93 28.5869 36.4744 31.5187 38.0429 26.0408C38.0429 26.0408 39.2041 31.8273 33.5207 30.5157C33.5207 30.5157 32.5429 42.0629 24.5781 34.1419C24.5781 34.1419 31.3411 38.2309 33.0726 29.0755" fill="#D9D9D9"/>
<path d="M27.98 5.05526C28.0818 6.08396 27.2467 7.00979 26.4522 7.18981C25.8207 7.34411 24.9244 7.06122 24.5985 6.18682C24.293 5.36386 24.68 4.54091 24.7207 4.46376C25.1281 3.61508 25.9633 3.33218 26.6152 3.51221C27.1652 3.66651 27.8781 4.18086 27.98 5.05526Z" fill="white"/>
<path d="M61.6726 38.5653C60.5522 38.2052 58.9022 39.7483 58.7189 41.7028C58.617 42.7573 58.8818 44.4289 59.9615 44.969C60.8374 45.3805 61.8559 44.8918 62.304 44.0689C62.4263 43.8374 62.5078 43.1173 62.6503 41.6771C62.7929 40.2369 62.7929 39.8769 62.63 39.4911C62.4059 39.0539 62.0392 38.6939 61.6726 38.5653Z" fill="white"/>
</svg>
