<svg width="126" height="117" viewBox="0 0 126 117" fill="none" xmlns="http://www.w3.org/2000/svg">
<path d="M55.3907 96.6488C54.8611 99.2463 55.3703 101.818 56.7352 103.258C57.4889 104.055 58.3037 104.313 58.8741 104.416C58.8741 104.416 61.2778 105.058 63.3555 103.413C63.3555 103.413 69.3037 109.688 73.4389 102.127C73.4389 102.127 79.8352 102.924 80.1407 94.4628C80.1407 94.4628 83.8074 91.5567 83.1148 87.2619C82.4222 82.967 76.7389 87.2619 76.7389 87.2619C69.6296 90.3994 62.5203 93.5112 55.3907 96.6488Z" fill="#D9D9D9"/>
<path d="M83.726 48.8398C83.2779 48.7112 82.3205 48.4541 81.5464 49.097C80.7927 49.7142 80.9964 50.5886 80.1205 51.5145C79.8353 51.8231 79.7538 51.7974 78.1445 52.646C77.0853 53.2118 76.5556 53.4947 76.4334 53.5976C75.3538 54.4977 74.7223 56.3236 74.7427 58.0467C74.7427 58.4068 74.7834 61.1843 76.4538 62.4444C78.0019 63.6274 80.0186 62.7788 81.0779 61.7758C81.9538 60.9528 81.8519 60.3099 82.8908 59.5126C84.0519 58.6125 84.602 59.0754 85.4983 58.3553C86.6186 57.4809 87.3723 55.5521 87.2501 53.649C87.0871 50.9744 85.2538 49.2513 83.726 48.8398Z" fill="white"/>
<path d="M91.2425 34.2065C89.6536 33.6407 88.1258 36.1353 87.9425 36.444C87.6369 36.9583 87.2295 37.627 87.2295 38.5785C87.2295 38.81 87.2092 40.173 87.9832 40.7388C88.4721 41.0988 89.0629 41.0217 89.4703 40.7645C89.9184 40.4816 89.8777 40.1473 90.4073 39.5044C91.1203 38.6557 91.4665 38.9386 91.9962 38.2185C92.0777 38.1156 92.8721 37.0098 92.5869 35.7496C92.3628 34.9781 91.7925 34.4123 91.2425 34.2065Z" fill="white"/>
<path d="M99.1057 32.3549C98.0057 31.8148 96.2946 32.3549 95.7242 34.0265C95.3575 35.1324 95.4797 36.7783 96.3964 37.4984C97.3538 38.2699 98.5353 37.4727 99.0853 36.9069C99.9205 36.0325 100.471 34.3351 99.9613 33.2035C99.7168 32.6635 99.2687 32.432 99.1057 32.3549Z" fill="white"/>
<path d="M87.7181 4.16838C87.7589 4.91419 87.5144 5.29996 87.7589 5.78859C88.0644 6.40581 88.6348 6.22579 89.2663 6.63727C90.3052 7.28021 91.0181 9.20903 90.794 10.9835C90.7737 11.1636 90.5089 12.9638 89.2459 13.8896C87.2089 15.3813 84.8256 12.8866 84.6422 12.6809C84.2144 12.218 83.0737 10.9835 83.2774 9.49193C83.3793 8.7204 83.8274 8.18033 84.0719 7.92315C83.8885 7.87171 82.6663 7.48595 82.157 6.12292C81.6274 4.65701 82.0959 2.65104 83.4607 1.51947C83.6848 1.33945 84.6219 0.645069 85.7015 1.03083C86.8626 1.39088 87.657 2.90822 87.7181 4.16838Z" fill="white"/>
<path d="M61.1757 91.0424C61.0127 91.4796 57.5294 91.4024 55.9405 94.6943C55.696 95.2086 55.0238 96.6745 55.1257 98.6805C55.2071 100.301 55.7571 101.458 56.0423 101.972C56.0423 101.972 62.7849 103.978 65.6368 99.1434C65.6368 99.1434 65.6164 101.021 64.5368 101.947C64.5368 101.947 69.0386 107.142 73.0109 100.301C73.0109 100.301 78.2053 101.715 78.5516 94.8743C78.5516 94.8743 77.0849 95.6715 75.8831 93.5884C75.8831 93.5884 80.8127 95.1829 83.1349 87.2105C83.0535 86.5161 82.7886 84.793 81.6683 83.5071C80.0183 81.604 77.7775 82.0155 76.8812 82.1698C73.846 82.7356 72.0738 85.5903 71.6257 86.3618C71.646 86.4132 66.4109 77.9779 61.1757 91.0424Z" fill="white"/>
<path d="M19.2741 69.5939C22.0037 71.4713 26.75 74.0945 32.8611 74.1974C35.1019 74.2231 37.0982 73.9145 38.7685 73.4773C41.763 79.3152 46.8556 82.607 51.8259 81.8098C57.8148 80.8582 60.9519 74.3774 61.6445 72.9886C64.1704 67.8194 64.0482 62.6245 63.9259 60.6956C63.9259 60.6956 73.5408 58.6897 70.8519 43.9792C70.8519 43.9792 81.2815 43.902 77.7778 31.8148C74.2537 19.7532 52.3352 32.4063 52.3352 32.4063L15.4444 54.4463L13 68.2823L19.2741 69.5939Z" fill="#D9D9D9"/>
<path d="M15.2611 53.3147C15.1389 51.2573 14.813 42.1276 20.0278 34.9781C22.1667 32.0463 24.5296 30.4261 26.2 29.5259C26.2 29.5259 26.037 14.9698 39.013 15.8442C39.013 15.8442 44.5537 5.04279 53.0278 14.1468C53.0278 14.1468 59.6481 13.1438 60.8093 18.956C60.9315 17.9787 61.3185 15.4327 62.9889 13.3496C65.0463 10.7778 68.2037 9.87769 70.9741 11.035C74.4574 12.5009 75.7407 16.59 75.9037 17.1558C78.6333 17.1301 81.0167 18.7503 81.9333 21.3477C82.6056 23.2508 82.3 25.0768 82.1778 25.694C81.4241 29.8346 78.1648 31.5833 77.7574 31.8148C77.7574 31.8148 82.3204 44.0049 68.3259 38.4499C68.7537 39.633 69.5278 42.2304 69.2019 45.4966C69.0796 46.7053 68.6926 50.7944 66.0241 53.3147C63.6204 55.6036 60.1981 55.835 57.163 54.0862C57.163 54.0862 56.45 58.9212 61.6648 61.1586C61.2778 68.2824 56.8574 73.7602 51.8055 74.0688C47.6704 74.326 43.6778 71.137 41.8037 65.9935C41.8037 65.9935 37.6889 66.3278 34.2667 63.6789C34.2667 63.6789 31.8018 73.2201 22.3296 68.3081C12.8574 63.396 0.696289 63.6275 0.696289 63.6275L15.2611 53.3147Z" fill="white"/>
<path d="M80.3907 107.315C79.8611 109.913 80.3703 112.485 81.7352 113.925C82.4889 114.722 83.3037 114.979 83.8741 115.082C83.8741 115.082 86.2778 115.725 88.3555 114.079C88.3555 114.079 94.3037 120.354 98.4389 112.793C98.4389 112.793 104.835 113.591 105.141 105.129C105.141 105.129 108.807 102.223 108.115 97.9285C107.422 93.6337 101.739 97.9285 101.739 97.9285C94.6296 101.066 87.5203 104.178 80.3907 107.315Z" fill="#D9D9D9"/>
<path d="M108.726 59.5065C108.278 59.3779 107.32 59.1207 106.546 59.7637C105.793 60.3809 105.996 61.2553 105.12 62.1811C104.835 62.4897 104.754 62.464 103.145 63.3127C102.085 63.8785 101.556 64.1614 101.433 64.2643C100.354 65.1644 99.7223 66.9903 99.7427 68.7134C99.7427 69.0734 99.7834 71.8509 101.454 73.1111C103.002 74.2941 105.019 73.4454 106.078 72.4424C106.954 71.6195 106.852 70.9765 107.891 70.1793C109.052 69.2792 109.602 69.7421 110.498 69.022C111.619 68.1476 112.372 66.2188 112.25 64.3157C112.087 61.6411 110.254 59.918 108.726 59.5065Z" fill="white"/>
<path d="M116.242 44.8732C114.654 44.3074 113.126 46.802 112.943 47.1106C112.637 47.625 112.23 48.2936 112.23 49.2452C112.23 49.4766 112.209 50.8397 112.983 51.4055C113.472 51.7655 114.063 51.6884 114.47 51.4312C114.918 51.1483 114.878 50.814 115.407 50.171C116.12 49.3223 116.467 49.6052 116.996 48.8851C117.078 48.7823 117.872 47.6764 117.587 46.4163C117.363 45.6447 116.792 45.0789 116.242 44.8732Z" fill="white"/>
<path d="M124.106 43.0215C123.006 42.4815 121.295 43.0215 120.724 44.6932C120.358 45.799 120.48 47.4449 121.396 48.165C122.354 48.9366 123.535 48.1393 124.085 47.5735C124.921 46.6991 125.471 45.0018 124.961 43.8702C124.717 43.3301 124.269 43.0987 124.106 43.0215Z" fill="white"/>
<path d="M112.718 14.835C112.759 15.5809 112.514 15.9666 112.759 16.4553C113.064 17.0725 113.635 16.8925 114.266 17.3039C115.305 17.9469 116.018 19.8757 115.794 21.6502C115.774 21.8302 115.509 23.6305 114.246 24.5563C112.209 26.0479 109.826 23.5533 109.642 23.3476C109.214 22.8847 108.074 21.6502 108.277 20.1586C108.379 19.3871 108.827 18.847 109.072 18.5898C108.889 18.5384 107.666 18.1526 107.157 16.7896C106.627 15.3237 107.096 13.3177 108.461 12.1861C108.685 12.0061 109.622 11.3117 110.701 11.6975C111.863 12.0575 112.657 13.5749 112.718 14.835Z" fill="white"/>
<path d="M86.1757 101.709C86.0127 102.146 82.5294 102.069 80.9405 105.361C80.696 105.875 80.0238 107.341 80.1257 109.347C80.2071 110.967 80.7571 112.125 81.0423 112.639C81.0423 112.639 87.7849 114.645 90.6368 109.81C90.6368 109.81 90.6164 111.687 89.5368 112.613C89.5368 112.613 94.0386 117.808 98.0109 110.967C98.0109 110.967 103.205 112.382 103.552 105.541C103.552 105.541 102.085 106.338 100.883 104.255C100.883 104.255 105.813 105.85 108.135 97.8771C108.053 97.1827 107.789 95.4597 106.668 94.1738C105.018 92.2707 102.778 92.6822 101.881 92.8365C98.846 93.4023 97.0738 96.2569 96.6257 97.0284C96.646 97.0799 91.4109 88.6445 86.1757 101.709Z" fill="white"/>
<path d="M44.2741 80.2606C47.0037 82.138 51.75 84.7612 57.8611 84.864C60.1019 84.8898 62.0982 84.5812 63.7685 84.144C66.763 89.9819 71.8556 93.2737 76.8259 92.4764C82.8148 91.5249 85.9519 85.0441 86.6445 83.6553C89.1704 78.4861 89.0482 73.2911 88.9259 71.3623C88.9259 71.3623 98.5408 69.3563 95.8519 54.6459C95.8519 54.6459 106.282 54.5687 102.778 42.4814C99.2537 30.4199 77.3352 43.073 77.3352 43.073L40.4444 65.1129L38 78.949L44.2741 80.2606Z" fill="#D9D9D9"/>
<path d="M40.2611 63.9814C40.1389 61.924 39.813 52.7942 45.0278 45.6447C47.1667 42.7129 49.5296 41.0927 51.2 40.1926C51.2 40.1926 51.037 25.6364 64.013 26.5108C64.013 26.5108 69.5537 15.7094 78.0278 24.8135C78.0278 24.8135 84.6481 23.8105 85.8093 29.6227C85.9315 28.6454 86.3185 26.0994 87.9889 24.0162C90.0463 21.4445 93.2037 20.5444 95.9741 21.7017C99.4574 23.1676 100.741 27.2566 100.904 27.8224C103.633 27.7967 106.017 29.4169 106.933 32.0144C107.606 33.9175 107.3 35.7435 107.178 36.3607C106.424 40.5012 103.165 42.25 102.757 42.4815C102.757 42.4815 107.32 54.6716 93.3259 49.1166C93.7537 50.2996 94.5278 52.8971 94.2019 56.1632C94.0796 57.372 93.6926 61.4611 91.0241 63.9814C88.6204 66.2703 85.1981 66.5017 82.163 64.7529C82.163 64.7529 81.45 69.5878 86.6648 71.8253C86.2778 78.949 81.8574 84.4269 76.8055 84.7355C72.6704 84.9927 68.6778 81.8037 66.8037 76.6602C66.8037 76.6602 62.6889 76.9945 59.2667 74.3456C59.2667 74.3456 56.8018 83.8868 47.3296 78.9748C37.8574 74.0627 25.6963 74.2942 25.6963 74.2942L40.2611 63.9814Z" fill="white"/>
</svg>
