<svg width="128" height="128" viewBox="0 0 128 128" fill="none" xmlns="http://www.w3.org/2000/svg">
<path d="M111.807 16.9637H101.012V6.16874C101.012 2.77574 98.2355 0 94.8443 0H16.1924C12.7997 0 10.0239 2.77574 10.0239 6.16874V104.867C10.0239 108.26 12.7997 111.036 16.1927 111.036H26.9879V121.831C26.9879 125.224 29.7624 128 33.1566 128H85.5888C88.98 128 93.7793 126.097 96.2483 123.773L113.48 107.553C115.952 105.229 117.973 100.55 117.973 97.1568L117.976 23.133C117.975 19.7397 115.199 16.9637 111.807 16.9637ZM26.9874 23.1327V106.41H16.1924C15.3567 106.41 14.6504 105.703 14.6504 104.868V6.16874C14.6504 5.33299 15.3567 4.62674 16.1924 4.62674H94.8445C95.6788 4.62674 96.3865 5.33299 96.3865 6.16874V16.964H33.1561C29.7619 16.964 26.9874 19.7397 26.9874 23.1327ZM110.309 104.184L93.0773 120.403C92.7243 120.735 92.2645 121.06 91.757 121.37V107.181C91.757 106.121 92.1843 105.168 92.889 104.459C93.6 103.754 94.553 103.325 95.6125 103.325H111.042C110.803 103.65 110.558 103.95 110.309 104.184ZM113.346 97.1563C113.346 97.6143 113.262 98.1448 113.136 98.6983H95.6123C90.932 98.7076 87.1398 102.5 87.1303 107.18V123.186C86.5798 123.298 86.0493 123.373 85.5883 123.373H33.1561V123.373C32.3186 123.373 31.6141 122.667 31.6141 121.831V23.1325C31.6141 22.2967 32.3189 21.5905 33.1561 21.5905H111.806C112.642 21.5905 113.348 22.2967 113.348 23.1325L113.346 97.1563Z" fill="#ED1C24"/>
<path d="M94.8445 38.5538H50.1218C48.8433 38.5538 47.8086 39.5886 47.8086 40.8671C47.8086 42.1456 48.8436 43.1803 50.1218 43.1803H94.8445C96.1215 43.1803 97.1578 42.1456 97.1578 40.8671C97.1578 39.5886 96.1215 38.5538 94.8445 38.5538Z" fill="#ED1C24"/>
<path d="M94.8445 69.3973H50.1218C48.8433 69.3973 47.8086 70.4321 47.8086 71.7106C47.8086 72.9891 48.8436 74.0238 50.1218 74.0238H94.8445C96.1215 74.0238 97.1578 72.9891 97.1578 71.7106C97.1578 70.4318 96.1215 69.3973 94.8445 69.3973Z" fill="#ED1C24"/>
<path d="M74.7968 84.8191H50.1223C48.8438 84.8191 47.8091 85.8538 47.8091 87.1323C47.8091 88.4108 48.8438 89.4456 50.1223 89.4456H74.7968C76.0738 89.4456 77.1085 88.4108 77.1085 87.1323C77.1085 85.8538 76.0738 84.8191 74.7968 84.8191Z" fill="#ED1C24"/>
<path d="M94.8445 53.9757H50.1218C48.8433 53.9757 47.8086 55.0105 47.8086 56.289C47.8086 57.5675 48.8436 58.6022 50.1218 58.6022H94.8445C96.1215 58.6022 97.1578 57.5675 97.1578 56.289C97.1578 55.0105 96.1215 53.9757 94.8445 53.9757Z" fill="#ED1C24"/>
</svg>
