<svg width="55" height="160" viewBox="0 0 55 160" fill="none" xmlns="http://www.w3.org/2000/svg">
<g clip-path="url(#clip0)">
<g clip-path="url(#clip1)">
<path fill-rule="evenodd" clip-rule="evenodd" d="M27.2002 155.411V160H49.8109H54.4002H54.4002V155.411H54.4002V132.8H49.8109V155.411H27.2002Z" fill="#DAB679"/>
<path fill-rule="evenodd" clip-rule="evenodd" d="M27.2002 110.189V105.6H4.58953H0.000232697H0.000202179V110.189H0.000232697L0.000232697 132.8H4.58953L4.58953 110.189H27.2002Z" fill="#DAB679"/>
<path fill-rule="evenodd" clip-rule="evenodd" d="M13.7123 117.465C13.7123 116.414 12.8604 115.562 11.8094 115.562C10.7585 115.562 9.90655 116.414 9.90655 117.465C9.90655 118.516 10.7585 119.368 11.8094 119.368C12.8604 119.368 13.7123 118.516 13.7123 117.465ZM15.3913 117.465C15.3913 115.487 13.7877 113.883 11.8094 113.883C9.83121 113.883 8.22754 115.487 8.22754 117.465C8.22754 119.443 9.83121 121.047 11.8094 121.047C13.7877 121.047 15.3913 119.443 15.3913 117.465Z" fill="#DAB679"/>
<path d="M35.3862 121.109C37.8864 122.86 39.7595 125.366 40.7305 128.26C41.7015 131.153 41.7192 134.282 40.7811 137.186C39.843 140.091 37.9985 142.618 35.5183 144.397C33.0381 146.176 30.0529 147.113 27.0011 147.07C23.9492 147.028 20.9913 146.008 18.5618 144.16C16.1323 142.313 14.359 139.735 13.5024 136.805C12.6457 133.876 12.7508 130.749 13.8022 127.884C14.8536 125.018 16.796 122.565 19.3441 120.885L21.8581 124.698C20.1254 125.84 18.8046 127.508 18.0896 129.457C17.3747 131.405 17.3032 133.532 17.8857 135.524C18.4682 137.516 19.674 139.269 21.3261 140.525C22.9782 141.781 24.9895 142.475 27.0648 142.504C29.1401 142.533 31.17 141.896 32.8565 140.686C34.543 139.476 35.7973 137.758 36.4352 135.783C37.0732 133.808 37.0611 131.68 36.4008 129.713C35.7405 127.745 34.4668 126.041 32.7667 124.85L35.3862 121.109Z" fill="#DAB679"/>
<path d="M4.99969 106.335H4.36969V107.795L3.81969 107.195C3.56469 106.92 3.34469 106.725 3.15469 106.62C2.96469 106.51 2.74469 106.455 2.49969 106.455C2.17969 106.455 1.91969 106.58 1.72469 106.825C1.52969 107.07 1.42969 107.36 1.42969 107.695C1.42969 108.09 1.53969 108.43 1.76469 108.715H2.50469C2.23969 108.415 2.10469 108.1 2.10469 107.77C2.10469 107.41 2.29469 107.17 2.59469 107.17C2.74469 107.17 2.88469 107.215 3.01969 107.31C3.15469 107.4 3.32469 107.56 3.53969 107.795L4.47469 108.825H4.99969V106.335Z" fill="#272E5B"/>
<path d="M5.06969 104.344C5.06969 103.884 4.88969 103.519 4.53469 103.249C4.17969 102.974 3.74969 102.839 3.24969 102.839C2.74969 102.839 2.31969 102.974 1.96469 103.249C1.60969 103.519 1.42969 103.884 1.42969 104.344C1.42969 104.964 1.81469 105.449 2.35969 105.684C2.62969 105.799 2.92469 105.854 3.24969 105.854C3.89469 105.854 4.46469 105.624 4.80969 105.159C4.98469 104.924 5.06969 104.654 5.06969 104.344ZM4.06469 104.919C3.83969 105.064 3.56969 105.134 3.24969 105.134C2.92969 105.134 2.65969 105.064 2.43969 104.919C2.21469 104.774 2.10469 104.584 2.10469 104.344C2.10469 104.104 2.21469 103.914 2.43969 103.774C2.65969 103.629 2.92969 103.559 3.24969 103.559C3.56969 103.559 3.83969 103.629 4.06469 103.774C4.28469 103.914 4.39469 104.104 4.39469 104.344C4.39469 104.584 4.28469 104.774 4.06469 104.919Z" fill="#272E5B"/>
<path d="M4.99969 101.039H1.49969V101.664L1.93969 102.484H2.64469L2.26969 101.744H4.99969V101.039Z" fill="#272E5B"/>
<path d="M4.99969 98.0657H4.12469L4.12469 97.5507H3.54469L3.54469 98.0657H1.49969V98.7757L3.60469 100.521H4.12469V98.7657H4.99969V98.0657ZM2.40469 98.7657H3.54469V99.7257L2.40469 98.7657Z" fill="#272E5B"/>
</g>
<path d="M28.883 79.1678L13.1134 72.5822L13.1134 76.0766L24.403 80.6686L13.1134 85.2382V88.7998L28.883 82.2142V79.1678Z" fill="#DAB679"/>
<path d="M28.7934 70.9153L25.1646 69.3697V62.7393L28.7934 61.1937V57.7665L13.0238 64.4865V67.5777L28.7934 74.2977V70.9153ZM17.0558 66.0545L22.499 63.7697V68.3617L17.0558 66.0545Z" fill="#DAB679"/>
<path d="M29.107 48.8575C29.107 47.1551 28.7262 45.6767 27.9646 44.3999H24.7166C25.635 45.5647 26.083 46.9983 26.083 48.7007C26.083 50.2463 25.6126 51.5231 24.6494 52.5311C23.6862 53.5391 22.4542 54.0543 20.9534 54.0543C19.4526 54.0543 18.243 53.5615 17.2798 52.5759C16.3166 51.5679 15.8238 50.3359 15.8238 48.8351C15.8238 47.2895 16.227 45.9231 17.0334 44.7135H13.7854C13.1358 45.9455 12.7998 47.3119 12.7998 48.8575C12.7998 51.2991 13.5614 53.3375 15.0846 54.9503C16.6078 56.5407 18.5566 57.3471 20.9534 57.3471C23.3278 57.3471 25.2766 56.5407 26.8222 54.9279C28.3454 53.3151 29.107 51.2991 29.107 48.8575Z" fill="#DAB679"/>
<path d="M29.0398 39.74C29.0398 38.6648 28.1662 37.7912 27.0686 37.7912C25.9934 37.7912 25.1422 38.6648 25.1422 39.74C25.1422 40.8376 25.9934 41.6888 27.0686 41.6888C28.1662 41.6888 29.0398 40.8376 29.0398 39.74Z" fill="#DAB679"/>
<path d="M29.107 29.2697C29.107 27.2985 28.5022 25.6857 27.2926 24.4313C26.083 23.1545 24.3806 22.5273 22.2078 22.5273H13.1134V25.7529H22.3198C24.8062 25.7529 26.083 27.1865 26.083 29.2697C26.083 31.3305 24.8062 32.7641 22.3198 32.7641H13.1134V35.9673H22.2078C24.3806 35.9673 26.083 35.3401 27.2926 34.0857C28.5022 32.8313 29.107 31.2185 29.107 29.2697Z" fill="#DAB679"/>
<path d="M28.7934 7.39943H25.9038V15.889L15.3758 7.75784H13.1134L13.1134 19.8986H16.003V12.1258L26.5086 20.2794H28.7934L28.7934 7.39943Z" fill="#DAB679"/>
<path d="M45.0233 91.8887H43.4766C43.4524 91.1959 43.259 90.6481 42.8804 90.2533C42.5018 89.8586 42.0184 89.6572 41.4303 89.6572C40.2622 89.6572 39.4647 90.4789 39.3922 91.8887H37.7729V92.7587H39.3922C39.4647 94.1685 40.2622 94.9902 41.4303 94.9902C42.0184 94.9902 42.5018 94.7888 42.8804 94.3941C43.259 93.9994 43.4524 93.4515 43.4766 92.7587H45.0233V91.8887ZM42.7435 92.7587C42.7435 93.5724 42.2118 94.1444 41.4303 94.1444C40.6489 94.1444 40.1333 93.5724 40.1253 92.7587H42.7435ZM40.1253 91.8887C40.1333 91.075 40.6489 90.5031 41.4303 90.5031C42.2118 90.5031 42.7435 91.075 42.7435 91.8887H40.1253Z" fill="#DAB679"/>
<path d="M42.7354 84.984C42.7354 85.1773 42.5904 85.3143 42.3407 85.3143H40.8664C39.8997 85.3143 39.3519 86.0474 39.3519 87.143C39.3519 87.715 39.4647 88.1903 39.6903 88.585H40.4556C40.2219 88.2064 40.1011 87.7875 40.1011 87.3363C40.1011 86.563 40.3911 86.1763 40.9631 86.1763H41.1806C40.9792 86.5388 40.8745 86.9658 40.8745 87.4411C40.8745 87.8841 40.9873 88.2628 41.2209 88.5689C41.4465 88.875 41.7687 89.0281 42.1876 89.0281C42.5985 89.0281 42.9287 88.8911 43.1624 88.6092C43.396 88.3272 43.5168 87.9728 43.5168 87.5458C43.5168 86.9335 43.3154 86.4502 42.9046 86.0877C43.2832 85.9829 43.4685 85.701 43.4685 85.2579C43.4685 85.0404 43.4282 84.8712 43.3396 84.7504H42.679C42.7193 84.8229 42.7354 84.8954 42.7354 84.984ZM42.2923 86.1763C42.5582 86.426 42.7676 86.853 42.7676 87.3041C42.7676 87.8116 42.5582 88.158 42.1393 88.158C41.7526 88.158 41.527 87.8116 41.527 87.2316C41.527 86.861 41.6237 86.5066 41.809 86.1763H42.2923Z" fill="#DAB679"/>
<path d="M43.5168 81.9575C43.5168 81.3856 43.3315 80.9022 42.9529 80.5155C42.5743 80.1208 42.0829 79.9274 41.4787 79.9274C40.9389 79.9274 40.5039 80.0966 40.1736 80.435C39.8433 80.7733 39.6741 81.2003 39.6741 81.7159C39.6741 82.4006 39.9722 82.9887 40.4556 83.319C40.1978 83.3029 39.9722 83.2546 39.7869 83.174C39.3439 82.9887 39.0297 82.594 38.8283 81.9978C38.7477 81.7642 38.6269 81.2164 38.4658 80.3705H37.6602C37.7488 80.8942 37.8374 81.3372 37.926 81.6998C38.0146 82.0542 38.1435 82.4006 38.3046 82.7309C38.4658 83.0612 38.6591 83.319 38.8847 83.5043C39.3277 83.8829 40.0044 84.1165 40.9148 84.1165C41.7123 84.1165 42.3407 83.9312 42.816 83.5526C43.2832 83.174 43.5168 82.6423 43.5168 81.9575ZM42.7515 81.9575C42.7515 82.7551 42.1876 83.2223 41.2209 83.2626C40.7778 83.0048 40.4233 82.4812 40.4233 81.9253C40.4233 81.2728 40.8664 80.7975 41.5431 80.7975C41.8976 80.7975 42.1876 80.9103 42.4132 81.1278C42.6387 81.3453 42.7515 81.6273 42.7515 81.9575Z" fill="#DAB679"/>
<path d="M39.3519 76.6863C39.3519 77.2986 39.5694 77.7658 39.9964 78.0961H39.4566V78.9661H45.0233V78.0961H42.8724C43.2993 77.7658 43.5168 77.2986 43.5168 76.6863C43.5168 76.1305 43.3154 75.6713 42.9126 75.3087C42.5098 74.9462 42.0184 74.769 41.4384 74.769C40.8503 74.769 40.3589 74.9462 39.9561 75.3087C39.5533 75.6713 39.3519 76.1305 39.3519 76.6863ZM40.1172 76.9199C40.1172 76.5574 40.2461 76.2513 40.5039 76.0096C40.7536 75.7679 41.0678 75.6471 41.4384 75.6471C41.8009 75.6471 42.1151 75.7679 42.3729 76.0096C42.6226 76.2513 42.7515 76.5574 42.7515 76.9199C42.7515 77.4355 42.4454 77.8786 42.0507 78.0961H40.8261C40.4153 77.8786 40.1172 77.4355 40.1172 76.9199Z" fill="#DAB679"/>
<path d="M43.4121 72.9995L40.7214 70.8647H43.4121V69.9947H39.4566V70.8083L42.1393 72.9431H39.4566V73.8132H43.4121V72.9995Z" fill="#DAB679"/>
<path d="M43.4121 67.8846H41.6237L43.4121 66.1203V64.928L41.2289 67.087L39.4566 65.21V66.3217L40.955 67.8846H39.4566V68.7546H43.4121V67.8846Z" fill="#DAB679"/>
<path d="M42.7354 60.5172C42.7354 60.7106 42.5904 60.8475 42.3407 60.8475H40.8664C39.8997 60.8475 39.3519 61.5806 39.3519 62.6762C39.3519 63.2482 39.4647 63.7235 39.6903 64.1182H40.4556C40.2219 63.7396 40.1011 63.3207 40.1011 62.8696C40.1011 62.0962 40.3911 61.7095 40.9631 61.7095H41.1806C40.9792 62.072 40.8745 62.499 40.8745 62.9743C40.8745 63.4174 40.9873 63.796 41.2209 64.1021C41.4465 64.4082 41.7687 64.5613 42.1876 64.5613C42.5985 64.5613 42.9287 64.4243 43.1624 64.1424C43.396 63.8604 43.5168 63.506 43.5168 63.079C43.5168 62.4668 43.3154 61.9834 42.9046 61.6209C43.2832 61.5162 43.4685 61.2342 43.4685 60.7911C43.4685 60.5736 43.4282 60.4044 43.3396 60.2836H42.679C42.7193 60.3561 42.7354 60.4286 42.7354 60.5172ZM42.2923 61.7095C42.5582 61.9592 42.7676 62.3862 42.7676 62.8373C42.7676 63.3449 42.5582 63.6913 42.1393 63.6913C41.7526 63.6913 41.527 63.3449 41.527 62.7648C41.527 62.3942 41.6237 62.0398 41.809 61.7095H42.2923Z" fill="#DAB679"/>
<path d="M43.4121 55.0517C43.4121 54.1736 43.0013 53.6661 42.3326 53.6661C41.809 53.6661 41.4706 53.9239 41.3176 54.4394C41.1806 54.1414 40.8584 53.9319 40.4636 53.9319C39.8836 53.9319 39.4566 54.375 39.4566 55.1725V57.3315H43.4121V55.0517ZM41.7365 56.4615V55.2048C41.7365 54.7939 41.9137 54.5522 42.2279 54.5522C42.526 54.5522 42.7112 54.7939 42.7112 55.2048V56.4615H41.7365ZM40.1575 56.4615V55.382C40.1575 54.9873 40.3025 54.7859 40.6006 54.7859C40.8664 54.7859 41.0356 55.0034 41.0356 55.382V56.4615H40.1575Z" fill="#DAB679"/>
<path d="M42.7515 50.7574C42.7515 51.1361 42.6226 51.4422 42.3729 51.6919C42.1232 51.9417 41.809 52.0625 41.4303 52.0625C41.0598 52.0625 40.7456 51.9417 40.4959 51.6919C40.2461 51.4422 40.1172 51.128 40.1172 50.7574C40.1172 50.3869 40.2461 50.0807 40.4959 49.831C40.7456 49.5813 41.0598 49.4604 41.4303 49.4604C41.809 49.4604 42.1232 49.5813 42.3729 49.831C42.6226 50.0807 42.7515 50.3869 42.7515 50.7574ZM43.5168 50.7574C43.5168 50.1291 43.3154 49.6135 42.9126 49.2026C42.5018 48.7918 42.0104 48.5904 41.4303 48.5904C40.8503 48.5904 40.3589 48.7918 39.9561 49.2026C39.5533 49.6135 39.3519 50.1291 39.3519 50.7574C39.3519 51.3939 39.5533 51.9094 39.9561 52.3203C40.3589 52.7311 40.8503 52.9325 41.4303 52.9325C42.0184 52.9325 42.5098 52.7311 42.9126 52.3203C43.3154 51.9094 43.5168 51.3939 43.5168 50.7574Z" fill="#DAB679"/>
<path d="M43.5168 46.4988C43.5168 45.9268 43.404 45.4596 43.1704 45.1132C42.9368 44.7668 42.6307 44.5895 42.2601 44.5895C41.7687 44.5895 41.4465 44.8393 41.2853 45.3468C41.1403 44.944 40.8503 44.7426 40.4153 44.7426C40.1011 44.7426 39.8514 44.9037 39.65 45.2179C39.4486 45.5321 39.3519 45.9349 39.3519 46.4102C39.3519 46.9902 39.4405 47.4816 39.6258 47.8925H40.3911C40.1978 47.4494 40.1011 47.0144 40.1011 46.5955C40.1011 45.9591 40.2542 45.6368 40.5603 45.6368C40.8503 45.6368 40.9953 45.8866 40.9953 46.378V47.1111H41.6962V46.378C41.6962 45.7979 41.8654 45.5079 42.1957 45.5079C42.5582 45.5079 42.7676 45.9349 42.7676 46.6196C42.7676 47.0869 42.6629 47.5461 42.4454 48.0053H43.2349C43.4202 47.6105 43.5168 47.1111 43.5168 46.4988Z" fill="#DAB679"/>
<path d="M44.4997 43.1852H43.4121V39.9226H44.4997V39.1009H42.6468V39.7856H39.4566V42.9355C40.3347 42.9436 41.0034 42.9838 41.4787 43.0725C41.9459 43.153 42.3326 43.298 42.6468 43.5075V44.0231H44.4997V43.1852ZM42.6468 42.5891C42.0587 42.291 41.2531 42.138 40.2219 42.138V40.6557H42.6468V42.5891Z" fill="#DAB679"/>
<path d="M45.0636 37.8273C45.0636 37.1748 44.6527 36.6753 43.8391 36.3209L39.4566 34.4277L39.4566 35.3703L42.244 36.5223L39.4566 37.7146V38.6813L43.2671 36.9492C43.976 37.2473 44.2983 37.5212 44.2983 37.9723C44.2983 38.1737 44.258 38.3671 44.1694 38.5443H44.9347C45.0233 38.3913 45.0636 38.1576 45.0636 37.8273Z" fill="#DAB679"/>
<path d="M39.4566 33.9565L41.3417 32.5225L43.4121 34.1176V33.1348L41.9701 32.0311L43.4121 30.9274V29.9204L41.3256 31.5155L39.4566 30.0816V31.0724L40.6811 32.015L39.4566 32.9495V33.9565Z" fill="#DAB679"/>
<path d="M42.7515 27.337C42.7515 27.7156 42.6226 28.0217 42.3729 28.2715C42.1232 28.5212 41.809 28.6421 41.4303 28.6421C41.0598 28.6421 40.7456 28.5212 40.4959 28.2715C40.2461 28.0217 40.1172 27.7076 40.1172 27.337C40.1172 26.9664 40.2461 26.6603 40.4959 26.4106C40.7456 26.1608 41.0598 26.04 41.4303 26.04C41.809 26.04 42.1232 26.1608 42.3729 26.4106C42.6226 26.6603 42.7515 26.9664 42.7515 27.337ZM43.5168 27.337C43.5168 26.7086 43.3154 26.193 42.9126 25.7822C42.5018 25.3713 42.0104 25.1699 41.4303 25.1699C40.8503 25.1699 40.3589 25.3713 39.9561 25.7822C39.5533 26.193 39.3519 26.7086 39.3519 27.337C39.3519 27.9734 39.5533 28.489 39.9561 28.8998C40.3589 29.3107 40.8503 29.5121 41.4303 29.5121C42.0184 29.5121 42.5098 29.3107 42.9126 28.8998C43.3154 28.489 43.5168 27.9734 43.5168 27.337Z" fill="#DAB679"/>
<path d="M43.4121 21.9311C43.4121 21.053 43.0013 20.5454 42.3326 20.5454C41.809 20.5454 41.4706 20.8032 41.3176 21.3188C41.1806 21.0208 40.8584 20.8113 40.4636 20.8113C39.8836 20.8113 39.4566 21.2544 39.4566 22.0519V24.2109H43.4121V21.9311ZM41.7365 23.3409V22.0841C41.7365 21.6733 41.9137 21.4316 42.2279 21.4316C42.526 21.4316 42.7112 21.6733 42.7112 22.0841V23.3409H41.7365ZM40.1575 23.3409V22.2614C40.1575 21.8666 40.3025 21.6652 40.6006 21.6652C40.8664 21.6652 41.0356 21.8827 41.0356 22.2614V23.3409H40.1575Z" fill="#DAB679"/>
<path d="M42.7515 17.6368C42.7515 18.0154 42.6226 18.3216 42.3729 18.5713C42.1232 18.821 41.809 18.9419 41.4303 18.9419C41.0598 18.9419 40.7456 18.821 40.4959 18.5713C40.2461 18.3216 40.1172 18.0074 40.1172 17.6368C40.1172 17.2662 40.2461 16.9601 40.4959 16.7104C40.7456 16.4606 41.0598 16.3398 41.4303 16.3398C41.809 16.3398 42.1232 16.4606 42.3729 16.7104C42.6226 16.9601 42.7515 17.2662 42.7515 17.6368ZM43.5168 17.6368C43.5168 17.0085 43.3154 16.4929 42.9126 16.082C42.5018 15.6712 42.0104 15.4698 41.4303 15.4698C40.8503 15.4698 40.3589 15.6712 39.9561 16.082C39.5533 16.4929 39.3519 17.0085 39.3519 17.6368C39.3519 18.2732 39.5533 18.7888 39.9561 19.1997C40.3589 19.6105 40.8503 19.8119 41.4303 19.8119C42.0184 19.8119 42.5098 19.6105 42.9126 19.1997C43.3154 18.7888 43.5168 18.2732 43.5168 17.6368Z" fill="#DAB679"/>
<path d="M44.4997 14.2342H43.4121V10.9715H44.4997V10.1498H42.6468V10.8346H39.4566V13.9845C40.3347 13.9925 41.0034 14.0328 41.4787 14.1214C41.9459 14.202 42.3326 14.347 42.6468 14.5564V15.072H44.4997V14.2342ZM42.6468 13.638C42.0587 13.34 41.2531 13.1869 40.2219 13.1869V11.7046H42.6468V13.638Z" fill="#DAB679"/>
<path d="M42.7515 7.38595C42.7515 7.76457 42.6226 8.0707 42.3729 8.32043C42.1232 8.57017 41.809 8.69101 41.4303 8.69101C41.0598 8.69101 40.7456 8.57017 40.4959 8.32043C40.2461 8.0707 40.1172 7.75652 40.1172 7.38595C40.1172 7.01537 40.2461 6.70924 40.4959 6.45951C40.7456 6.20978 41.0598 6.08894 41.4303 6.08894C41.809 6.08894 42.1232 6.20978 42.3729 6.45951C42.6226 6.70924 42.7515 7.01537 42.7515 7.38595ZM43.5168 7.38595C43.5168 6.75758 43.3154 6.242 42.9126 5.83115C42.5018 5.4203 42.0104 5.21889 41.4303 5.21889C40.8503 5.21889 40.3589 5.4203 39.9561 5.83115C39.5533 6.242 39.3519 6.75758 39.3519 7.38595C39.3519 8.02236 39.5533 8.53795 39.9561 8.9488C40.3589 9.35966 40.8503 9.56105 41.4303 9.56105C42.0184 9.56105 42.5098 9.35966 42.9126 8.9488C43.3154 8.53795 43.5168 8.02236 43.5168 7.38595Z" fill="#DAB679"/>
<path d="M43.4121 1.98003C43.4121 1.10194 43.0013 0.594406 42.3326 0.594406C41.809 0.594406 41.4706 0.852196 41.3176 1.36777C41.1806 1.0697 40.8584 0.860252 40.4636 0.860252C39.8836 0.860252 39.4566 1.30333 39.4566 2.10087V4.25986H43.4121V1.98003ZM41.7365 3.38982V2.13309C41.7365 1.72224 41.9137 1.48057 42.2279 1.48057C42.526 1.48057 42.7112 1.72224 42.7112 2.13309V3.38982H41.7365ZM40.1575 3.38982V2.31032C40.1575 1.91558 40.3025 1.71418 40.6006 1.71418C40.8664 1.71418 41.0356 1.93169 41.0356 2.31032V3.38982H40.1575Z" fill="#DAB679"/>
</g>
<defs>
<clipPath id="clip0">
<rect width="160" height="54.4" fill="white" transform="translate(0 160) rotate(-90)"/>
</clipPath>
<clipPath id="clip1">
<rect width="54.4" height="54.4" fill="white" transform="translate(0 160) rotate(-90)"/>
</clipPath>
</defs>
</svg>
