<svg width="24" height="24" viewBox="0 0 24 24" fill="none" xmlns="http://www.w3.org/2000/svg">
<g clip-path="url(#clip0)">
<path d="M14.7527 6H9.24926C7.45813 6 6.00098 7.45715 6.00098 9.24828V14.7518C6.00098 16.5428 7.45813 18 9.24926 18H14.7528C16.5438 18 18.001 16.5428 18.001 14.7518V9.24828C18.001 7.45715 16.5438 6 14.7527 6V6ZM17.2975 14.7518C17.2975 16.1549 16.1559 17.2965 14.7527 17.2965H9.24926C7.84604 17.2965 6.70447 16.1549 6.70447 14.7518V9.24828C6.70447 7.84506 7.84604 6.70349 9.24926 6.70349H14.7528C16.1559 6.70349 17.2975 7.84506 17.2975 9.24828V14.7518Z" fill="#F1F1F1"/>
<path d="M12.0011 8.71875C10.1919 8.71875 8.71997 10.1906 8.71997 11.9999C8.71997 13.8092 10.1919 15.2811 12.0011 15.2811C13.8104 15.2811 15.2823 13.8092 15.2823 11.9999C15.2823 10.1906 13.8104 8.71875 12.0011 8.71875ZM12.0011 14.5776C10.5799 14.5776 9.42346 13.4213 9.42346 11.9999C9.42346 10.5786 10.5799 9.42224 12.0011 9.42224C13.4225 9.42224 14.5788 10.5786 14.5788 11.9999C14.5788 13.4213 13.4225 14.5776 12.0011 14.5776Z" fill="#F1F1F1"/>
<path d="M15.3604 7.55347C14.8257 7.55347 14.3909 7.98843 14.3909 8.52301C14.3909 9.05768 14.8257 9.49264 15.3604 9.49264C15.8951 9.49264 16.33 9.05768 16.33 8.52301C16.33 7.98834 15.8951 7.55347 15.3604 7.55347ZM15.3604 8.78906C15.2137 8.78906 15.0944 8.66968 15.0944 8.52301C15.0944 8.37625 15.2137 8.25696 15.3604 8.25696C15.5072 8.25696 15.6266 8.37625 15.6266 8.52301C15.6266 8.66968 15.5072 8.78906 15.3604 8.78906Z" fill="#F1F1F1"/>
</g>
<rect x="0.500977" y="0.5" width="23" height="23" stroke="#F1F1F1"/>
<defs>
<clipPath id="clip0">
<rect width="12" height="12" fill="white" transform="translate(6.00098 6)"/>
</clipPath>
</defs>
</svg>
