<svg width="24" height="24" viewBox="0 0 24 24" fill="none" xmlns="http://www.w3.org/2000/svg">
<rect x="0.500977" y="0.5" width="23" height="23" stroke="#F1F1F1"/>
<path d="M17.191 9.5H17.6257L17.4071 9.12428C16.6574 7.83588 15.4625 6.83586 14.0245 6.34348L13.4195 6.13634L13.7235 6.69888C14.1632 7.51217 14.501 8.3929 14.7363 9.312L14.7844 9.5H14.9785H17.191ZM12.2066 6.13779L12.001 5.84052L11.7954 6.13779C11.1584 7.0587 10.6593 8.0798 10.3291 9.17801L10.2322 9.5H10.5685H13.4335H13.7697L13.6729 9.17801C13.3427 8.0798 12.8435 7.0587 12.2066 6.13779ZM5.95344 13.8106L6.00078 14H6.19598H8.73098H9.01311L8.97916 13.7199C8.91971 13.2294 8.87598 12.7456 8.87598 12.25C8.87598 11.7544 8.91971 11.2706 8.97916 10.7801L9.01311 10.5H8.73098H6.19598H6.00078L5.95344 10.6894C5.82947 11.1853 5.75098 11.7084 5.75098 12.25C5.75098 12.7916 5.82947 13.3147 5.95344 13.8106ZM6.81098 15H6.3776L6.59456 15.3752C7.34457 16.6721 8.53999 17.6643 9.97749 18.1565L10.5825 18.3637L10.2784 17.8011C9.83878 16.9878 9.50096 16.1071 9.26567 15.188L9.21754 15H9.02348H6.81098ZM9.02348 9.5H9.21754L9.26567 9.312C9.50096 8.3929 9.83878 7.51217 10.2784 6.69888L10.5825 6.13634L9.97749 6.34348C8.53999 6.83567 7.34457 7.82795 6.59456 9.12484L6.3776 9.5H6.81098H9.02348ZM11.7954 18.3622L12.001 18.6595L12.2066 18.3622C12.8435 17.4413 13.3427 16.4202 13.6729 15.322L13.7697 15H13.4335H10.5685H10.2322L10.3291 15.322C10.6593 16.4202 11.1584 17.4413 11.7954 18.3622ZM13.756 14H13.9742L14.0037 13.7838C14.0718 13.2845 14.126 12.7766 14.126 12.25C14.126 11.7235 14.0718 11.2082 14.0036 10.7157L13.9737 10.5H13.756H10.246H10.0282L9.99834 10.7157C9.93015 11.2082 9.87598 11.7235 9.87598 12.25C9.87598 12.7766 9.93019 13.2845 9.99827 13.7838L10.0278 14H10.246H13.756ZM13.7235 17.8011L13.4195 18.3637L14.0245 18.1565C15.4625 17.6641 16.6574 16.6641 17.4071 15.3757L17.6257 15H17.191H14.9785H14.7844L14.7363 15.188C14.501 16.1071 14.1632 16.9878 13.7235 17.8011ZM15.0228 13.7199L14.9888 14H15.271H17.806H18.0012L18.0485 13.8106C18.1725 13.3147 18.251 12.7916 18.251 12.25C18.251 11.7084 18.1725 11.1853 18.0485 10.6894L18.0012 10.5H17.806H15.271H14.9888L15.0228 10.7801C15.0822 11.2706 15.126 11.7544 15.126 12.25C15.126 12.7456 15.0822 13.2294 15.0228 13.7199ZM4.75098 12.25C4.75098 8.24775 7.99187 5 11.9935 5C16.0031 5 19.251 8.24823 19.251 12.25C19.251 16.2518 16.0031 19.5 11.9935 19.5C7.99187 19.5 4.75098 16.2523 4.75098 12.25Z" stroke="#F1F1F1" stroke-width="0.5"/>
</svg>
