<svg width="46" height="51" viewBox="0 0 46 51" fill="none" xmlns="http://www.w3.org/2000/svg">
<path fill-rule="evenodd" clip-rule="evenodd" d="M21.6668 33.3333C21.6668 38.2933 24.6535 43.8133 27.5068 48H21.6668V38.6667H16.3335V48H0.333496V0H37.6668V18.7467C37.2402 18.6667 36.7869 18.6667 36.3335 18.6667H36.3335C35.0002 18.6667 33.6668 18.9067 32.3335 19.28V16H27.0002V21.3333H28.0668C24.2268 24 21.6668 28.4533 21.6668 33.3333ZM32.3335 5.33333H27.0002V10.6667H32.3335V5.33333ZM5.66683 42.6667H11.0002V37.3333H5.66683V42.6667ZM5.66683 32H11.0002V26.6667H5.66683V32ZM5.66683 21.3333H11.0002V16H5.66683V21.3333ZM5.66683 10.6667H11.0002V5.33333H5.66683V10.6667ZM21.6668 5.33333H16.3335V10.6667H21.6668V5.33333ZM21.6668 16H16.3335V21.3333H21.6668V16ZM16.3335 26.6667V32H21.6668V26.6667H16.3335ZM27.0002 33.3333C27.0002 28.2933 31.2668 24 36.3335 24C41.4002 24 45.6668 28.2933 45.6668 33.3333C45.6668 40.2933 36.3335 50.6667 36.3335 50.6667C36.3335 50.6667 27.0002 40.2933 27.0002 33.3333ZM36.5 39C38.9853 39 41 36.9853 41 34.5C41 32.0147 38.9853 30 36.5 30C34.0147 30 32 32.0147 32 34.5C32 36.9853 34.0147 39 36.5 39Z" fill="#ED1C24"/>
</svg>
