<svg width="52" height="46" viewBox="0 0 52 46" fill="none" xmlns="http://www.w3.org/2000/svg">
<path fill-rule="evenodd" clip-rule="evenodd" d="M25 15.7375L38.0625 7.1625C38.2505 7.03869 38.4684 6.96794 38.6933 6.95773C38.9182 6.94752 39.1417 6.99822 39.3401 7.10449C39.5385 7.21075 39.7046 7.36864 39.8208 7.56146C39.9369 7.75429 39.9988 7.9749 40 8.2V19C37.1733 19 34.575 19.9773 32.5243 21.6125H32.5V21.6319C31.5328 22.4073 30.6882 23.3294 30 24.3644V21.6125H27.5V25.3625H29.404C28.7903 26.5135 28.3587 27.7764 28.1476 29.1125H27.5V32.8625H28.1437C28.3518 34.1982 28.7803 35.461 29.3907 36.6125H1.25C0.918479 36.6125 0.600537 36.4808 0.366116 36.2464C0.131696 36.012 0 35.694 0 35.3625V14.1125H2.5V0L10 1.6875V14.1125H15.0875L22.9625 7.525C23.1462 7.37598 23.3684 7.28213 23.6033 7.25437C23.8382 7.22662 24.0762 7.26608 24.2896 7.36819C24.5029 7.47029 24.683 7.63085 24.8087 7.83119C24.9345 8.03154 25.0008 8.26346 25 8.5V15.7375ZM5 30.3625V32.8625H15V30.3625H5ZM5 25.3625V27.8625H15V25.3625H5ZM5 20.3625V22.8625H15V20.3625H5ZM22.5 32.8625H25V29.1125H22.5V32.8625ZM22.5 25.3625H25V21.6125H22.5V25.3625Z" fill="#ED1C24"/>
<path d="M40 22C34.96 22 30.8594 26.1006 30.8594 31.1406C30.8594 33.1352 31.4894 35.0303 32.6828 36.6203L39.4366 45.7165C39.4534 45.7385 39.4792 45.7469 39.498 45.7666C39.8355 46.128 40.3225 46.0371 40.563 45.7165C42.5078 43.1215 46.0727 38.275 47.4433 36.4469C47.4433 36.4469 47.4438 36.4455 47.4442 36.4445L47.4527 36.4333C48.557 34.8817 49.1406 33.0517 49.1406 31.1406C49.1406 26.1006 45.04 22 40 22ZM40 36.0719C37.2864 36.0719 35.0688 33.8542 35.0688 31.1406C35.0688 28.427 37.2864 26.2094 40 26.2094C42.7136 26.2094 44.9313 28.427 44.9313 31.1406C44.9313 33.8542 42.7136 36.0719 40 36.0719Z" fill="#ED1C24"/>
</svg>
