<svg width="200" height="68" viewBox="0 0 200 68" fill="none" xmlns="http://www.w3.org/2000/svg">
<g clip-path="url(#clip0)">
<g clip-path="url(#clip1)">
<path fill-rule="evenodd" clip-rule="evenodd" d="M5.73427 33.986H0V62.2377V67.9719V67.972H5.73427V67.9719H33.986V62.2377H5.73427V33.986Z" fill="white"/>
<path fill-rule="evenodd" clip-rule="evenodd" d="M62.2378 33.986H67.972V5.73425V-1.90735e-05V-4.95911e-05H62.2378V-1.90735e-05L33.986 -1.90735e-05L33.986 5.73425L62.2378 5.73425V33.986Z" fill="white"/>
<path fill-rule="evenodd" clip-rule="evenodd" d="M53.1468 17.1328C54.4599 17.1328 55.5244 16.0683 55.5244 14.7552C55.5244 13.4421 54.4599 12.3776 53.1468 12.3776C51.8337 12.3776 50.7692 13.4421 50.7692 14.7552C50.7692 16.0683 51.8337 17.1328 53.1468 17.1328ZM53.1468 19.2307C55.6186 19.2307 57.6223 17.227 57.6223 14.7552C57.6223 12.2834 55.6186 10.2797 53.1468 10.2797C50.675 10.2797 48.6713 12.2834 48.6713 14.7552C48.6713 17.227 50.675 19.2307 53.1468 19.2307Z" fill="white"/>
<path d="M48.5932 44.2141C46.4058 47.3381 43.2745 49.6785 39.659 50.8917C36.0434 52.1049 32.1342 52.1271 28.5051 50.955C24.8761 49.7828 21.7184 47.4781 19.4957 44.3791C17.273 41.2802 16.1023 37.5503 16.1555 33.737C16.2088 29.9237 17.4832 26.2279 19.7915 23.1923C22.0999 20.1566 25.3207 17.9409 28.9811 16.8706C32.6414 15.8002 36.5486 15.9315 40.1288 17.2452C43.709 18.559 46.7738 20.9859 48.8731 24.1697L44.1092 27.3109C42.6817 25.1459 40.5976 23.4956 38.1631 22.6023C35.7285 21.7089 33.0717 21.6196 30.5826 22.3475C28.0936 23.0753 25.9035 24.582 24.3338 26.6463C22.7641 28.7105 21.8975 31.2236 21.8613 33.8167C21.8251 36.4097 22.6211 38.946 24.1326 41.0533C25.644 43.1606 27.7913 44.7278 30.259 45.5249C32.7268 46.322 35.3851 46.3069 37.8436 45.4819C40.3022 44.6569 42.4315 43.0654 43.9189 40.9411L48.5932 44.2141Z" fill="white"/>
</g>
<path d="M101.04 36.104L109.272 16.392H104.904L99.164 30.504L93.452 16.392H89L97.232 36.104H101.04Z" fill="#F1F1F1"/>
<path d="M111.356 35.992L113.288 31.456H121.576L123.508 35.992H127.792L119.392 16.28H115.528L107.128 35.992H111.356ZM117.432 21.32L120.288 28.124H114.548L117.432 21.32Z" fill="#F1F1F1"/>
<path d="M138.928 36.384C141.056 36.384 142.904 35.908 144.5 34.956V30.896C143.044 32.044 141.252 32.604 139.124 32.604C137.192 32.604 135.596 32.016 134.336 30.812C133.076 29.608 132.432 28.068 132.432 26.192C132.432 24.316 133.048 22.804 134.28 21.6C135.54 20.396 137.08 19.78 138.956 19.78C140.888 19.78 142.596 20.284 144.108 21.292V17.232C142.568 16.42 140.86 16 138.928 16C135.876 16 133.328 16.952 131.312 18.856C129.324 20.76 128.316 23.196 128.316 26.192C128.316 29.16 129.324 31.596 131.34 33.528C133.356 35.432 135.876 36.384 138.928 36.384Z" fill="#F1F1F1"/>
<path d="M150.325 36.3C151.669 36.3 152.761 35.208 152.761 33.836C152.761 32.492 151.669 31.428 150.325 31.428C148.953 31.428 147.889 32.492 147.889 33.836C147.889 35.208 148.953 36.3 150.325 36.3Z" fill="#F1F1F1"/>
<path d="M163.413 36.384C165.877 36.384 167.893 35.628 169.461 34.116C171.057 32.604 171.841 30.476 171.841 27.76V16.392H167.809V27.9C167.809 31.008 166.017 32.604 163.413 32.604C160.837 32.604 159.045 31.008 159.045 27.9V16.392H155.041V27.76C155.041 30.476 155.825 32.604 157.393 34.116C158.961 35.628 160.977 36.384 163.413 36.384Z" fill="#F1F1F1"/>
<path d="M190.75 35.992V32.38H180.138L190.302 19.22V16.392H175.126V20.004H184.842L174.65 33.136V35.992H190.75Z" fill="#F1F1F1"/>
<path d="M85.139 56.2799V54.3464C86.005 54.3162 86.6898 54.0745 87.1832 53.6012C87.6766 53.128 87.9284 52.5238 87.9284 51.7887C87.9284 50.3285 86.9012 49.3316 85.139 49.241V47.2169H84.0515V49.241C82.2892 49.3316 81.2621 50.3285 81.2621 51.7887C81.2621 52.5238 81.5138 53.128 82.0073 53.6012C82.5007 54.0745 83.1854 54.3162 84.0515 54.3464V56.2799H85.139ZM84.0515 53.4301C83.0344 53.4301 82.3194 52.7654 82.3194 51.7887C82.3194 50.8119 83.0344 50.1674 84.0515 50.1573V53.4301ZM85.139 50.1573C86.1561 50.1674 86.871 50.8119 86.871 51.7887C86.871 52.7654 86.1561 53.4301 85.139 53.4301V50.1573Z" fill="#EEEEEE"/>
<path d="M93.7699 53.42C93.5282 53.42 93.357 53.2387 93.357 52.9266V51.0838C93.357 49.8754 92.4407 49.1906 91.0711 49.1906C90.3562 49.1906 89.762 49.3316 89.2686 49.6136V50.5702C89.7419 50.2782 90.2655 50.1271 90.8295 50.1271C91.7962 50.1271 92.2795 50.4896 92.2795 51.2046V51.4765C91.8264 51.2247 91.2927 51.0938 90.6986 51.0938C90.1447 51.0938 89.6714 51.2348 89.2888 51.5268C88.9061 51.8088 88.7148 52.2116 88.7148 52.7352C88.7148 53.2488 88.886 53.6617 89.2384 53.9537C89.5909 54.2457 90.0339 54.3968 90.5676 54.3968C91.333 54.3968 91.9372 54.145 92.3903 53.6315C92.5212 54.1047 92.8737 54.3364 93.4275 54.3364C93.6994 54.3364 93.9109 54.286 94.0619 54.1752V53.3495C93.9713 53.3998 93.8807 53.42 93.7699 53.42ZM92.2795 52.8661C91.9674 53.1984 91.4337 53.4603 90.8697 53.4603C90.2353 53.4603 89.8023 53.1984 89.8023 52.6748C89.8023 52.1915 90.2353 51.9095 90.9604 51.9095C91.4236 51.9095 91.8667 52.0303 92.2795 52.2619V52.8661Z" fill="#EEEEEE"/>
<path d="M97.5529 54.3968C98.2679 54.3968 98.8721 54.1652 99.3555 53.6919C99.8489 53.2186 100.091 52.6043 100.091 51.8491C100.091 51.1744 99.8791 50.6306 99.4562 50.2177C99.0332 49.8049 98.4995 49.5934 97.855 49.5934C96.9991 49.5934 96.264 49.966 95.8511 50.5702C95.8713 50.248 95.9317 49.966 96.0324 49.7344C96.264 49.1805 96.7574 48.7878 97.5026 48.5361C97.7946 48.4354 98.4794 48.2843 99.5367 48.0829V47.0759C98.8822 47.1867 98.3283 47.2975 97.8752 47.4082C97.4321 47.519 96.9991 47.6801 96.5862 47.8815C96.1734 48.0829 95.8511 48.3246 95.6195 48.6066C95.1462 49.1604 94.8542 50.0063 94.8542 51.1442C94.8542 52.1411 95.0858 52.9266 95.5591 53.5207C96.0324 54.1047 96.697 54.3968 97.5529 54.3968ZM97.5529 53.4401C96.556 53.4401 95.972 52.7352 95.9216 51.5268C96.2439 50.973 96.8984 50.5299 97.5932 50.5299C98.4089 50.5299 99.003 51.0838 99.003 51.9296C99.003 52.3727 98.862 52.7352 98.5902 53.0172C98.3183 53.2991 97.9658 53.4401 97.5529 53.4401Z" fill="#EEEEEE"/>
<path d="M104.142 49.1906C103.377 49.1906 102.793 49.4625 102.38 49.9962V49.3215H101.292V56.2799H102.38V53.5912C102.793 54.1249 103.377 54.3968 104.142 54.3968C104.837 54.3968 105.411 54.145 105.864 53.6415C106.317 53.138 106.539 52.5238 106.539 51.7987C106.539 51.0636 106.317 50.4494 105.864 49.9459C105.411 49.4424 104.837 49.1906 104.142 49.1906ZM103.85 50.1473C104.303 50.1473 104.686 50.3084 104.988 50.6306C105.29 50.9428 105.441 51.3355 105.441 51.7987C105.441 52.2519 105.29 52.6446 104.988 52.9668C104.686 53.279 104.303 53.4401 103.85 53.4401C103.205 53.4401 102.652 53.0575 102.38 52.564V51.0334C102.652 50.5198 103.205 50.1473 103.85 50.1473Z" fill="#EEEEEE"/>
<path d="M108.75 54.2659L111.419 50.9025V54.2659H112.507V49.3215H111.489L108.821 52.6748V49.3215H107.733V54.2659H108.75Z" fill="#EEEEEE"/>
<path d="M115.144 54.2659V52.0303L117.349 54.2659H118.84L116.141 51.5369L118.487 49.3215H117.098L115.144 51.1945V49.3215H114.057V54.2659H115.144Z" fill="#EEEEEE"/>
<path d="M124.353 53.42C124.112 53.42 123.94 53.2387 123.94 52.9266V51.0838C123.94 49.8754 123.024 49.1906 121.655 49.1906C120.94 49.1906 120.346 49.3316 119.852 49.6136V50.5702C120.325 50.2782 120.849 50.1271 121.413 50.1271C122.38 50.1271 122.863 50.4896 122.863 51.2046V51.4765C122.41 51.2247 121.876 51.0938 121.282 51.0938C120.728 51.0938 120.255 51.2348 119.872 51.5268C119.49 51.8088 119.298 52.2116 119.298 52.7352C119.298 53.2488 119.469 53.6617 119.822 53.9537C120.174 54.2457 120.617 54.3968 121.151 54.3968C121.916 54.3968 122.521 54.145 122.974 53.6315C123.105 54.1047 123.457 54.3364 124.011 54.3364C124.283 54.3364 124.494 54.286 124.645 54.1752V53.3495C124.555 53.3998 124.464 53.42 124.353 53.42ZM122.863 52.8661C122.551 53.1984 122.017 53.4603 121.453 53.4603C120.819 53.4603 120.386 53.1984 120.386 52.6748C120.386 52.1915 120.819 51.9095 121.544 51.9095C122.007 51.9095 122.45 52.0303 122.863 52.2619V52.8661Z" fill="#EEEEEE"/>
<path d="M131.185 54.2659C132.283 54.2659 132.917 53.7523 132.917 52.9165C132.917 52.2619 132.595 51.839 131.951 51.6477C132.323 51.4765 132.585 51.0737 132.585 50.5803C132.585 49.8552 132.031 49.3215 131.034 49.3215H128.335V54.2659H131.185ZM129.423 52.1713H130.994C131.507 52.1713 131.81 52.3929 131.81 52.7856C131.81 53.1582 131.507 53.3898 130.994 53.3898H129.423V52.1713ZM129.423 50.1976H130.772C131.266 50.1976 131.518 50.3789 131.518 50.7515C131.518 51.0838 131.246 51.2952 130.772 51.2952H129.423V50.1976Z" fill="#EEEEEE"/>
<path d="M136.553 53.4401C136.08 53.4401 135.697 53.279 135.385 52.9668C135.073 52.6547 134.922 52.2619 134.922 51.7887C134.922 51.3254 135.073 50.9327 135.385 50.6205C135.697 50.3084 136.09 50.1473 136.553 50.1473C137.016 50.1473 137.399 50.3084 137.711 50.6205C138.023 50.9327 138.174 51.3254 138.174 51.7887C138.174 52.2619 138.023 52.6547 137.711 52.9668C137.399 53.279 137.016 53.4401 136.553 53.4401ZM136.553 54.3968C137.339 54.3968 137.983 54.145 138.497 53.6415C139.01 53.128 139.262 52.5137 139.262 51.7887C139.262 51.0636 139.01 50.4494 138.497 49.9459C137.983 49.4424 137.339 49.1906 136.553 49.1906C135.758 49.1906 135.113 49.4424 134.6 49.9459C134.086 50.4494 133.834 51.0636 133.834 51.7887C133.834 52.5238 134.086 53.138 134.6 53.6415C135.113 54.145 135.758 54.3968 136.553 54.3968Z" fill="#EEEEEE"/>
<path d="M141.876 54.3968C142.591 54.3968 143.175 54.2558 143.608 53.9638C144.041 53.6717 144.263 53.2891 144.263 52.8259C144.263 52.2116 143.951 51.8088 143.316 51.6074C143.82 51.4261 144.072 51.0636 144.072 50.5198C144.072 50.1271 143.87 49.815 143.477 49.5632C143.085 49.3115 142.581 49.1906 141.987 49.1906C141.262 49.1906 140.648 49.3014 140.134 49.533V50.4896C140.688 50.248 141.232 50.1271 141.756 50.1271C142.551 50.1271 142.954 50.3184 142.954 50.7011C142.954 51.0636 142.642 51.2449 142.027 51.2449H141.111V52.121H142.027C142.752 52.121 143.115 52.3324 143.115 52.7453C143.115 53.1984 142.581 53.4603 141.725 53.4603C141.141 53.4603 140.567 53.3294 139.993 53.0575V54.0443C140.487 54.2759 141.111 54.3968 141.876 54.3968Z" fill="#EEEEEE"/>
<path d="M146.018 55.6253V54.2659H150.097V55.6253H151.124V53.3092H150.268V49.3215H146.331C146.32 50.4191 146.27 51.255 146.159 51.8491C146.059 52.4331 145.877 52.9165 145.616 53.3092H144.971V55.6253H146.018ZM146.764 53.3092C147.136 52.5741 147.327 51.5671 147.327 50.2782H149.18V53.3092H146.764Z" fill="#EEEEEE"/>
<path d="M152.716 56.3302C153.531 56.3302 154.156 55.8166 154.599 54.7996L156.965 49.3215H155.787L154.347 52.8057L152.857 49.3215H151.648L153.813 54.0846C153.441 54.9708 153.098 55.3736 152.534 55.3736C152.283 55.3736 152.041 55.3232 151.819 55.2124V56.1691C152.011 56.2799 152.303 56.3302 152.716 56.3302Z" fill="#EEEEEE"/>
<path d="M157.554 49.3215L159.347 51.6779L157.353 54.2659H158.581L159.961 52.4633L161.341 54.2659H162.599L160.606 51.6577L162.398 49.3215H161.159L159.981 50.8522L158.813 49.3215H157.554Z" fill="#EEEEEE"/>
<path d="M165.829 53.4401C165.355 53.4401 164.973 53.279 164.661 52.9668C164.348 52.6547 164.197 52.2619 164.197 51.7887C164.197 51.3254 164.348 50.9327 164.661 50.6205C164.973 50.3084 165.365 50.1473 165.829 50.1473C166.292 50.1473 166.675 50.3084 166.987 50.6205C167.299 50.9327 167.45 51.3254 167.45 51.7887C167.45 52.2619 167.299 52.6547 166.987 52.9668C166.675 53.279 166.292 53.4401 165.829 53.4401ZM165.829 54.3968C166.614 54.3968 167.259 54.145 167.772 53.6415C168.286 53.128 168.537 52.5137 168.537 51.7887C168.537 51.0636 168.286 50.4494 167.772 49.9459C167.259 49.4424 166.614 49.1906 165.829 49.1906C165.033 49.1906 164.389 49.4424 163.875 49.9459C163.362 50.4494 163.11 51.0636 163.11 51.7887C163.11 52.5238 163.362 53.138 163.875 53.6415C164.389 54.145 165.033 54.3968 165.829 54.3968Z" fill="#EEEEEE"/>
<path d="M172.586 54.2659C173.684 54.2659 174.318 53.7523 174.318 52.9165C174.318 52.2619 173.996 51.839 173.351 51.6477C173.724 51.4765 173.986 51.0737 173.986 50.5803C173.986 49.8552 173.432 49.3215 172.435 49.3215H169.736V54.2659H172.586ZM170.824 52.1713H172.395C172.908 52.1713 173.21 52.3929 173.21 52.7856C173.21 53.1582 172.908 53.3898 172.395 53.3898H170.824V52.1713ZM170.824 50.1976H172.173C172.667 50.1976 172.918 50.3789 172.918 50.7515C172.918 51.0838 172.646 51.2952 172.173 51.2952H170.824V50.1976Z" fill="#EEEEEE"/>
<path d="M177.954 53.4401C177.481 53.4401 177.098 53.279 176.786 52.9668C176.474 52.6547 176.323 52.2619 176.323 51.7887C176.323 51.3254 176.474 50.9327 176.786 50.6205C177.098 50.3084 177.491 50.1473 177.954 50.1473C178.417 50.1473 178.8 50.3084 179.112 50.6205C179.424 50.9327 179.575 51.3254 179.575 51.7887C179.575 52.2619 179.424 52.6547 179.112 52.9668C178.8 53.279 178.417 53.4401 177.954 53.4401ZM177.954 54.3968C178.739 54.3968 179.384 54.145 179.897 53.6415C180.411 53.128 180.663 52.5137 180.663 51.7887C180.663 51.0636 180.411 50.4494 179.897 49.9459C179.384 49.4424 178.739 49.1906 177.954 49.1906C177.158 49.1906 176.514 49.4424 176 49.9459C175.487 50.4494 175.235 51.0636 175.235 51.7887C175.235 52.5238 175.487 53.138 176 53.6415C176.514 54.145 177.158 54.3968 177.954 54.3968Z" fill="#EEEEEE"/>
<path d="M182.207 55.6253V54.2659H186.285V55.6253H187.313V53.3092H186.457V49.3215H182.519C182.509 50.4191 182.459 51.255 182.348 51.8491C182.247 52.4331 182.066 52.9165 181.804 53.3092H181.16V55.6253H182.207ZM182.952 53.3092C183.325 52.5741 183.516 51.5671 183.516 50.2782H185.369V53.3092H182.952Z" fill="#EEEEEE"/>
<path d="M190.767 53.4401C190.294 53.4401 189.912 53.279 189.599 52.9668C189.287 52.6547 189.136 52.2619 189.136 51.7887C189.136 51.3254 189.287 50.9327 189.599 50.6205C189.912 50.3084 190.304 50.1473 190.767 50.1473C191.231 50.1473 191.613 50.3084 191.926 50.6205C192.238 50.9327 192.389 51.3254 192.389 51.7887C192.389 52.2619 192.238 52.6547 191.926 52.9668C191.613 53.279 191.231 53.4401 190.767 53.4401ZM190.767 54.3968C191.553 54.3968 192.197 54.145 192.711 53.6415C193.225 53.128 193.476 52.5137 193.476 51.7887C193.476 51.0636 193.225 50.4494 192.711 49.9459C192.197 49.4424 191.553 49.1906 190.767 49.1906C189.972 49.1906 189.327 49.4424 188.814 49.9459C188.3 50.4494 188.049 51.0636 188.049 51.7887C188.049 52.5238 188.3 53.138 188.814 53.6415C189.327 54.145 189.972 54.3968 190.767 54.3968Z" fill="#EEEEEE"/>
<path d="M197.525 54.2659C198.622 54.2659 199.257 53.7523 199.257 52.9165C199.257 52.2619 198.935 51.839 198.29 51.6477C198.663 51.4765 198.925 51.0737 198.925 50.5803C198.925 49.8552 198.371 49.3215 197.374 49.3215H194.675V54.2659H197.525ZM195.763 52.1713H197.334C197.847 52.1713 198.149 52.3929 198.149 52.7856C198.149 53.1582 197.847 53.3898 197.334 53.3898H195.763V52.1713ZM195.763 50.1976H197.112C197.605 50.1976 197.857 50.3789 197.857 50.7515C197.857 51.0838 197.585 51.2952 197.112 51.2952H195.763V50.1976Z" fill="#EEEEEE"/>
</g>
<defs>
<clipPath id="clip0">
<rect width="200" height="67.972" fill="white"/>
</clipPath>
<clipPath id="clip1">
<rect width="67.972" height="67.972" fill="white"/>
</clipPath>
</defs>
</svg>
