<svg width="200" height="68" viewBox="0 0 200 68" fill="none" xmlns="http://www.w3.org/2000/svg">
<g clip-path="url(#clip0)">
<g clip-path="url(#clip1)">
<path fill-rule="evenodd" clip-rule="evenodd" d="M5.73427 33.986H0V62.2377V67.9719V67.972H5.73427V67.9719H33.986V62.2377H5.73427V33.986Z" fill="black"/>
<path fill-rule="evenodd" clip-rule="evenodd" d="M62.2378 33.986H67.972V5.73425V-1.90735e-05V-4.95911e-05H62.2378V-1.90735e-05L33.986 -1.90735e-05L33.986 5.73425L62.2378 5.73425V33.986Z" fill="black"/>
<path fill-rule="evenodd" clip-rule="evenodd" d="M53.1468 17.1328C54.4599 17.1328 55.5244 16.0683 55.5244 14.7552C55.5244 13.4421 54.4599 12.3776 53.1468 12.3776C51.8337 12.3776 50.7692 13.4421 50.7692 14.7552C50.7692 16.0683 51.8337 17.1328 53.1468 17.1328ZM53.1468 19.2307C55.6186 19.2307 57.6223 17.227 57.6223 14.7552C57.6223 12.2834 55.6186 10.2797 53.1468 10.2797C50.675 10.2797 48.6713 12.2834 48.6713 14.7552C48.6713 17.227 50.675 19.2307 53.1468 19.2307Z" fill="black"/>
<path d="M48.5932 44.2141C46.4058 47.3381 43.2745 49.6785 39.659 50.8917C36.0434 52.1049 32.1342 52.1271 28.5051 50.955C24.8761 49.7828 21.7184 47.4781 19.4957 44.3791C17.273 41.2802 16.1023 37.5503 16.1555 33.737C16.2088 29.9237 17.4832 26.2279 19.7915 23.1923C22.0999 20.1566 25.3207 17.9409 28.9811 16.8706C32.6414 15.8002 36.5486 15.9315 40.1288 17.2452C43.709 18.559 46.7738 20.9859 48.8731 24.1697L44.1092 27.3109C42.6817 25.1459 40.5976 23.4956 38.1631 22.6023C35.7285 21.7089 33.0717 21.6196 30.5826 22.3475C28.0936 23.0753 25.9035 24.582 24.3338 26.6463C22.7641 28.7105 21.8975 31.2236 21.8613 33.8167C21.8251 36.4097 22.6211 38.946 24.1326 41.0533C25.644 43.1606 27.7913 44.7278 30.259 45.5249C32.7268 46.322 35.3851 46.3069 37.8436 45.4819C40.3022 44.6569 42.4315 43.0654 43.9189 40.9411L48.5932 44.2141Z" fill="black"/>
</g>
<path d="M85.139 57.2718V55.3384C86.005 55.3082 86.6898 55.0665 87.1832 54.5932C87.6766 54.1199 87.9284 53.5157 87.9284 52.7806C87.9284 51.3205 86.9012 50.3235 85.139 50.2329V48.2089H84.0515V50.2329C82.2892 50.3235 81.2621 51.3205 81.2621 52.7806C81.2621 53.5157 81.5138 54.1199 82.0073 54.5932C82.5007 55.0665 83.1854 55.3082 84.0515 55.3384V57.2718H85.139ZM84.0515 54.422C83.0344 54.422 82.3194 53.7574 82.3194 52.7806C82.3194 51.8038 83.0344 51.1593 84.0515 51.1493V54.422ZM85.139 51.1493C86.1561 51.1593 86.871 51.8038 86.871 52.7806C86.871 53.7574 86.1561 54.422 85.139 54.422V51.1493Z" fill="black"/>
<path d="M93.7699 54.4119C93.5282 54.4119 93.357 54.2307 93.357 53.9185V52.0757C93.357 50.8673 92.4407 50.1826 91.0711 50.1826C90.3562 50.1826 89.762 50.3235 89.2686 50.6055V51.5621C89.7419 51.2701 90.2655 51.1191 90.8295 51.1191C91.7962 51.1191 92.2795 51.4816 92.2795 52.1965V52.4684C91.8264 52.2167 91.2927 52.0858 90.6986 52.0858C90.1447 52.0858 89.6714 52.2268 89.2888 52.5188C88.9061 52.8007 88.7148 53.2035 88.7148 53.7272C88.7148 54.2407 88.886 54.6536 89.2384 54.9456C89.5909 55.2377 90.0339 55.3887 90.5676 55.3887C91.333 55.3887 91.9372 55.137 92.3903 54.6234C92.5212 55.0967 92.8737 55.3283 93.4275 55.3283C93.6994 55.3283 93.9109 55.2779 94.0619 55.1672V54.3414C93.9713 54.3918 93.8807 54.4119 93.7699 54.4119ZM92.2795 53.8581C91.9674 54.1904 91.4337 54.4522 90.8697 54.4522C90.2353 54.4522 89.8023 54.1904 89.8023 53.6668C89.8023 53.1834 90.2353 52.9014 90.9604 52.9014C91.4236 52.9014 91.8667 53.0223 92.2795 53.2539V53.8581Z" fill="black"/>
<path d="M97.5529 55.3887C98.2679 55.3887 98.8721 55.1571 99.3555 54.6838C99.8489 54.2105 100.091 53.5963 100.091 52.841C100.091 52.1663 99.8791 51.6226 99.4562 51.2097C99.0332 50.7968 98.4995 50.5854 97.855 50.5854C96.9991 50.5854 96.264 50.9579 95.8511 51.5621C95.8713 51.2399 95.9317 50.9579 96.0324 50.7263C96.264 50.1725 96.7574 49.7798 97.5026 49.528C97.7946 49.4273 98.4794 49.2763 99.5367 49.0749V48.0679C98.8822 48.1786 98.3283 48.2894 97.8752 48.4002C97.4321 48.5109 96.9991 48.6721 96.5862 48.8735C96.1734 49.0749 95.8511 49.3165 95.6195 49.5985C95.1462 50.1523 94.8542 50.9982 94.8542 52.1361C94.8542 53.133 95.0858 53.9185 95.5591 54.5126C96.0324 55.0967 96.697 55.3887 97.5529 55.3887ZM97.5529 54.4321C96.556 54.4321 95.972 53.7272 95.9216 52.5188C96.2439 51.9649 96.8984 51.5219 97.5932 51.5219C98.4089 51.5219 99.003 52.0757 99.003 52.9216C99.003 53.3647 98.862 53.7272 98.5902 54.0091C98.3183 54.2911 97.9658 54.4321 97.5529 54.4321Z" fill="black"/>
<path d="M104.142 50.1826C103.377 50.1826 102.793 50.4544 102.38 50.9882V50.3135H101.292V57.2718H102.38V54.5831C102.793 55.1168 103.377 55.3887 104.142 55.3887C104.837 55.3887 105.411 55.137 105.864 54.6335C106.317 54.13 106.539 53.5157 106.539 52.7907C106.539 52.0556 106.317 51.4413 105.864 50.9378C105.411 50.4343 104.837 50.1826 104.142 50.1826ZM103.85 51.1392C104.303 51.1392 104.686 51.3003 104.988 51.6226C105.29 51.9347 105.441 52.3275 105.441 52.7907C105.441 53.2438 105.29 53.6365 104.988 53.9588C104.686 54.271 104.303 54.4321 103.85 54.4321C103.205 54.4321 102.652 54.0494 102.38 53.556V52.0254C102.652 51.5118 103.205 51.1392 103.85 51.1392Z" fill="black"/>
<path d="M108.75 55.2578L111.419 51.8944V55.2578H112.507V50.3135H111.489L108.821 53.6668V50.3135H107.733V55.2578H108.75Z" fill="black"/>
<path d="M115.144 55.2578V53.0223L117.349 55.2578H118.84L116.141 52.5289L118.487 50.3135H117.098L115.144 52.1865V50.3135H114.057V55.2578H115.144Z" fill="black"/>
<path d="M124.353 54.4119C124.112 54.4119 123.94 54.2307 123.94 53.9185V52.0757C123.94 50.8673 123.024 50.1826 121.655 50.1826C120.94 50.1826 120.346 50.3235 119.852 50.6055V51.5621C120.325 51.2701 120.849 51.1191 121.413 51.1191C122.38 51.1191 122.863 51.4816 122.863 52.1965V52.4684C122.41 52.2167 121.876 52.0858 121.282 52.0858C120.728 52.0858 120.255 52.2268 119.872 52.5188C119.49 52.8007 119.298 53.2035 119.298 53.7272C119.298 54.2407 119.469 54.6536 119.822 54.9456C120.174 55.2377 120.617 55.3887 121.151 55.3887C121.916 55.3887 122.521 55.137 122.974 54.6234C123.105 55.0967 123.457 55.3283 124.011 55.3283C124.283 55.3283 124.494 55.2779 124.645 55.1672V54.3414C124.555 54.3918 124.464 54.4119 124.353 54.4119ZM122.863 53.8581C122.551 54.1904 122.017 54.4522 121.453 54.4522C120.819 54.4522 120.386 54.1904 120.386 53.6668C120.386 53.1834 120.819 52.9014 121.544 52.9014C122.007 52.9014 122.45 53.0223 122.863 53.2539V53.8581Z" fill="black"/>
<path d="M131.185 55.2578C132.283 55.2578 132.917 54.7442 132.917 53.9084C132.917 53.2539 132.595 52.831 131.951 52.6396C132.323 52.4684 132.585 52.0656 132.585 51.5722C132.585 50.8472 132.031 50.3135 131.034 50.3135H128.335V55.2578H131.185ZM129.423 53.1633H130.994C131.507 53.1633 131.81 53.3848 131.81 53.7775C131.81 54.1501 131.507 54.3817 130.994 54.3817H129.423V53.1633ZM129.423 51.1896H130.772C131.266 51.1896 131.518 51.3708 131.518 51.7434C131.518 52.0757 131.246 52.2872 130.772 52.2872H129.423V51.1896Z" fill="black"/>
<path d="M136.553 54.4321C136.08 54.4321 135.697 54.271 135.385 53.9588C135.073 53.6466 134.922 53.2539 134.922 52.7806C134.922 52.3174 135.073 51.9247 135.385 51.6125C135.697 51.3003 136.09 51.1392 136.553 51.1392C137.016 51.1392 137.399 51.3003 137.711 51.6125C138.023 51.9247 138.174 52.3174 138.174 52.7806C138.174 53.2539 138.023 53.6466 137.711 53.9588C137.399 54.271 137.016 54.4321 136.553 54.4321ZM136.553 55.3887C137.339 55.3887 137.983 55.137 138.497 54.6335C139.01 54.1199 139.262 53.5056 139.262 52.7806C139.262 52.0556 139.01 51.4413 138.497 50.9378C137.983 50.4343 137.339 50.1826 136.553 50.1826C135.758 50.1826 135.113 50.4343 134.6 50.9378C134.086 51.4413 133.834 52.0556 133.834 52.7806C133.834 53.5157 134.086 54.13 134.6 54.6335C135.113 55.137 135.758 55.3887 136.553 55.3887Z" fill="black"/>
<path d="M141.876 55.3887C142.591 55.3887 143.175 55.2477 143.608 54.9557C144.041 54.6637 144.263 54.281 144.263 53.8178C144.263 53.2035 143.951 52.8007 143.316 52.5993C143.82 52.4181 144.072 52.0556 144.072 51.5118C144.072 51.1191 143.87 50.8069 143.477 50.5551C143.085 50.3034 142.581 50.1826 141.987 50.1826C141.262 50.1826 140.648 50.2933 140.134 50.5249V51.4816C140.688 51.2399 141.232 51.1191 141.756 51.1191C142.551 51.1191 142.954 51.3104 142.954 51.693C142.954 52.0556 142.642 52.2368 142.027 52.2368H141.111V53.1129H142.027C142.752 53.1129 143.115 53.3244 143.115 53.7372C143.115 54.1904 142.581 54.4522 141.725 54.4522C141.141 54.4522 140.567 54.3213 139.993 54.0494V55.0363C140.487 55.2679 141.111 55.3887 141.876 55.3887Z" fill="black"/>
<path d="M146.018 56.6172V55.2578H150.097V56.6172H151.124V54.3012H150.268V50.3135H146.331C146.32 51.4111 146.27 52.2469 146.159 52.841C146.059 53.4251 145.877 53.9084 145.616 54.3012H144.971V56.6172H146.018ZM146.764 54.3012C147.136 53.5661 147.327 52.5591 147.327 51.2701H149.18V54.3012H146.764Z" fill="black"/>
<path d="M152.716 57.3221C153.531 57.3221 154.156 56.8086 154.599 55.7915L156.965 50.3135H155.787L154.347 53.7977L152.857 50.3135H151.648L153.813 55.0765C153.441 55.9627 153.098 56.3655 152.534 56.3655C152.283 56.3655 152.041 56.3151 151.819 56.2044V57.161C152.011 57.2718 152.303 57.3221 152.716 57.3221Z" fill="black"/>
<path d="M157.554 50.3135L159.347 52.6698L157.353 55.2578H158.581L159.961 53.4553L161.341 55.2578H162.599L160.606 52.6497L162.398 50.3135H161.159L159.981 51.8441L158.813 50.3135H157.554Z" fill="black"/>
<path d="M165.829 54.4321C165.355 54.4321 164.973 54.271 164.661 53.9588C164.348 53.6466 164.197 53.2539 164.197 52.7806C164.197 52.3174 164.348 51.9247 164.661 51.6125C164.973 51.3003 165.365 51.1392 165.829 51.1392C166.292 51.1392 166.675 51.3003 166.987 51.6125C167.299 51.9247 167.45 52.3174 167.45 52.7806C167.45 53.2539 167.299 53.6466 166.987 53.9588C166.675 54.271 166.292 54.4321 165.829 54.4321ZM165.829 55.3887C166.614 55.3887 167.259 55.137 167.772 54.6335C168.286 54.1199 168.537 53.5056 168.537 52.7806C168.537 52.0556 168.286 51.4413 167.772 50.9378C167.259 50.4343 166.614 50.1826 165.829 50.1826C165.033 50.1826 164.389 50.4343 163.875 50.9378C163.362 51.4413 163.11 52.0556 163.11 52.7806C163.11 53.5157 163.362 54.13 163.875 54.6335C164.389 55.137 165.033 55.3887 165.829 55.3887Z" fill="black"/>
<path d="M172.586 55.2578C173.684 55.2578 174.318 54.7442 174.318 53.9084C174.318 53.2539 173.996 52.831 173.351 52.6396C173.724 52.4684 173.986 52.0656 173.986 51.5722C173.986 50.8472 173.432 50.3135 172.435 50.3135H169.736V55.2578H172.586ZM170.824 53.1633H172.395C172.908 53.1633 173.21 53.3848 173.21 53.7775C173.21 54.1501 172.908 54.3817 172.395 54.3817H170.824V53.1633ZM170.824 51.1896H172.173C172.667 51.1896 172.918 51.3708 172.918 51.7434C172.918 52.0757 172.646 52.2872 172.173 52.2872H170.824V51.1896Z" fill="black"/>
<path d="M177.954 54.4321C177.481 54.4321 177.098 54.271 176.786 53.9588C176.474 53.6466 176.323 53.2539 176.323 52.7806C176.323 52.3174 176.474 51.9247 176.786 51.6125C177.098 51.3003 177.491 51.1392 177.954 51.1392C178.417 51.1392 178.8 51.3003 179.112 51.6125C179.424 51.9247 179.575 52.3174 179.575 52.7806C179.575 53.2539 179.424 53.6466 179.112 53.9588C178.8 54.271 178.417 54.4321 177.954 54.4321ZM177.954 55.3887C178.739 55.3887 179.384 55.137 179.897 54.6335C180.411 54.1199 180.663 53.5056 180.663 52.7806C180.663 52.0556 180.411 51.4413 179.897 50.9378C179.384 50.4343 178.739 50.1826 177.954 50.1826C177.158 50.1826 176.514 50.4343 176 50.9378C175.487 51.4413 175.235 52.0556 175.235 52.7806C175.235 53.5157 175.487 54.13 176 54.6335C176.514 55.137 177.158 55.3887 177.954 55.3887Z" fill="black"/>
<path d="M182.207 56.6172V55.2578H186.285V56.6172H187.313V54.3012H186.457V50.3135H182.519C182.509 51.4111 182.459 52.2469 182.348 52.841C182.247 53.4251 182.066 53.9084 181.804 54.3012H181.16V56.6172H182.207ZM182.952 54.3012C183.325 53.5661 183.516 52.5591 183.516 51.2701H185.369V54.3012H182.952Z" fill="black"/>
<path d="M190.767 54.4321C190.294 54.4321 189.912 54.271 189.599 53.9588C189.287 53.6466 189.136 53.2539 189.136 52.7806C189.136 52.3174 189.287 51.9247 189.599 51.6125C189.912 51.3003 190.304 51.1392 190.767 51.1392C191.231 51.1392 191.613 51.3003 191.926 51.6125C192.238 51.9247 192.389 52.3174 192.389 52.7806C192.389 53.2539 192.238 53.6466 191.926 53.9588C191.613 54.271 191.231 54.4321 190.767 54.4321ZM190.767 55.3887C191.553 55.3887 192.197 55.137 192.711 54.6335C193.225 54.1199 193.476 53.5056 193.476 52.7806C193.476 52.0556 193.225 51.4413 192.711 50.9378C192.197 50.4343 191.553 50.1826 190.767 50.1826C189.972 50.1826 189.327 50.4343 188.814 50.9378C188.3 51.4413 188.049 52.0556 188.049 52.7806C188.049 53.5157 188.3 54.13 188.814 54.6335C189.327 55.137 189.972 55.3887 190.767 55.3887Z" fill="black"/>
<path d="M197.525 55.2578C198.622 55.2578 199.257 54.7442 199.257 53.9084C199.257 53.2539 198.935 52.831 198.29 52.6396C198.663 52.4684 198.925 52.0656 198.925 51.5722C198.925 50.8472 198.371 50.3135 197.374 50.3135H194.675V55.2578H197.525ZM195.763 53.1633H197.334C197.847 53.1633 198.149 53.3848 198.149 53.7775C198.149 54.1501 197.847 54.3817 197.334 54.3817H195.763V53.1633ZM195.763 51.1896H197.112C197.605 51.1896 197.857 51.3708 197.857 51.7434C197.857 52.0757 197.585 52.2872 197.112 52.2872H195.763V51.1896Z" fill="black"/>
<path d="M101.04 36.104L109.272 16.392H104.904L99.164 30.504L93.452 16.392H89L97.232 36.104H101.04Z" fill="black"/>
<path d="M111.356 35.992L113.288 31.456H121.576L123.508 35.992H127.792L119.392 16.28H115.528L107.128 35.992H111.356ZM117.432 21.32L120.288 28.124H114.548L117.432 21.32Z" fill="black"/>
<path d="M138.928 36.384C141.056 36.384 142.904 35.908 144.5 34.956V30.896C143.044 32.044 141.252 32.604 139.124 32.604C137.192 32.604 135.596 32.016 134.336 30.812C133.076 29.608 132.432 28.068 132.432 26.192C132.432 24.316 133.048 22.804 134.28 21.6C135.54 20.396 137.08 19.78 138.956 19.78C140.888 19.78 142.596 20.284 144.108 21.292V17.232C142.568 16.42 140.86 16 138.928 16C135.876 16 133.328 16.952 131.312 18.856C129.324 20.76 128.316 23.196 128.316 26.192C128.316 29.16 129.324 31.596 131.34 33.528C133.356 35.432 135.876 36.384 138.928 36.384Z" fill="black"/>
<path d="M150.325 36.3C151.669 36.3 152.761 35.208 152.761 33.836C152.761 32.492 151.669 31.428 150.325 31.428C148.953 31.428 147.889 32.492 147.889 33.836C147.889 35.208 148.953 36.3 150.325 36.3Z" fill="black"/>
<path d="M163.413 36.384C165.877 36.384 167.893 35.628 169.461 34.116C171.057 32.604 171.841 30.476 171.841 27.76V16.392H167.809V27.9C167.809 31.008 166.017 32.604 163.413 32.604C160.837 32.604 159.045 31.008 159.045 27.9V16.392H155.041V27.76C155.041 30.476 155.825 32.604 157.393 34.116C158.961 35.628 160.977 36.384 163.413 36.384Z" fill="black"/>
<path d="M190.75 35.992V32.38H180.138L190.302 19.22V16.392H175.126V20.004H184.842L174.65 33.136V35.992H190.75Z" fill="black"/>
</g>
<defs>
<clipPath id="clip0">
<rect width="200" height="67.972" fill="white"/>
</clipPath>
<clipPath id="clip1">
<rect width="67.972" height="67.972" fill="white"/>
</clipPath>
</defs>
</svg>
