<svg width="50" height="36" viewBox="0 0 50 36" fill="none" xmlns="http://www.w3.org/2000/svg">
<path d="M49.9633 3.58426C49.9633 3.52713 50.0026 3.47152 50 3.41504L34.7417 18.1172L49.9818 32.3498C49.9907 32.2481 49.9633 32.1456 49.9633 32.0418V3.58426Z" fill="#ED1C24"/>
<path d="M32.4123 20.3799L26.1834 26.3729C25.8682 26.6761 25.4611 26.8282 25.0538 26.8282C24.655 26.8282 24.2561 26.6826 23.9431 26.3909L17.7312 20.6023L2.3916 35.3879C2.76459 35.522 3.16494 35.626 3.5842 35.626H46.5236C47.1462 35.626 47.7301 35.4364 48.2378 35.1536L32.4123 20.3799Z" fill="#ED1C24"/>
<path d="M25.0363 22.9552L48.3226 0.523744C47.7954 0.21028 47.1817 0 46.5239 0H3.58447C2.72793 0 1.94308 0.332581 1.33179 0.839816L25.0363 22.9552Z" fill="#ED1C24"/>
<path d="M0 4.13086V32.0416C0 32.362 0.0736414 32.6709 0.153582 32.9661L15.3028 18.3777L0 4.13086Z" fill="#ED1C24"/>
</svg>
