<svg width="24" height="24" viewBox="0 0 24 24" fill="none" xmlns="http://www.w3.org/2000/svg">
<rect x="0.500977" y="0.5" width="23" height="23" stroke="#F1F1F1"/>
<g clip-path="url(#clip0)">
<path d="M17.751 12.0006C17.751 15.1762 15.1767 17.7505 12.0011 17.7505C8.82554 17.7505 6.25122 15.1762 6.25122 12.0006C6.25122 8.82505 8.82554 6.25073 12.0011 6.25073C15.1767 6.25073 17.751 8.82505 17.751 12.0006Z" stroke="#F1F1F1" stroke-width="0.5"/>
<path d="M10.5452 15.5309C10.6751 15.3571 10.7823 15.1524 10.8736 14.9205C11.0369 14.5061 11.142 14.0243 11.2397 13.5119L11.3071 13.1581L11.615 13.345C11.7323 13.4162 11.8244 13.48 11.9045 13.5355C12.1087 13.6768 12.2355 13.7646 12.5044 13.7854C13.2331 13.8417 13.8041 13.4841 14.1784 12.9045C14.5571 12.3184 14.7245 11.5144 14.6178 10.7366L10.5452 15.5309ZM10.5452 15.5309C10.5263 15.001 10.5944 14.5138 10.697 14.0412C10.7614 13.7447 10.8388 13.4563 10.9172 13.1639C10.9215 13.148 10.9257 13.132 10.93 13.1161C11.0122 12.8094 11.0949 12.4979 11.1592 12.1802L11.1784 12.0858L11.1292 12.0029C10.967 11.73 10.966 11.2769 11.1212 10.9235C11.1968 10.7515 11.2981 10.6306 11.404 10.5685C11.5 10.5121 11.6179 10.4923 11.7741 10.5541L11.7742 10.5541C11.8622 10.5889 11.9009 10.6325 11.9226 10.6755C11.9477 10.7253 11.9626 10.8005 11.9559 10.9137C11.9429 11.133 11.8582 11.4 11.7604 11.7084C11.7527 11.7326 11.7449 11.757 11.7371 11.7818C11.6384 12.0941 11.5258 12.4616 11.5487 12.7741C11.5608 12.9398 11.6115 13.1092 11.7361 13.2499C11.8603 13.3902 12.0349 13.4759 12.2455 13.5183C12.7008 13.6098 13.0901 13.4527 13.3846 13.1689C13.6718 12.892 13.8713 12.4951 13.9873 12.0779C14.104 11.6584 14.1422 11.1979 14.0896 10.7762C14.0374 10.3584 13.8922 9.95165 13.6151 9.67019L13.615 9.67013C12.8693 8.91343 11.7973 8.92047 10.9814 9.35119C10.1643 9.7825 9.5418 10.6699 9.71522 11.742M10.5452 15.5309L11.6561 8.90388C10.513 9.0319 9.40108 9.95513 9.35505 11.2352L9.35504 11.2353C9.33985 11.6519 9.3936 11.9822 9.52453 12.2217C9.62424 12.4041 9.77672 12.5489 10.015 12.6392C10.0287 12.5953 10.0342 12.56 10.0354 12.5316C10.0379 12.4751 10.0249 12.4253 9.99527 12.3641C9.97959 12.3318 9.9602 12.2981 9.93577 12.2575C9.9305 12.2487 9.92484 12.2394 9.91893 12.2296C9.8993 12.1973 9.87681 12.1602 9.85597 12.1232C9.79941 12.0227 9.74042 11.8982 9.71522 11.742M9.71522 11.742C9.71522 11.742 9.71521 11.7419 9.7152 11.7419L9.96202 11.7021L9.71522 11.742ZM10.1524 12.9397C9.32126 12.7556 9.07334 12.1001 9.10521 11.2262L10.1524 12.9397ZM11.6561 8.90387C13.1479 8.73691 14.4408 9.45241 14.6177 10.7365L11.6561 8.90387Z" stroke="#F1F1F1" stroke-width="0.5"/>
</g>
<defs>
<clipPath id="clip0">
<rect width="12" height="12" fill="white" transform="translate(6.00098 6)"/>
</clipPath>
</defs>
</svg>
