<svg width="59" height="57" viewBox="0 0 59 57" fill="none" xmlns="http://www.w3.org/2000/svg">
<path d="M57.9738 6.29722H31.1915V1.73898C31.1915 1.29149 30.8069 0.928711 30.3322 0.928711H24.9705C24.4959 0.928711 24.1111 1.29149 24.1111 1.73898V6.29722H13.5944C13.1198 6.29722 12.735 6.66001 12.735 7.10749V14.0738C12.1678 14.3588 11.6303 14.7335 11.1777 15.1648V12.7834C11.1777 11.3144 9.62776 10.1082 7.32235 9.70769V7.94876C7.32235 7.50128 6.93758 7.1385 6.46297 7.1385C4.94153 7.1385 3.39466 7.69002 2.21892 8.65164C0.895483 9.73416 0.166504 11.2367 0.166504 12.8824V16.2772C0.166504 17.3249 1.88525 17.3249 1.88525 16.2772V12.8824C1.88525 11.1088 3.28512 9.20943 5.6036 8.82796V39.9103C4.25495 40.0692 2.87766 40.5778 1.88869 41.474C1.88686 40.3706 1.88525 20.5829 1.88525 20.5829C1.88525 19.5353 0.166504 19.5353 0.166504 20.5829V45.7514C0.166504 45.7969 0.171431 45.8412 0.179108 45.8846C0.263556 48.2613 2.59567 50.0374 5.67212 50.0374C7.16159 50.0374 8.49419 49.6377 9.47583 48.979L9.47628 51.9579C9.47674 54.6959 12.3811 56.243 14.9827 56.243C17.7442 56.2426 20.4875 54.7762 20.4875 51.9561L20.4856 40.5002H44.9594L27.1266 54.8158C26.5304 55.2943 26.9007 56.243 27.6837 56.243H53.5644C54.0391 56.243 54.4238 55.8802 54.4238 55.4327V51.5022C54.4238 50.4546 52.705 50.4546 52.705 51.5022V54.6225H30.0188L52.705 36.411V47.0321C52.705 48.0797 54.4238 48.0797 54.4238 47.0321V40.5005H57.9738C58.4485 40.5005 58.8332 40.1377 58.8332 39.6902V28.3806V7.10749C58.8332 6.66001 58.4485 6.29722 57.9738 6.29722ZM57.1144 7.91776V27.5703H36.9876V7.91776H57.1144ZM29.4728 2.54925V23.2862H25.8298V21.2154H26.4539C27.565 21.2154 27.565 19.5949 26.4539 19.5949H25.8298V17.4717H27.2559C28.3671 17.4717 28.3671 15.8511 27.2559 15.8511H25.8298V13.7279H26.4539C26.9285 13.7279 27.3132 13.3651 27.3132 12.9177C27.3132 12.4702 26.9285 12.1074 26.4539 12.1074H25.8298V9.98416H27.2559C28.3671 9.98416 28.3671 8.36362 27.2559 8.36362H25.8298V6.2405H26.4539C27.565 6.2405 27.565 4.61997 26.4539 4.61997H25.8298V2.54925H29.4728ZM13.74 15.3817C14.1111 15.2162 14.5002 15.1002 14.9073 15.0335L14.9126 46.1158C13.9552 46.2288 12.4077 46.5834 11.1979 47.6801C11.196 46.5918 11.1941 45.7495 11.1941 45.7266L11.1895 19.0885C11.1893 17.6367 12.1277 16.1008 13.74 15.3817ZM18.7684 49.5918C18.7394 49.5761 18.7102 49.5607 18.6805 49.5453C17.6949 49.0352 16.408 48.7506 15.0498 48.7415L15.0497 47.7342C15.4615 47.6807 15.7381 47.6847 15.7448 47.6847C16.2829 47.6508 16.5784 47.3808 16.6313 46.8748L16.6264 17.5754C17.7656 17.8412 18.7631 18.3857 18.7633 18.9884L18.7684 49.5918ZM9.45898 12.7834V39.5207V43.3758C8.50141 42.8574 7.20742 42.5454 5.74064 42.5361V41.5285C6.15268 41.4751 6.42928 41.4792 6.4357 41.4793C6.97378 41.4453 7.26929 41.1754 7.32235 40.6694V11.3649C8.63135 11.6603 9.45898 12.2731 9.45898 12.7834ZM9.45898 46.1352C9.45898 47.372 7.72476 48.4169 5.67212 48.4169C3.51818 48.4169 1.89385 47.2711 1.89385 45.7514C1.89385 44.2126 2.48544 42.7551 4.02189 42.019V43.3813C4.08308 43.9114 4.39646 44.1803 4.96193 44.188C6.15612 44.0821 7.47623 44.208 8.54392 44.7607C9.16003 45.0798 9.50917 45.4849 9.45898 46.1352ZM14.9825 54.6225C14.9821 54.6225 14.982 54.6225 14.9816 54.6225C12.8282 54.6225 11.2039 53.4769 11.2036 51.9577C11.2034 50.4189 11.7946 48.9611 13.3311 48.2248L13.3313 49.5872C13.3926 50.1172 13.706 50.3861 14.2714 50.3937C15.7292 50.2645 18.8388 50.4851 18.7689 52.3401C18.7691 53.577 17.0351 54.6222 14.9825 54.6225ZM20.482 18.988C20.4818 17.5293 18.9267 16.3159 16.6261 15.9137L16.6257 14.154C16.5764 13.6602 16.29 13.3901 15.7662 13.3439C15.3276 13.344 14.8871 13.3913 14.4538 13.4797V7.91776H24.1111V24.0963C24.1111 24.5438 24.4959 24.9066 24.9705 24.9066H30.3322C30.8069 24.9066 31.1915 24.5438 31.1915 24.0963V7.91776H35.2689V28.3806V38.8798H20.4854L20.482 18.988ZM53.9248 33.9213C53.6204 33.7887 53.2623 33.835 53.0072 34.0399L46.9781 38.8798H36.9876V29.1909H57.1144V38.8798H54.4238V34.6569C54.4238 34.341 54.229 34.0539 53.9248 33.9213Z" fill="#DAB679"/>
<path d="M41.1119 24.1476H49.0302C49.2564 24.1476 49.4792 24.0603 49.6388 23.9094L53.5979 20.1794C53.7592 20.0274 53.8498 19.8212 53.8498 19.6062L53.8487 12.151C53.8487 11.7126 53.4542 11.3408 52.9892 11.3408L45.0699 11.3417C44.8422 11.3417 44.6236 11.427 44.4626 11.5788L40.5051 15.3072C40.3454 15.4574 40.2524 15.6685 40.2524 15.881V23.3373C40.2526 23.7849 40.6373 24.1476 41.1119 24.1476ZM41.9713 16.6913H48.1709V22.5271H41.9713V16.6913ZM49.8897 21.3823V16.2169L52.1305 14.1059L52.1313 19.2706L49.8897 21.3823ZM45.426 12.9622L50.9134 12.9616L48.6746 15.0708H43.1877L45.426 12.9622Z" fill="#DAB679"/>
<path d="M45.1764 34.8613H42.3289C41.2178 34.8613 41.2178 36.4819 42.3289 36.4819H45.1764C46.2876 36.4819 46.2876 34.8613 45.1764 34.8613Z" fill="#DAB679"/>
<path d="M49.6253 31.6367H42.3289C41.2178 31.6367 41.2178 33.2573 42.3289 33.2573H49.6253C50.7364 33.2573 50.7364 31.6367 49.6253 31.6367Z" fill="#DAB679"/>
<path d="M48.8333 42.5559L38.4572 50.8855C37.8612 51.3639 38.2314 52.3126 39.0143 52.3126H49.3904C49.8651 52.3126 50.2497 51.9498 50.2497 51.5023V43.1728C50.2497 42.5568 49.4245 42.0811 48.8333 42.5559ZM48.531 50.6921H41.3492L48.531 44.9269V50.6921Z" fill="#DAB679"/>
</svg>
