<svg width="68" height="66" viewBox="0 0 68 66" fill="none" xmlns="http://www.w3.org/2000/svg">
<ellipse cx="34" cy="33" rx="34" ry="33" fill="#0072BC"/>
<path fill-rule="evenodd" clip-rule="evenodd" d="M15.3444 32.3238C15.3444 42.4704 22.7011 49.3838 30.9644 50.8138C31.1892 50.8527 31.4041 50.9356 31.5969 51.0576C31.7896 51.1796 31.9565 51.3384 32.0879 51.5249C32.2193 51.7114 32.3126 51.9219 32.3627 52.1445C32.4127 52.3671 32.4184 52.5973 32.3794 52.8221C32.3405 53.0469 32.2576 53.2618 32.1356 53.4545C32.0136 53.6473 31.8548 53.8141 31.6683 53.9455C31.4818 54.0769 31.2713 54.1703 31.0487 54.2203C30.8261 54.2704 30.5959 54.2761 30.3711 54.2371C20.6678 52.5571 11.8711 44.3771 11.8711 32.3238C11.8711 27.2004 14.2011 23.1738 16.9211 20.1138C18.8711 17.9204 21.1011 16.1371 22.8944 14.7738H17.4411C16.9991 14.7738 16.5751 14.5982 16.2626 14.2856C15.95 13.973 15.7744 13.5491 15.7744 13.1071C15.7744 12.6651 15.95 12.2411 16.2626 11.9286C16.5751 11.616 16.9991 11.4404 17.4411 11.4404H27.4411C27.8831 11.4404 28.307 11.616 28.6196 11.9286C28.9322 12.2411 29.1078 12.6651 29.1078 13.1071V23.1071C29.1078 23.5491 28.9322 23.973 28.6196 24.2856C28.307 24.5982 27.8831 24.7738 27.4411 24.7738C26.9991 24.7738 26.5751 24.5982 26.2626 24.2856C25.95 23.973 25.7744 23.5491 25.7744 23.1071V16.9538L25.7711 16.9604C23.8644 18.3938 21.5378 20.1504 19.5211 22.4204C17.1378 25.1004 15.3444 28.3404 15.3444 32.3204V32.3238ZM52.3711 33.6771C52.3711 23.6371 45.1711 16.7671 37.0144 15.2338C36.7871 15.1952 36.5697 15.1117 36.375 14.9883C36.1802 14.8648 36.012 14.7038 35.8802 14.5146C35.7483 14.3254 35.6555 14.1119 35.607 13.8864C35.5586 13.661 35.5555 13.4282 35.598 13.2015C35.6405 12.9749 35.7277 12.759 35.8545 12.5664C35.9814 12.3738 36.1453 12.2084 36.3367 12.0799C36.5281 11.9513 36.7432 11.8622 36.9695 11.8176C37.1957 11.7731 37.4286 11.774 37.6544 11.8204C47.2344 13.6204 55.8444 21.7538 55.8444 33.6771C55.8444 38.8004 53.5144 42.8238 50.7944 45.8871C48.8444 48.0804 46.6144 49.8638 44.8211 51.2271H50.2744C50.7165 51.2271 51.1404 51.4027 51.4529 51.7153C51.7655 52.0278 51.9411 52.4517 51.9411 52.8938C51.9411 53.3358 51.7655 53.7597 51.4529 54.0723C51.1404 54.3848 50.7165 54.5604 50.2744 54.5604H40.2744C39.8324 54.5604 39.4085 54.3848 39.0959 54.0723C38.7834 53.7597 38.6078 53.3358 38.6078 52.8938V42.8938C38.6078 42.4517 38.7834 42.0278 39.0959 41.7153C39.4085 41.4027 39.8324 41.2271 40.2744 41.2271C40.7165 41.2271 41.1404 41.4027 41.4529 41.7153C41.7655 42.0278 41.9411 42.4517 41.9411 42.8938V49.0438H41.9478C43.8511 47.6038 46.1811 45.8504 48.1944 43.5771C50.5778 40.9004 52.3711 37.6604 52.3711 33.6771Z" fill="white"/>
</svg>
