<svg width="309" height="293" viewBox="0 0 309 293" fill="none" xmlns="http://www.w3.org/2000/svg">
<path d="M138.482 149.5C138.473 149.221 138.462 148.823 138.452 148.313C138.429 147.223 138.41 145.624 138.424 143.587C138.452 139.513 138.61 133.691 139.132 126.704C140.177 112.727 142.679 94.1011 148.504 75.4828C154.33 56.8614 163.469 38.28 177.769 24.3585C192.056 10.4491 211.517 1.167 238.053 1.167C259.219 1.167 275.082 10.4189 286.331 24.3149C297.592 38.2252 304.233 56.7985 306.891 75.4042C309.549 94.0106 308.216 112.597 303.579 126.509C298.927 140.463 291.041 149.5 280.72 149.5C271.839 149.5 262.508 145.555 252.772 140.555C250.035 139.15 247.266 137.661 244.469 136.157C237.358 132.333 230.07 128.414 222.688 125.534C212.385 121.515 201.805 119.477 191.093 122.519C180.428 125.548 169.724 133.586 159.066 149.5H138.482Z" stroke="#ED1C24"/>
<path d="M66.25 26.73L66.2502 26.7304C70.6798 34.3864 71.9183 44.4144 72.4473 55.3276C72.5956 58.388 72.6881 61.5184 72.7814 64.6803C73.0196 72.7475 73.2638 81.0193 74.4582 88.854C76.1236 99.7788 79.6465 109.957 87.6382 117.709C95.5949 125.427 107.913 130.674 127.034 131.942L137.327 149.832C137.09 149.98 136.75 150.189 136.313 150.454C135.381 151.018 134.006 151.835 132.236 152.843C128.695 154.858 123.576 157.635 117.266 160.68C104.644 166.77 87.2677 173.926 68.2372 178.2C49.2034 182.475 28.5474 183.86 9.34572 178.445C-9.83935 173.034 -27.6059 160.826 -40.874 137.846C-51.4569 119.516 -51.376 101.153 -44.9666 84.4632C-38.5506 67.7562 -25.7869 52.7179 -11.0033 41.1133C3.78088 29.5082 20.5432 21.37 34.9096 18.4299C49.32 15.4809 61.089 17.7915 66.25 26.73Z" stroke="#ED1C24"/>
<path d="M139.236 151.234C138.789 150.989 138.439 150.799 138.193 150.668L127.9 168.557C136.363 185.739 137.978 199.027 135.271 209.775C132.552 220.571 125.497 228.713 116.865 235.62C110.661 240.583 103.6 244.94 96.7142 249.188C94.0349 250.84 91.3822 252.477 88.8171 254.126C79.622 260.039 71.5458 266.119 67.116 273.77L139.236 151.234ZM139.236 151.234C140.191 151.759 141.586 152.542 143.344 153.571M139.236 151.234L143.344 153.571M143.344 153.571C146.859 155.629 151.824 158.674 157.615 162.617M143.344 153.571L157.615 162.617M157.615 162.617C169.201 170.503 184.085 181.973 197.302 196.317M157.615 162.617L197.302 196.317M197.302 196.317C210.52 210.664 222.047 227.86 226.957 247.197M197.302 196.317L226.957 247.197M226.957 247.197C231.864 266.517 230.174 288.007 216.906 310.987M226.957 247.197L216.906 310.987M216.906 310.987C206.323 329.317 190.379 338.428 172.721 341.222M216.906 310.987L172.721 341.222M172.721 341.222C155.044 344.019 135.639 340.484 118.197 333.482M172.721 341.222L118.197 333.482M118.197 333.482C100.755 326.481 85.3262 316.033 75.5972 305.061M118.197 333.482L75.5972 305.061M75.5972 305.061C65.8385 294.056 61.9553 282.709 67.1157 273.771L75.5972 305.061Z" stroke="#ED1C24"/>
</svg>
