<svg width="24" height="24" viewBox="0 0 24 24" fill="none" xmlns="http://www.w3.org/2000/svg">
<rect x="0.500977" y="0.5" width="23" height="23" stroke="#F1F1F1"/>
<g clip-path="url(#clip0)">
<path d="M9.64214 14.6555C8.6696 14.6345 7.84186 14.0224 7.49399 13.1681C7.59851 13.18 7.7041 13.1837 7.80698 13.1837C8.04101 13.1837 8.26828 13.1566 8.47835 13.0992L8.47202 12.9048C7.4424 12.6942 6.64742 11.808 6.58494 10.7233C6.8913 10.8663 7.23751 10.9548 7.59058 10.9615L7.93162 10.968L7.64806 10.7784C7.02057 10.3588 6.59973 9.63414 6.59973 8.817C6.59973 8.43347 6.69244 8.07374 6.85426 7.75127C8.08542 9.20097 9.88034 10.148 11.9024 10.2466L12.0339 10.253L12.0047 10.1246C11.9663 9.95506 11.9502 9.77525 11.9502 9.58575C11.9502 8.28543 13.0023 7.225 14.3087 7.225C14.9821 7.225 15.5995 7.51059 16.0328 7.97196L16.0709 8.01244L16.1253 8.00156C16.6021 7.90633 17.0548 7.74794 17.4742 7.52936C17.2757 7.96969 16.9455 8.33515 16.5322 8.58189L16.5961 8.76695C16.9839 8.71767 17.3599 8.62822 17.7198 8.49886C17.4318 8.87253 17.0956 9.20136 16.7101 9.47495L16.6653 9.50671L16.6681 9.56153C16.6733 9.66483 16.677 9.76802 16.677 9.8745C16.677 13.082 14.2353 16.775 9.77498 16.775C8.55114 16.775 7.4071 16.4608 6.4125 15.9023C6.47113 15.904 6.53014 15.9048 6.58973 15.9048C7.76335 15.9048 8.84764 15.5023 9.70159 14.8343L9.92234 14.6616L9.64214 14.6555Z" stroke="#F1F1F1" stroke-width="0.2"/>
</g>
<defs>
<clipPath id="clip0">
<rect width="12" height="12" fill="white" transform="translate(6.00098 6)"/>
</clipPath>
</defs>
</svg>
