<svg width="48" height="48" viewBox="0 0 48 48" fill="none" xmlns="http://www.w3.org/2000/svg">
<path fill-rule="evenodd" clip-rule="evenodd" d="M45.6442 17.669H25.0308V2.35626H45.6442V17.669ZM22.3057 18.1002L16.4432 3.9456C18.9928 2.92672 21.6801 2.39324 24.4417 2.35774V17.6751C23.7073 17.7054 22.9911 17.8478 22.3057 18.1002ZM19.9532 19.5369L9.12158 8.70512C11.095 6.78209 13.3727 5.2575 15.8993 4.17145L21.7621 18.3261C21.0996 18.6331 20.4933 19.039 19.9532 19.5369ZM2.35582 25.0309H17.6689V45.6442H2.35582V25.0309ZM2.35773 24.4418C2.39323 21.6793 2.92666 18.9919 3.94502 16.4433L18.1001 22.3062C17.8478 22.9917 17.7054 23.7079 17.6751 24.4418H2.35773ZM8.70467 9.1216L19.5368 19.9533C19.0394 20.493 18.6335 21.0993 18.3261 21.7622L4.17154 15.8993C5.25802 13.3731 6.78208 11.0951 8.70467 9.1216ZM24.7363 0C18.1965 0 12.1139 2.55495 7.597 6.9H7.5899C5.21479 9.27554 3.37514 11.7321 1.94764 15.1049C0.655273 18.1601 0 21.4005 0 24.7359V48H20.0247V24.7359C20.0247 22.1383 22.1377 20.0247 24.7363 20.0247H48V0H24.7363Z" fill="black"/>
</svg>
