<svg width="24" height="24" viewBox="0 0 24 24" fill="none" xmlns="http://www.w3.org/2000/svg">
<g clip-path="url(#clip0)">
<path d="M17.5123 9.18434L17.5126 9.1854C17.6331 9.62539 17.6943 10.3243 17.724 10.9318C17.7387 11.2317 17.7454 11.5028 17.7485 11.699C17.75 11.797 17.7506 11.8762 17.7509 11.9307L17.751 11.9932L17.7509 12.0092L17.7509 12.0131L17.7509 12.0141L17.7509 12.0143L17.7509 12.0143V12.0155V12.0156V12.0158L17.7509 12.0167L17.7509 12.0207L17.7509 12.0366L17.7505 12.0989C17.75 12.1531 17.749 12.232 17.7471 12.3296C17.7433 12.5249 17.7356 12.795 17.7204 13.0938C17.6895 13.6984 17.6283 14.3959 17.5122 14.8375C17.3968 15.2649 17.0593 15.6026 16.6318 15.7178C16.4225 15.7728 16.034 15.8181 15.5484 15.853C15.0693 15.8874 14.5157 15.9104 13.9891 15.9258C13.4629 15.9412 12.9657 15.9489 12.5999 15.9528C12.417 15.9547 12.2671 15.9557 12.163 15.9562L12.0428 15.9566L12.0115 15.9566L12.0035 15.9566L12.0016 15.9566H12.0011H12.001L12.001 16.2066L12.0009 15.9566H12.0008H12.0003L11.9984 15.9566L11.9905 15.9566L11.9592 15.9566L11.8393 15.9561C11.7355 15.9556 11.5859 15.9546 11.4035 15.9526C11.0385 15.9486 10.5423 15.9406 10.0168 15.9246C9.4909 15.9086 8.93774 15.8847 8.45829 15.8489C7.97191 15.8126 7.58231 15.7655 7.37114 15.7083L7.37078 15.7082C6.9429 15.593 6.60494 15.2551 6.48958 14.8273C6.37363 14.391 6.31247 13.6939 6.28154 13.0876C6.26626 12.7882 6.25861 12.5172 6.25479 12.3211C6.25288 12.2231 6.25193 12.1439 6.25145 12.0894L6.25103 12.0268L6.25098 12.0108L6.25098 12.0068L6.25098 12.0059L6.25098 12.0057V12.0057V12.0057V12.0056L6.25098 12.0054L6.25098 12.0045L6.25098 12.0006L6.25103 11.9846L6.25145 11.9223C6.25193 11.8681 6.25288 11.7892 6.25479 11.6916C6.25861 11.4963 6.26626 11.2262 6.28154 10.9274C6.31245 10.3227 6.37357 9.62532 6.48966 9.1837C6.6051 8.75575 6.95312 8.40838 7.3706 8.29331C7.5801 8.23839 7.96828 8.19316 8.45337 8.15833C8.93255 8.12393 9.48615 8.10088 10.0127 8.08548C10.5389 8.07009 11.0361 8.06239 11.4019 8.05854C11.5848 8.05661 11.7347 8.05565 11.8388 8.05517L11.959 8.05475L11.9903 8.05469L11.9983 8.05469L12.0002 8.05469L12.0007 8.05469H12.0008L12.0009 7.80469L12.0009 8.05469H12.001L12.0015 8.05469L12.0035 8.05469L12.0114 8.0547L12.0427 8.05475L12.1629 8.05519C12.267 8.05569 12.4169 8.05669 12.5997 8.05869C12.9655 8.06269 13.4626 8.0707 13.9887 8.0867C14.5153 8.10271 15.0687 8.12666 15.5477 8.16241C16.0338 8.19869 16.4218 8.24579 16.6301 8.30281L16.6311 8.30307C17.0591 8.41834 17.3972 8.75636 17.5123 9.18434Z" stroke="#F1F1F1" stroke-width="0.5"/>
<path d="M11.0549 10.6393L13.4275 12.0058L11.0549 13.3723V10.6393Z" stroke="#F1F1F1" stroke-width="0.5"/>
</g>
<rect x="0.500977" y="0.5" width="23" height="23" stroke="#F1F1F1"/>
<defs>
<clipPath id="clip0">
<rect width="12" height="12" fill="white" transform="translate(6.00098 6)"/>
</clipPath>
</defs>
</svg>
