<svg width="320" height="320" viewBox="0 0 320 320" fill="none" xmlns="http://www.w3.org/2000/svg">
<path d="M258.754 92.9688C262.206 92.9688 265.004 90.1706 265.004 86.7188V18.75C265.004 8.41125 256.593 0 246.254 0H18.7544C8.41564 0 0.00439453 8.41125 0.00439453 18.75V301.25C0.00439453 311.589 8.41564 320 18.7544 320H246.254C256.593 320 265.004 311.589 265.004 301.25V255.205C265.004 251.753 262.206 248.955 258.754 248.955C255.303 248.955 252.504 251.753 252.504 255.205V301.25C252.504 304.696 249.701 307.5 246.254 307.5H18.7544C15.3081 307.5 12.5044 304.696 12.5044 301.25V18.75C12.5044 15.3038 15.3081 12.5 18.7544 12.5H246.254C249.701 12.5 252.504 15.3038 252.504 18.75V86.7188C252.504 90.1706 255.303 92.9688 258.754 92.9688Z" fill="#DAB679"/>
<path d="M132.504 33.75C100.799 33.75 75.0044 59.5444 75.0044 91.25C75.0044 107.698 81.9481 122.553 93.0556 133.043C93.2638 133.266 93.485 133.476 93.7269 133.668C103.959 143.03 117.576 148.749 132.504 148.749C147.432 148.749 161.049 143.029 171.281 133.668C171.523 133.476 171.744 133.265 171.952 133.043C183.061 122.553 190.004 107.698 190.004 91.25C190.004 59.5444 164.21 33.75 132.504 33.75ZM132.504 136.25C122.299 136.25 112.88 132.83 105.323 127.082C110.816 117.342 121.066 111.25 132.504 111.25C143.943 111.25 154.193 117.342 159.686 127.082C152.128 132.83 142.71 136.25 132.504 136.25ZM122.504 88.75V84.6875C122.504 79.1737 126.991 74.6875 132.504 74.6875C138.018 74.6875 142.504 79.1737 142.504 84.6875V88.75C142.504 94.2637 138.018 98.75 132.504 98.75C126.991 98.75 122.504 94.2637 122.504 88.75ZM168.717 117.927C164.108 111.091 157.719 105.774 150.303 102.491C153.246 98.6869 155.004 93.9212 155.004 88.75V84.6875C155.004 72.2806 144.911 62.1875 132.504 62.1875C120.098 62.1875 110.004 72.2806 110.004 84.6875V88.75C110.004 93.9212 111.763 98.6869 114.706 102.491C107.289 105.774 100.901 111.091 96.2919 117.927C90.7738 110.456 87.5044 101.229 87.5044 91.25C87.5044 66.4369 107.691 46.25 132.504 46.25C157.318 46.25 177.504 66.4369 177.504 91.25C177.504 101.229 174.235 110.456 168.717 117.927Z" fill="#DAB679"/>
<path d="M166.254 273.75H132.504C129.053 273.75 126.254 276.548 126.254 280C126.254 283.452 129.053 286.25 132.504 286.25H166.254C169.706 286.25 172.504 283.452 172.504 280C172.504 276.548 169.706 273.75 166.254 273.75Z" fill="#DAB679"/>
<path d="M166.254 238.75H77.5044C74.0531 238.75 71.2544 241.548 71.2544 245C71.2544 248.452 74.0531 251.25 77.5044 251.25H166.254C169.706 251.25 172.504 248.452 172.504 245C172.504 241.548 169.706 238.75 166.254 238.75Z" fill="#DAB679"/>
<path d="M166.254 203.75H77.5044C74.0531 203.75 71.2544 206.548 71.2544 210C71.2544 213.452 74.0531 216.25 77.5044 216.25H166.254C169.706 216.25 172.504 213.452 172.504 210C172.504 206.548 169.706 203.75 166.254 203.75Z" fill="#DAB679"/>
<path d="M55.2286 170.581C54.0667 169.419 52.4542 168.75 50.8042 168.75C49.1598 168.75 47.5473 169.419 46.3854 170.581C45.2229 171.744 44.5542 173.356 44.5542 175C44.5542 176.644 45.2223 178.256 46.3854 179.419C47.5542 180.581 49.1598 181.25 50.8042 181.25C52.4542 181.25 54.0604 180.581 55.2286 179.419C56.3911 178.256 57.0604 176.644 57.0604 175C57.0604 173.356 56.3917 171.744 55.2286 170.581Z" fill="#DAB679"/>
<path d="M55.2286 205.581C54.0604 204.419 52.4542 203.75 50.8042 203.75C49.1598 203.75 47.5542 204.419 46.3854 205.581C45.2229 206.744 44.5542 208.356 44.5542 210C44.5542 211.644 45.2223 213.256 46.3854 214.419C47.5542 215.581 49.1598 216.25 50.8042 216.25C52.4542 216.25 54.0604 215.581 55.2286 214.419C56.3911 213.256 57.0604 211.644 57.0604 210C57.0604 208.356 56.3917 206.744 55.2286 205.581Z" fill="#DAB679"/>
<path d="M55.2286 240.581C54.0604 239.419 52.4542 238.75 50.8042 238.75C49.1598 238.75 47.5542 239.419 46.3854 240.581C45.2229 241.744 44.5542 243.356 44.5542 245C44.5542 246.644 45.2223 248.256 46.3854 249.419C47.5473 250.581 49.1598 251.25 50.8042 251.25C52.4542 251.25 54.0667 250.581 55.2286 249.419C56.3911 248.256 57.0604 246.644 57.0604 245C57.0604 243.356 56.3917 241.744 55.2286 240.581Z" fill="#DAB679"/>
<path d="M166.254 168.75H77.5044C74.0531 168.75 71.2544 171.548 71.2544 175C71.2544 178.452 74.0531 181.25 77.5044 181.25H166.254C169.706 181.25 172.504 178.452 172.504 175C172.504 171.548 169.706 168.75 166.254 168.75Z" fill="#DAB679"/>
<path d="M306.876 81.4499C300.804 77.9443 293.731 77.013 286.957 78.8274C280.184 80.6424 274.523 84.9861 271.018 91.058L192.367 227.285C191.936 228.032 191.664 228.86 191.568 229.717L186.032 279.307C185.757 281.774 186.968 284.171 189.118 285.413C190.089 285.973 191.167 286.251 192.242 286.251C193.55 286.251 194.852 285.841 195.949 285.033L236.127 255.443C236.821 254.932 237.402 254.282 237.833 253.536L316.484 117.309C323.721 104.774 319.411 88.6874 306.876 81.4499ZM200.039 266.496L202.931 240.601L221.019 251.045L200.039 266.496ZM230.133 241.872L206.317 228.122L269.433 118.804L293.249 132.554L230.133 241.872ZM305.659 111.058L299.498 121.729L275.682 107.979L281.843 97.308C283.679 94.1274 286.644 91.8524 290.192 90.9018C293.741 89.9505 297.446 90.4393 300.626 92.2755C303.806 94.1118 306.081 97.0768 307.032 100.624C307.982 104.172 307.495 107.877 305.659 111.058Z" fill="#DAB679"/>
</svg>
