<svg width="320" height="320" viewBox="0 0 320 320" fill="none" xmlns="http://www.w3.org/2000/svg">
<path d="M60 190H70V200H60V190Z" fill="#DAB679"/>
<path d="M80 190H255V200H80V190Z" fill="#DAB679"/>
<path d="M60 210H70V220H60V210Z" fill="#DAB679"/>
<path d="M80 210H255V220H80V210Z" fill="#DAB679"/>
<path d="M60 230H70V240H60V230Z" fill="#DAB679"/>
<path d="M80 230H255V240H80V230Z" fill="#DAB679"/>
<path d="M60 250H70V260H60V250Z" fill="#DAB679"/>
<path d="M80 250H255V260H80V250Z" fill="#DAB679"/>
<path d="M150 45H170V55H150V45Z" fill="#DAB679"/>
<path d="M150 60H170V70H150V60Z" fill="#DAB679"/>
<path d="M95 170H225C226.326 170 227.598 169.473 228.536 168.536C229.473 167.598 230 166.326 230 165V35C230 33.6739 229.473 32.4021 228.536 31.4645C227.598 30.5268 226.326 30 225 30H95C93.6739 30 92.4021 30.5268 91.4645 31.4645C90.5268 32.4021 90 33.6739 90 35V165C90 166.326 90.5268 167.598 91.4645 168.536C92.4021 169.473 93.6739 170 95 170ZM100 160V60H115C116.326 60 117.598 59.4732 118.536 58.5355C119.473 57.5979 120 56.3261 120 55V40H130V85C130 86 130.299 86.9771 130.86 87.8051C131.42 88.6331 132.216 89.274 133.145 89.645L158.145 99.645C159.336 100.121 160.664 100.121 161.855 99.645L186.855 89.645C187.784 89.274 188.58 88.6331 189.14 87.8051C189.701 86.9771 190 86 190 85V40H200V55C200 56.3261 200.527 57.5979 201.464 58.5355C202.402 59.4732 203.674 60 205 60H220V160H100ZM140 40H180V81.615L160 89.615L140 81.615V40ZM220 50H210V40H220V50ZM110 40V50H100V40H110Z" fill="#DAB679"/>
<path d="M145 120H115C113.674 120 112.402 120.527 111.464 121.464C110.527 122.402 110 123.674 110 125V145C110 146.326 110.527 147.598 111.464 148.536C112.402 149.473 113.674 150 115 150H145C146.326 150 147.598 149.473 148.536 148.536C149.473 147.598 150 146.326 150 145V125C150 123.674 149.473 122.402 148.536 121.464C147.598 120.527 146.326 120 145 120ZM140 140H120V130H140V140Z" fill="#DAB679"/>
<path d="M180 120H210V130H180V120Z" fill="#DAB679"/>
<path d="M180 140H210V150H180V140Z" fill="#DAB679"/>
<path d="M275 10H65C58.372 10.0079 52.0178 12.6444 47.3311 17.3311C42.6444 22.0178 40.0079 28.372 40 35V270H15C13.6739 270 12.4021 270.527 11.4645 271.464C10.5268 272.402 10 273.674 10 275C10.0106 284.279 13.7015 293.176 20.263 299.737C26.8244 306.299 35.7207 309.989 45 310H270C271.326 310 272.598 309.473 273.536 308.536C274.473 307.598 275 306.326 275 305V50H305C306.326 50 307.598 49.4732 308.536 48.5355C309.473 47.5979 310 46.3261 310 45C309.989 35.7207 306.299 26.8244 299.737 20.263C293.176 13.7015 284.279 10.0106 275 10ZM45 300C39.2387 299.994 33.6559 298.001 29.1928 294.358C24.7298 290.714 21.6596 285.643 20.5 280H220.55C222.897 288.296 228.243 295.424 235.55 300H45ZM265 300C250.04 300 230 287.64 230 275C230 273.674 229.473 272.402 228.536 271.464C227.598 270.527 226.326 270 225 270H50V35C50 31.0218 51.5803 27.2064 54.3934 24.3934C57.2064 21.5804 61.0218 20 65 20H265V300ZM275 40V20C280.761 20.0063 286.344 21.9992 290.807 25.6425C295.27 29.2858 298.34 34.3566 299.5 40H275Z" fill="#DAB679"/>
</svg>
