<svg width="320" height="320" viewBox="0 0 320 320" fill="none" xmlns="http://www.w3.org/2000/svg">
<path d="M85 115V105H100V90C100 81.73 93.27 75 85 75H75C72.24 75 70 72.76 70 70V65H85C87.76 65 90 67.24 90 70H100C100 61.73 93.27 55 85 55V45H75V55H60V70C60 78.27 66.73 85 75 85H85C87.76 85 90 87.24 90 90V95H75C72.24 95 70 92.76 70 90H60C60 98.27 66.73 105 75 105V115H85Z" fill="#DAB679"/>
<path d="M135 80C135 49.675 110.325 25 80 25C49.675 25 25 49.675 25 80C25 110.325 49.675 135 80 135C110.325 135 135 110.325 135 80ZM35 80C35 55.185 55.185 35 80 35C104.815 35 125 55.185 125 80C125 104.815 104.815 125 80 125C55.185 125 35 104.815 35 80Z" fill="#DAB679"/>
<path d="M290 115H247.075L306.285 55.785C311.905 50.165 315 42.695 315 34.75C315 18.345 301.655 5 285.25 5C277.305 5 269.835 8.095 264.215 13.715L162.93 115H146.285C151.83 104.54 155 92.64 155 80C155 38.645 121.355 5 80 5C38.645 5 5 38.645 5 80C5 108.72 21.24 133.685 45 146.285V250C45 263.785 56.215 275 70 275H118.245L164.85 312.285C167.04 314.04 169.795 315 172.6 315C179.44 315 185 309.44 185 302.6V275H290C303.785 275 315 263.785 315 250V140C315 126.215 303.785 115 290 115ZM242.07 50L250 42.07L277.93 70L270 77.93L242.07 50ZM245.43 67.5L167.5 145.43L157.075 135L235 57.07L245.43 67.5ZM151.615 143.685L176.315 168.385L139.57 184.715C137.515 185.65 135 184.005 135 181.755C135 181.295 135.095 180.85 135.285 180.43L151.615 143.685ZM165 184.36L187.88 174.19L217.075 145H285V245H165V184.36ZM185 162.925L174.57 152.5L252.5 74.57L262.93 85L185 162.925ZM271.285 20.785C275.015 17.055 279.975 15 285.25 15C296.14 15 305 23.86 305 34.75C305 40.025 302.945 44.985 299.215 48.715L285 62.93L257.07 35L271.285 20.785ZM15 80C15 44.16 44.16 15 80 15C115.84 15 145 44.16 145 80C145 115.84 115.84 145 80 145C44.16 145 15 115.84 15 80ZM305 250C305 258.27 298.27 265 290 265H175V302.6C175 304.465 172.545 305.65 171.1 304.475L121.755 265H70C61.73 265 55 258.27 55 250V150.625C62.835 153.405 71.225 155 80 155C104.465 155 126.16 143.175 139.86 125H152.93L146.465 131.465L145.805 132.12L126.14 176.37C125.385 178.075 125 179.89 125 181.755C125 189.06 130.94 195 138.245 195C140.11 195 141.92 194.615 143.63 193.855L155 188.805V245C155 250.515 159.485 255 165 255H285C290.515 255 295 250.515 295 245V145C295 139.485 290.515 135 285 135H227.075L237.075 125H290C298.27 125 305 131.73 305 140V250Z" fill="#DAB679"/>
<path d="M135 245H145V255H135V245Z" fill="#DAB679"/>
<path d="M65 245H125V255H65V245Z" fill="#DAB679"/>
<path d="M65 225H145V235H65V225Z" fill="#DAB679"/>
<path d="M65 205H145V215H65V205Z" fill="#DAB679"/>
<path d="M65 185H115V195H65V185Z" fill="#DAB679"/>
<path d="M65 165H115V175H65V165Z" fill="#DAB679"/>
<path d="M225 155C202.945 155 185 172.945 185 195C185 217.055 202.945 235 225 235C247.055 235 265 217.055 265 195C265 172.945 247.055 155 225 155ZM254.55 190H230V165.45C242.535 167.57 252.43 177.465 254.55 190ZM225 225C208.455 225 195 211.545 195 195C195 180.165 205.835 167.845 220 165.45V200H254.55C252.155 214.165 239.835 225 225 225Z" fill="#DAB679"/>
</svg>
