<svg width="320" height="320" viewBox="0 0 320 320" fill="none" xmlns="http://www.w3.org/2000/svg">
<path d="M315.312 31.0575H169.228V4.6875C169.228 2.09875 167.129 0 164.54 0H135.294C132.706 0 130.607 2.09875 130.607 4.6875V31.0575H73.2431C70.6544 31.0575 68.5556 33.1562 68.5556 35.745V76.0462C65.4619 77.695 62.53 79.8625 60.0612 82.3575V68.5806C60.0612 60.0825 51.6069 53.1044 39.0319 50.7875V40.6119C39.0319 38.0231 36.9331 35.9244 34.3444 35.9244C26.0456 35.9244 17.6081 39.115 11.195 44.6781C3.97625 50.9406 0 59.6331 0 69.1538V88.7931C0 94.8538 9.375 94.8538 9.375 88.7931V69.1538C9.375 58.8931 17.0106 47.905 29.6569 45.6981V225.513C22.3006 226.433 14.7881 229.375 9.39375 234.559C9.38375 228.176 9.375 113.702 9.375 113.702C9.375 107.641 0 107.641 0 113.702V259.305C0 259.568 0.026875 259.824 0.06875 260.076C0.529375 273.825 13.25 284.1 30.0306 284.1C38.155 284.1 45.4238 281.788 50.7781 277.977L50.7806 295.21C50.7831 311.05 66.625 320 80.8156 320C95.8781 319.997 110.842 311.514 110.842 295.2L110.831 228.926H244.325L147.055 311.744C143.803 314.512 145.823 320 150.094 320H291.261C293.851 320 295.949 317.901 295.949 315.312V292.574C295.949 286.513 286.574 286.513 286.574 292.574V310.625H162.831L286.574 205.269V266.714C286.574 272.774 295.949 272.774 295.949 266.714V228.927H315.312C317.902 228.927 320 226.829 320 224.24V158.812V35.745C320 33.1562 317.902 31.0575 315.312 31.0575ZM310.625 40.4325V154.125H200.842V40.4325H310.625ZM159.853 9.375V129.341H139.982V117.361H143.386C149.446 117.361 149.446 107.986 143.386 107.986H139.982V95.7031H147.761C153.821 95.7031 153.821 86.3281 147.761 86.3281H139.982V74.045H143.386C145.974 74.045 148.073 71.9463 148.073 69.3575C148.073 66.7688 145.974 64.67 143.386 64.67H139.982V52.3869H147.761C153.821 52.3869 153.821 43.0119 147.761 43.0119H139.982V30.7294H143.386C149.446 30.7294 149.446 21.3544 143.386 21.3544H139.982V9.375H159.853ZM74.0375 83.6125C76.0612 82.655 78.1838 81.9838 80.4044 81.5981L80.4331 261.413C75.2112 262.067 66.77 264.118 60.1712 270.462C60.1606 264.167 60.1506 259.294 60.1506 259.161L60.1256 105.057C60.1244 96.6575 65.2431 87.7725 74.0375 83.6125ZM101.465 281.522C101.307 281.431 101.147 281.342 100.986 281.253C95.6094 278.302 88.59 276.656 81.1819 276.603L81.1813 270.776C83.4275 270.466 84.9362 270.489 84.9725 270.489C87.9075 270.293 89.5194 268.731 89.8081 265.804L89.7812 96.3031C95.995 97.8406 101.436 100.991 101.437 104.478L101.465 281.522ZM50.6862 68.5806V223.259V245.562C45.4631 242.562 38.405 240.758 30.4044 240.704V234.875C32.6519 234.566 34.1606 234.589 34.1956 234.59C37.1306 234.394 38.7425 232.832 39.0319 229.905V60.3744C46.1719 62.0837 50.6862 65.6287 50.6862 68.5806ZM50.6862 261.525C50.6862 268.68 41.2269 274.725 30.0306 274.725C18.2819 274.725 9.42188 268.096 9.42188 259.305C9.42188 250.402 12.6487 241.971 21.0294 237.712V245.594C21.3631 248.66 23.0725 250.216 26.1569 250.261C32.6706 249.647 39.8713 250.376 45.695 253.574C49.0556 255.419 50.96 257.763 50.6862 261.525ZM80.8144 310.625C80.8125 310.625 80.8119 310.625 80.8094 310.625C69.0638 310.625 60.2037 303.997 60.2025 295.209C60.2012 286.307 63.4263 277.873 71.8069 273.614L71.8081 281.496C72.1425 284.561 73.8519 286.117 76.9356 286.161C84.8875 285.414 101.849 286.69 101.468 297.421C101.469 304.577 92.0106 310.624 80.8144 310.625ZM110.812 104.475C110.811 96.0363 102.328 89.0169 89.7794 86.69L89.7775 76.51C89.5088 73.6531 87.9463 72.0906 85.0894 71.8231C82.6969 71.8238 80.2944 72.0975 77.9306 72.6087V40.4325H130.607V134.027C130.607 136.616 132.706 138.715 135.294 138.715H164.54C167.129 138.715 169.228 136.616 169.228 134.027V40.4325H191.467V158.812V219.552H110.831L110.812 104.475ZM293.227 190.866C291.567 190.099 289.614 190.367 288.222 191.553L255.336 219.552H200.842V163.5H310.625V219.552H295.949V195.122C295.949 193.294 294.886 191.633 293.227 190.866Z" fill="#DAB679"/>
<path d="M223.338 134.323H266.528C267.762 134.323 268.977 133.818 269.848 132.945L291.443 111.367C292.323 110.488 292.817 109.294 292.817 108.051L292.811 64.9213C292.811 62.385 290.659 60.2344 288.123 60.2344L244.926 60.2394C243.684 60.2394 242.492 60.7331 241.614 61.6113L220.028 83.1806C219.156 84.0494 218.649 85.2706 218.649 86.5V129.636C218.65 132.225 220.749 134.323 223.338 134.323ZM228.025 91.1875H261.841V124.948H228.025V91.1875ZM271.216 118.326V88.4431L283.439 76.2306L283.443 106.109L271.216 118.326ZM246.869 69.6144L276.8 69.6106L264.588 81.8125H234.66L246.869 69.6144Z" fill="#DAB679"/>
<path d="M245.508 196.304H229.976C223.916 196.304 223.916 205.679 229.976 205.679H245.508C251.569 205.679 251.569 196.304 245.508 196.304Z" fill="#DAB679"/>
<path d="M269.774 177.651H229.976C223.916 177.651 223.916 187.026 229.976 187.026H269.774C275.835 187.026 275.835 177.651 269.774 177.651Z" fill="#DAB679"/>
<path d="M265.455 240.818L208.858 289.005C205.607 291.773 207.626 297.261 211.896 297.261H268.493C271.083 297.261 273.181 295.163 273.181 292.574V244.386C273.181 240.823 268.68 238.071 265.455 240.818ZM263.806 287.886H224.633L263.806 254.534V287.886Z" fill="#DAB679"/>
</svg>
