<svg width="320" height="320" viewBox="0 0 320 320" fill="none" xmlns="http://www.w3.org/2000/svg">
<path d="M196.006 158.863V158.863C196.006 157.034 196.366 155.223 197.066 153.533C197.765 151.844 198.791 150.309 200.084 149.016C201.377 147.722 202.912 146.697 204.602 145.997C206.292 145.297 208.103 144.937 209.931 144.938H209.931H228.922C228.975 146.256 229.261 147.556 229.766 148.777C230.33 150.139 231.157 151.377 232.2 152.419C233.242 153.462 234.48 154.289 235.842 154.853C237.204 155.417 238.663 155.707 240.138 155.706C240.138 155.706 240.138 155.706 240.138 155.706H265.369C266.843 155.707 268.303 155.417 269.665 154.853C271.027 154.289 272.264 153.462 273.307 152.419C274.349 151.377 275.176 150.139 275.74 148.777C276.246 147.556 276.531 146.256 276.585 144.938H295.575C299.268 144.938 302.81 146.405 305.421 149.017C308.033 151.628 309.5 155.17 309.5 158.863V285.175C309.5 288.869 308.033 292.411 305.422 295.024C302.81 297.636 299.269 299.105 295.575 299.106H209.931C208.102 299.106 206.291 298.746 204.602 298.045C202.912 297.345 201.377 296.319 200.083 295.025C198.79 293.731 197.765 292.196 197.065 290.506C196.366 288.816 196.006 287.004 196.006 285.175V158.863ZM235.575 239.331H236.075V238.831V218.219V217.719H235.575H214.969H214.469V218.219V238.831V239.331H214.969H235.575Z" stroke="#DAB679"/>
<path d="M229.913 143.781V143.781C229.912 142.438 230.177 141.109 230.69 139.868C231.204 138.627 231.957 137.5 232.907 136.55C233.856 135.601 234.984 134.848 236.224 134.334C237.465 133.82 238.795 133.556 240.137 133.556H240.138H265.369H265.369C266.712 133.556 268.042 133.82 269.282 134.334C270.523 134.848 271.65 135.601 272.6 136.55C273.549 137.5 274.302 138.627 274.816 139.868C275.33 141.109 275.594 142.438 275.594 143.781V143.781V144.481V144.482C275.594 145.824 275.33 147.154 274.816 148.395C274.302 149.635 273.549 150.763 272.6 151.712C271.65 152.662 270.523 153.415 269.282 153.929C268.042 154.442 266.712 154.707 265.369 154.706H265.369H240.138H240.137C238.795 154.707 237.465 154.442 236.224 153.929C234.984 153.415 233.856 152.662 232.907 151.712C231.957 150.763 231.204 149.635 230.69 148.395C230.177 147.154 229.912 145.824 229.913 144.482V144.481V144.438V143.781Z" stroke="#DAB679"/>
<path d="M127.781 156.101L244.069 88.9652V132.556H240.138C238.663 132.556 237.204 132.846 235.842 133.41C234.479 133.974 233.242 134.801 232.199 135.843C231.157 136.886 230.33 138.123 229.766 139.485C229.202 140.848 228.912 142.307 228.913 143.782V143.938H209.931C207.971 143.937 206.03 144.323 204.219 145.073C202.408 145.823 200.763 146.922 199.377 148.308C197.991 149.694 196.892 151.34 196.142 153.151C195.392 154.962 195.006 156.903 195.006 158.863V251.574L127.781 290.384V156.101Z" stroke="#DAB679"/>
<path d="M127.281 155.235L68.4936 121.294L184.766 54.1571L243.556 88.1065L127.281 155.235Z" stroke="#DAB679"/>
<path d="M215.469 238.331V218.719H235.075V238.331H215.469Z" stroke="#DAB679"/>
<path d="M127.281 20.9712L183.763 53.5813L67.4939 120.716L11.0126 88.1063L127.281 20.9712Z" stroke="#DAB679"/>
<path d="M67.2437 121.727L126.781 156.101V290.384L10.5 223.249V88.9653L67.2437 121.727Z" stroke="#DAB679"/>
<path d="M219.55 203.131H214.969C213.808 203.131 212.696 202.67 211.875 201.85C211.055 201.029 210.594 199.916 210.594 198.756V178.144C210.594 176.983 211.055 175.87 211.875 175.05C212.696 174.229 213.808 173.769 214.969 173.769H235.575C236.735 173.769 237.848 174.229 238.669 175.05C239.489 175.87 239.95 176.983 239.95 178.144V181.087C239.951 182.123 239.585 183.125 238.917 183.915C238.248 184.706 237.321 185.234 236.301 185.406C235.28 185.577 234.231 185.381 233.341 184.853C232.451 184.324 231.777 183.497 231.439 182.519H219.344V194.381H219.55C220.71 194.381 221.823 194.842 222.644 195.662C223.464 196.483 223.925 197.596 223.925 198.756C223.925 199.916 223.464 201.029 222.644 201.85C221.823 202.67 220.71 203.131 219.55 203.131Z" fill="#DAB679"/>
<path d="M219.55 283.275H214.969C213.808 283.275 212.696 282.814 211.875 281.994C211.055 281.173 210.594 280.061 210.594 278.9V258.294C210.594 257.134 211.055 256.021 211.875 255.2C212.696 254.38 213.808 253.919 214.969 253.919H235.575C236.735 253.919 237.848 254.38 238.669 255.2C239.489 256.021 239.95 257.134 239.95 258.294V262.506C239.961 263.081 239.858 263.652 239.648 264.187C239.438 264.722 239.125 265.21 238.726 265.624C238.327 266.038 237.851 266.369 237.324 266.599C236.798 266.828 236.231 266.952 235.656 266.963C235.082 266.973 234.511 266.871 233.976 266.661C233.441 266.451 232.953 266.137 232.539 265.739C232.125 265.34 231.794 264.864 231.564 264.337C231.334 263.81 231.211 263.243 231.2 262.669H219.344V274.525H219.55C220.71 274.525 221.823 274.986 222.644 275.807C223.464 276.627 223.925 277.74 223.925 278.9C223.925 280.061 223.464 281.173 222.644 281.994C221.823 282.814 220.71 283.275 219.55 283.275Z" fill="#DAB679"/>
<path d="M232.838 202.494C232.263 202.495 231.695 202.382 231.164 202.163C230.633 201.943 230.151 201.62 229.746 201.214L222.75 194.226C222.344 193.82 222.022 193.338 221.802 192.807C221.582 192.276 221.469 191.707 221.469 191.133C221.469 190.558 221.582 189.989 221.802 189.458C222.022 188.927 222.344 188.445 222.75 188.039C223.156 187.633 223.639 187.31 224.17 187.09C224.7 186.871 225.269 186.757 225.844 186.757C226.419 186.757 226.987 186.871 227.518 187.09C228.049 187.31 228.531 187.633 228.938 188.039L232.838 191.936L245.651 179.123C246.057 178.717 246.539 178.395 247.07 178.175C247.601 177.955 248.17 177.842 248.745 177.842C249.319 177.842 249.888 177.955 250.419 178.175C250.95 178.395 251.432 178.717 251.838 179.123C252.245 179.53 252.567 180.012 252.787 180.543C253.007 181.074 253.12 181.642 253.12 182.217C253.12 182.792 253.007 183.361 252.787 183.891C252.567 184.422 252.245 184.905 251.838 185.311L235.932 201.217C235.526 201.623 235.043 201.945 234.512 202.164C233.981 202.383 233.412 202.495 232.838 202.494Z" fill="#DAB679"/>
<path d="M232.838 283.275C232.263 283.276 231.695 283.163 231.164 282.944C230.633 282.724 230.151 282.402 229.746 281.995L222.75 275.008C222.344 274.601 222.022 274.119 221.802 273.588C221.582 273.057 221.469 272.488 221.469 271.914C221.469 271.339 221.582 270.77 221.802 270.24C222.022 269.709 222.344 269.226 222.75 268.82C223.156 268.414 223.639 268.092 224.17 267.872C224.7 267.652 225.269 267.539 225.844 267.539C226.419 267.539 226.987 267.652 227.518 267.872C228.049 268.092 228.531 268.414 228.938 268.82L232.838 272.717L245.651 259.905C246.057 259.498 246.539 259.176 247.07 258.956C247.601 258.736 248.17 258.623 248.745 258.623C249.319 258.623 249.888 258.736 250.419 258.956C250.95 259.176 251.432 259.498 251.838 259.905C252.245 260.311 252.567 260.793 252.787 261.324C253.007 261.855 253.12 262.424 253.12 262.998C253.12 263.573 253.007 264.142 252.787 264.673C252.567 265.203 252.245 265.686 251.838 266.092L235.932 281.998C235.526 282.404 235.043 282.726 234.512 282.945C233.981 283.165 233.412 283.277 232.838 283.275Z" fill="#DAB679"/>
<path d="M290.537 192.825H263.056C261.896 192.825 260.783 192.364 259.963 191.544C259.142 190.723 258.681 189.611 258.681 188.45C258.681 187.29 259.142 186.177 259.963 185.357C260.783 184.536 261.896 184.075 263.056 184.075H290.537C291.698 184.075 292.811 184.536 293.631 185.357C294.451 186.177 294.912 187.29 294.912 188.45C294.912 189.611 294.451 190.723 293.631 191.544C292.811 192.364 291.698 192.825 290.537 192.825Z" fill="#DAB679"/>
<path d="M290.537 232.9H263.056C261.896 232.9 260.783 232.439 259.963 231.619C259.142 230.799 258.681 229.686 258.681 228.525C258.681 227.365 259.142 226.252 259.963 225.432C260.783 224.611 261.896 224.15 263.056 224.15H290.537C291.698 224.15 292.811 224.611 293.631 225.432C294.451 226.252 294.912 227.365 294.912 228.525C294.912 229.686 294.451 230.799 293.631 231.619C292.811 232.439 291.698 232.9 290.537 232.9Z" fill="#DAB679"/>
<path d="M290.537 272.975H263.056C261.896 272.975 260.783 272.514 259.963 271.694C259.142 270.873 258.681 269.76 258.681 268.6C258.681 267.44 259.142 266.327 259.963 265.506C260.783 264.686 261.896 264.225 263.056 264.225H290.537C291.698 264.225 292.811 264.686 293.631 265.506C294.451 266.327 294.912 267.44 294.912 268.6C294.912 269.76 294.451 270.873 293.631 271.694C292.811 272.514 291.698 272.975 290.537 272.975Z" fill="#DAB679"/>
</svg>
