<svg width="80" height="80" viewBox="0 0 80 80" fill="none" xmlns="http://www.w3.org/2000/svg">
<path fill-rule="evenodd" clip-rule="evenodd" d="M48.7838 45.3483C48.7838 45.8384 49.1626 46.2351 49.6293 46.2351C50.0966 46.2351 50.4748 45.8384 50.4748 45.3483C50.4748 44.8589 50.0966 44.4617 49.6293 44.4617C49.1626 44.4617 48.7838 44.8589 48.7838 45.3483ZM43.927 45.3483C43.927 45.8384 44.3053 46.2351 44.7727 46.2351C45.2399 46.2351 45.6182 45.8384 45.6182 45.3483C45.6182 44.8589 45.2399 44.4617 44.7727 44.4617C44.3053 44.4617 43.927 44.8589 43.927 45.3483ZM31.0476 45.3483C31.0476 44.8589 30.6693 44.4617 30.202 44.4617C29.7353 44.4617 29.357 44.8589 29.357 45.3483C29.357 45.8384 29.7353 46.2351 30.202 46.2351C30.6693 46.2351 31.0476 45.8384 31.0476 45.3483ZM39.0703 45.3483C39.0703 45.8384 39.4487 46.2351 39.916 46.2351C40.3828 46.2351 40.7615 45.8384 40.7615 45.3483C40.7615 44.8589 40.3828 44.4617 39.916 44.4617C39.4487 44.4617 39.0703 44.8589 39.0703 45.3483ZM34.2137 45.3483C34.2137 45.8384 34.592 46.2351 35.0592 46.2351C35.526 46.2351 35.9042 45.8384 35.9042 45.3483C35.9042 44.8589 35.526 44.4617 35.0592 44.4617C34.592 44.4617 34.2137 44.8589 34.2137 45.3483ZM67.6934 38.9501H63.2516V14.3951H67.6934V38.9501ZM12.1384 14.3951H16.5798V38.9501H12.1384V14.3951ZM58.1385 14.3951H62.6016V38.9501H58.1385V14.3951ZM53.0248 36.8861V14.3951H57.4878V38.9501H54.993L53.0248 36.8861ZM31.9197 31.5233L27.4571 36.2033V14.3951H31.9197V31.5233ZM37.0333 26.1611L32.5703 30.8411V14.3951H37.0333V26.1611ZM42.1475 25.4795L39.9154 23.1389L37.6839 25.4795V14.3951H42.1475V25.4795ZM47.2605 30.8411L42.7975 26.1611V14.3951H47.2605V30.8411ZM47.9111 31.5233V14.3951H52.3742V36.2039L47.9111 31.5233ZM21.6928 38.9501H17.2298V14.3951H21.6928V38.9501ZM22.3434 14.3951H26.8065V36.885L24.8378 38.9501H22.3434V14.3951ZM53.154 65.3494H26.6773V60.5922H53.154V65.3494ZM53.154 59.9094H26.6773V55.229H53.154V59.9094ZM53.154 54.5473H26.6773V49.9356H53.154V54.5473ZM53.154 48.5716H26.6773V40.8795C26.6773 40.8795 39.5038 27.429 39.9154 26.9973C46.9416 34.3646 53.154 40.8795 53.154 40.8795V48.5716ZM70.2953 11.6667H9.53613V41.6784H24.0755V68.0773H55.7555V41.6784H70.2953V11.6667Z" fill="#DAB679"/>
<rect x="0.5" y="0.5" width="79" height="79" stroke="#DAB679"/>
</svg>
