<svg width="1080" height="850" viewBox="0 0 1080 850" fill="none" xmlns="http://www.w3.org/2000/svg">
<rect x="868" y="44" width="70" height="806" fill="#F1F1F1"/>
<rect x="900" y="59.5" width="6" height="775" fill="white"/>
<rect x="882" y="59.5" width="6" height="775" fill="white"/>
<rect x="918" y="59.5" width="6" height="775" fill="white"/>
<rect x="142" y="44" width="70" height="806" fill="#F1F1F1"/>
<rect x="174" y="59.5" width="6" height="775" fill="white"/>
<rect x="156" y="59.5" width="6" height="775" fill="white"/>
<rect x="192" y="59.5" width="6" height="775" fill="white"/>
<path d="M0 0H1080V40H0V0Z" fill="#F1F1F1"/>
<path d="M18.4614 14H36.923L33.665 26H21.7193L18.4614 14Z" fill="white"/>
<path d="M46.1538 14H64.6153L61.3574 26H49.4117L46.1538 14Z" fill="white"/>
<path d="M73.8462 14H92.3077L89.0498 26H77.1041L73.8462 14Z" fill="white"/>
<path d="M101.539 14H120L116.742 26H104.796L101.539 14Z" fill="white"/>
<path d="M129.231 14H147.692L144.435 26H132.489L129.231 14Z" fill="white"/>
<path d="M156.923 14H175.384L172.126 26H160.181L156.923 14Z" fill="white"/>
<path d="M184.615 14H203.077L199.819 26H187.873L184.615 14Z" fill="white"/>
<path d="M212.308 14H230.769L227.511 26H215.566L212.308 14Z" fill="white"/>
<path d="M240 14H258.462L255.204 26H243.258L240 14Z" fill="white"/>
<path d="M267.692 14H286.154L282.896 26H270.95L267.692 14Z" fill="white"/>
<path d="M295.385 14H313.846L310.588 26H298.643L295.385 14Z" fill="white"/>
<path d="M323.077 14H341.539L338.281 26H326.335L323.077 14Z" fill="white"/>
<path d="M350.769 14H369.231L365.973 26H354.027L350.769 14Z" fill="white"/>
<path d="M378.461 14H396.923L393.665 26H381.719L378.461 14Z" fill="white"/>
<path d="M406.154 14H424.615L421.357 26H409.412L406.154 14Z" fill="white"/>
<path d="M433.846 14H452.308L449.05 26H437.104L433.846 14Z" fill="white"/>
<path d="M461.539 14H480L476.742 26H464.796L461.539 14Z" fill="white"/>
<path d="M489.231 14H507.692L504.435 26H492.489L489.231 14Z" fill="white"/>
<path d="M516.923 14H535.384L532.126 26H520.181L516.923 14Z" fill="white"/>
<path d="M544.615 14H563.077L559.819 26H547.873L544.615 14Z" fill="white"/>
<path d="M572.308 14H590.769L587.511 26H575.566L572.308 14Z" fill="white"/>
<path d="M600 14H618.462L615.204 26H603.258L600 14Z" fill="white"/>
<path d="M627.692 14H646.154L642.896 26H630.95L627.692 14Z" fill="white"/>
<path d="M655.385 14H673.846L670.588 26H658.643L655.385 14Z" fill="white"/>
<path d="M683.077 14H701.539L698.281 26H686.335L683.077 14Z" fill="white"/>
<path d="M710.769 14H729.231L725.973 26H714.027L710.769 14Z" fill="white"/>
<path d="M738.461 14H756.923L753.665 26H741.719L738.461 14Z" fill="white"/>
<path d="M766.154 14H784.615L781.357 26H769.412L766.154 14Z" fill="white"/>
<path d="M793.846 14H812.308L809.05 26H797.104L793.846 14Z" fill="white"/>
<path d="M821.539 14H840L836.742 26H824.796L821.539 14Z" fill="white"/>
<path d="M849.231 14H867.692L864.435 26H852.489L849.231 14Z" fill="white"/>
<path d="M876.923 14H895.384L892.126 26H880.181L876.923 14Z" fill="white"/>
<path d="M904.615 14H923.077L919.819 26H907.873L904.615 14Z" fill="white"/>
<path d="M932.308 14H950.769L947.511 26H935.566L932.308 14Z" fill="white"/>
<path d="M960 14H978.462L975.204 26H963.258L960 14Z" fill="white"/>
<path d="M987.692 14H1006.15L1002.9 26H990.95L987.692 14Z" fill="white"/>
<path d="M1015.38 14H1033.85L1030.59 26H1018.64L1015.38 14Z" fill="white"/>
<path d="M1043.08 14H1061.54L1058.28 26H1046.34L1043.08 14Z" fill="white"/>
<rect y="14" width="1080" height="2" fill="white"/>
</svg>
