<svg width="210" height="210" viewBox="0 0 210 210" fill="none" xmlns="http://www.w3.org/2000/svg">
<g clip-path="url(#clip0)">
<path fill-rule="evenodd" clip-rule="evenodd" d="M17.716 105H0V192.284V210H17.716H105V192.284H17.716V105Z" fill="#DAB679"/>
<path fill-rule="evenodd" clip-rule="evenodd" d="M192.284 105H210V17.716V0H192.284L105 0V17.716L192.284 17.716V105Z" fill="#DAB679"/>
<path fill-rule="evenodd" clip-rule="evenodd" d="M164.198 52.9321C168.255 52.9321 171.543 49.6433 171.543 45.5864C171.543 41.5295 168.255 38.2407 164.198 38.2407C160.141 38.2407 156.852 41.5295 156.852 45.5864C156.852 49.6433 160.141 52.9321 164.198 52.9321ZM164.198 59.4136C171.834 59.4136 178.025 53.223 178.025 45.5864C178.025 37.9499 171.834 31.7593 164.198 31.7593C156.561 31.7593 150.371 37.9499 150.371 45.5864C150.371 53.223 156.561 59.4136 164.198 59.4136Z" fill="#DAB679"/>
<path d="M150.129 136.6C143.371 146.251 133.697 153.482 122.527 157.23C111.356 160.979 99.2787 161.047 88.0667 157.426C76.8548 153.804 67.0991 146.684 60.232 137.11C53.3649 127.535 49.7481 116.012 49.9126 104.231C50.0771 92.4496 54.0142 81.0315 61.146 71.6527C68.2778 62.274 78.2284 55.4287 89.5372 52.1218C100.846 48.8149 112.917 49.2206 123.978 53.2793C135.039 57.3381 144.508 64.8361 150.994 74.6725L136.276 84.3773C131.865 77.6885 125.427 72.5899 117.905 69.8299C110.383 67.07 102.175 66.7941 94.4852 69.0428C86.7953 71.2915 80.0288 75.9463 75.1792 82.3238C70.3296 88.7014 67.6524 96.4657 67.5405 104.477C67.4286 112.488 69.8881 120.324 74.5577 126.835C79.2273 133.345 85.8612 138.187 93.4853 140.649C101.109 143.112 109.322 143.065 116.918 140.517C124.514 137.968 131.092 133.051 135.688 126.488L150.129 136.6Z" fill="#DAB679"/>
<path d="M5.236 210.182C6.188 210.182 6.972 209.832 7.588 209.132C8.218 208.418 8.526 207.55 8.526 206.5C8.526 205.464 8.218 204.596 7.588 203.896C6.972 203.182 6.188 202.832 5.236 202.832C4.242 202.832 3.486 203.182 2.94 203.868V200.2H0.966V210H2.94V209.146C3.458 209.832 4.228 210.182 5.236 210.182ZM4.676 208.46C3.906 208.46 3.262 208.012 2.94 207.41V205.59C3.262 204.988 3.906 204.554 4.676 204.554C5.222 204.554 5.684 204.736 6.034 205.114C6.384 205.492 6.566 205.954 6.566 206.5C6.566 207.06 6.384 207.522 6.034 207.9C5.684 208.278 5.222 208.46 4.676 208.46ZM16.6258 208.474C16.3038 208.474 16.1358 208.292 16.1358 207.942V205.576C16.1358 204.722 15.8278 204.05 15.2118 203.56C14.6098 203.07 13.7978 202.832 12.8038 202.832C11.7818 202.832 10.9278 203.014 10.2138 203.392V205.044C10.8718 204.652 11.5858 204.456 12.3278 204.456C13.5598 204.456 14.1758 204.89 14.1758 205.772V205.982C13.6158 205.688 12.9438 205.548 12.1598 205.548C11.4038 205.548 10.7598 205.744 10.2138 206.136C9.66777 206.528 9.40177 207.102 9.40177 207.844C9.40177 209.258 10.4658 210.182 11.9778 210.182C12.9718 210.182 13.7698 209.86 14.3858 209.23C14.6518 209.832 15.1698 210.126 15.9678 210.126C16.4298 210.126 16.7798 210.028 17.0318 209.832V208.39C16.9338 208.446 16.7938 208.474 16.6258 208.474ZM14.1758 207.942C13.8118 208.418 13.2798 208.656 12.5938 208.656C11.8658 208.656 11.3478 208.362 11.3478 207.746C11.3478 207.172 11.8798 206.836 12.7198 206.836C13.2938 206.836 13.7698 206.976 14.1758 207.242V207.942ZM20.9736 210.182C21.9116 210.182 22.6676 209.986 23.2416 209.58C23.8156 209.174 24.0956 208.656 24.0956 207.998C24.0956 206.78 23.3256 206.136 21.8136 205.786L21.0716 205.632C20.9036 205.576 20.6236 205.506 20.4696 205.45C20.2596 205.324 20.0776 205.226 20.0776 204.988C20.0776 204.61 20.4556 204.428 21.1976 204.428C22.0516 204.428 22.8916 204.666 23.7316 205.156V203.476C23.0456 203.042 22.1636 202.832 21.1136 202.832C19.1956 202.832 18.0336 203.644 18.0336 204.974C18.0336 206.206 18.6916 206.71 20.3016 207.144C20.4276 207.186 20.6236 207.228 20.8616 207.298L21.3796 207.424C21.4916 207.452 21.6176 207.494 21.7436 207.55C22.0096 207.662 22.0936 207.802 22.0936 207.984C22.0936 208.376 21.6876 208.572 20.8896 208.572C19.7556 208.572 18.6496 208.18 18.0336 207.774V209.524C18.7476 209.958 19.7276 210.182 20.9736 210.182ZM28.9777 210.182C30.1257 210.182 31.0077 209.944 31.6377 209.468V207.886C30.9237 208.292 30.1817 208.502 29.3977 208.502C28.1657 208.502 27.2697 207.998 27.0597 207.046H32.0717V206.528C32.0717 205.492 31.7637 204.624 31.1617 203.91C30.5597 203.196 29.7617 202.832 28.7397 202.832C27.6617 202.832 26.7797 203.182 26.1077 203.896C25.4357 204.596 25.0997 205.464 25.0997 206.5C25.0997 207.606 25.4777 208.502 26.2197 209.174C26.9617 209.846 27.8857 210.182 28.9777 210.182ZM27.0597 205.786C27.1577 204.96 27.7597 204.386 28.6557 204.386C29.5377 204.386 30.0837 205.016 30.1257 205.786H27.0597ZM36.4151 210.182C37.4231 210.182 38.1931 209.832 38.7111 209.146V210H40.6851V200.2H38.7111V203.868C38.1651 203.182 37.4091 202.832 36.4151 202.832C35.4631 202.832 34.6791 203.182 34.0491 203.896C33.4331 204.596 33.1251 205.464 33.1251 206.5C33.1251 207.55 33.4331 208.418 34.0491 209.132C34.6791 209.832 35.4631 210.182 36.4151 210.182ZM36.9751 208.46C36.4291 208.46 35.9671 208.278 35.6171 207.9C35.2671 207.522 35.0851 207.06 35.0851 206.5C35.0851 205.954 35.2671 205.492 35.6171 205.114C35.9671 204.736 36.4291 204.554 36.9751 204.554C37.7451 204.554 38.3891 204.988 38.7111 205.59V207.41C38.3891 208.012 37.7451 208.46 36.9751 208.46Z" fill="#272E5B"/>
<path d="M111.396 11V9.488H107.892L109.332 8.168C109.992 7.556 110.46 7.028 110.712 6.572C110.976 6.116 111.108 5.588 111.108 5C111.108 4.232 110.808 3.608 110.22 3.14C109.632 2.672 108.936 2.432 108.132 2.432C107.184 2.432 106.368 2.696 105.684 3.236V5.012C106.404 4.376 107.16 4.052 107.952 4.052C108.816 4.052 109.392 4.508 109.392 5.228C109.392 5.588 109.284 5.924 109.056 6.248C108.84 6.572 108.456 6.98 107.892 7.496L105.42 9.74V11H111.396ZM116.174 11.168C117.278 11.168 118.154 10.736 118.802 9.884C119.462 9.032 119.786 8 119.786 6.8C119.786 5.6 119.462 4.568 118.802 3.716C118.154 2.864 117.278 2.432 116.174 2.432C114.686 2.432 113.521 3.356 112.958 4.664C112.682 5.312 112.55 6.02 112.55 6.8C112.55 8.348 113.102 9.716 114.218 10.544C114.782 10.964 115.43 11.168 116.174 11.168ZM114.794 8.756C114.446 8.216 114.278 7.568 114.278 6.8C114.278 6.032 114.446 5.384 114.794 4.856C115.142 4.316 115.598 4.052 116.174 4.052C116.75 4.052 117.206 4.316 117.542 4.856C117.89 5.384 118.058 6.032 118.058 6.8C118.058 7.568 117.89 8.216 117.542 8.756C117.206 9.284 116.75 9.548 116.174 9.548C115.598 9.548 115.142 9.284 114.794 8.756ZM124.106 11V2.6H122.606L120.638 3.656V5.348L122.414 4.448V11H124.106ZM131.242 11V8.9H132.478V7.508H131.242V2.6H129.538L125.35 7.652V8.9H129.562V11H131.242ZM129.562 4.772V7.508H127.258L129.562 4.772Z" fill="#272E5B"/>
</g>
<defs>
<clipPath id="clip0">
<rect width="210" height="210" fill="white"/>
</clipPath>
</defs>
</svg>
