<svg width="361" height="231" viewBox="0 0 361 231" fill="none" xmlns="http://www.w3.org/2000/svg">
<path d="M50.1267 43.0999L79.2913 17.5809L202 57M50.1267 43.0999V97.7835L174.076 139.707M50.1267 43.0999C91.5039 57.1354 132.699 70.9886 174.076 85.024M174.076 85.024V139.707M174.076 85.024L201.418 57.6822V112.366L174.076 139.707M177.721 48.5683L150.38 75.9101V131.5M151 40.5L124.861 68.6189V123.302M126 32.5L101.165 59.505V114.832M102.988 24.8721L75.6458 52.2138V106.897M201.342 112.468L174 107M206.886 95.9606L234.228 68.6188C241.519 74.0872 248.263 76.4568 252.456 77.7328C271.595 83.2011 287.818 76.2746 292.557 74.0872C299.301 71.1708 304.041 67.5252 307.139 64.9733L360 85.0239M206.886 95.9606V152.467C209.073 152.285 216.182 151.738 223.291 156.113C225.296 157.206 231.129 161.034 234.228 168.872M206.886 95.9606C212.719 97.2366 220.01 99.7885 226.937 105.075C230.582 107.809 237.327 113.095 239.696 121.48C241.337 126.948 240.061 129.864 239.696 130.594C238.238 133.875 235.504 135.515 234.228 136.062M234.228 136.062L290.734 154.29M234.228 136.062V196.214M290.734 154.29V216.265M290.734 154.29L360 85.0239M290.734 216.265L234.228 196.214M290.734 216.265L358.177 139.707L360 85.0239M234.228 196.214C224.4 196.214 205.2 204.6 204.6 231M263.164 145V175.987M263.164 175.987L290.506 185.101M263.164 175.987L234 196.038M174 139C174 139 177 152.5 183.5 155C190 157.5 207 152.5 207 152.5M0 0.5C22 0.5 24.8 3.59997 28 4.99997C35.6 8.29997 43.8 16.3 42 22C41.1 24.7 38.1 26.8 35 27C31.4 27.2 27.6 24.8 27 22C25.9 16.9 35.5 11.8 37 11C40.9 8.89998 49 1.99998 79.5 17.5" stroke="#DAB679" stroke-miterlimit="10"/>
</svg>
