<svg width="64" height="64" viewBox="0 0 64 64" fill="none" xmlns="http://www.w3.org/2000/svg">
<path fill-rule="evenodd" clip-rule="evenodd" d="M53.6442 25.669H33.0308V10.3563H53.6442V25.669ZM30.3057 26.1002L24.4432 11.9456C26.9928 10.9267 29.6801 10.3932 32.4417 10.3577V25.6751C31.7073 25.7054 30.9911 25.8478 30.3057 26.1002ZM27.9532 27.5369L17.1216 16.7051C19.095 14.7821 21.3727 13.2575 23.8993 12.1714L29.7621 26.3261C29.0996 26.6331 28.4933 27.039 27.9532 27.5369ZM10.3558 33.0309H25.6689V53.6442H10.3558V33.0309ZM10.3577 32.4418C10.3932 29.6793 10.9267 26.9919 11.945 24.4433L26.1001 30.3062C25.8478 30.9917 25.7054 31.7079 25.6751 32.4418H10.3577ZM16.7047 17.1216L27.5368 27.9533C27.0394 28.493 26.6335 29.0993 26.3261 29.7622L12.1715 23.8993C13.258 21.3731 14.7821 19.0951 16.7047 17.1216ZM32.7363 8C26.1965 8 20.1139 10.5549 15.597 14.9H15.5899C13.2148 17.2755 11.3751 19.7321 9.94764 23.1049C8.65527 26.1601 8 29.4005 8 32.7359V56H28.0247V32.7359C28.0247 30.1383 30.1377 28.0247 32.7363 28.0247H56V8H32.7363Z" fill="black"/>
</svg>
