<svg width="50" height="42" viewBox="0 0 50 42" fill="none" xmlns="http://www.w3.org/2000/svg">
<path d="M24.3225 41.8341L1.49966 31.8105L0.435861 19.5033L0.39686 19.0605L0.307461 18.0141L0.169461 16.4181L0.0224609 14.7207L24.3525 23.5461L24.3225 41.8341ZM1.09286 16.2711L2.32886 31.1505L23.2083 40.2231L23.1639 24.3951L16.8591 22.0743L1.09286 16.2711Z" fill="#F4F4F4"/>
<path d="M24.3223 41.8339L24.3523 23.5459L24.3991 40.0681L24.3949 41.7751L24.3223 41.8339Z" fill="#CFCFCF"/>
<path d="M24.3518 23.5461L0.0224609 14.7207L1.73486 15.2691L24.4292 23.4939L24.3518 23.5461Z" fill="#CBCBCB"/>
<path d="M27.8613 1.74745L27.8769 0.56665L49.9173 6.35845L48.4725 22.1828L47.2395 21.7826L47.8533 21.2906L49.1271 6.91765L28.4763 1.42945L27.8613 1.74745Z" fill="#F4F4F4"/>
<path d="M28.4761 1.42944L49.1269 6.91764L24.4297 23.5286L1.73535 15.269L14.5262 8.64864L27.8611 1.74744L28.4761 1.42944Z" fill="url(#paint0_linear)"/>
<path d="M24.43 23.5287L49.1272 6.91772L47.8534 21.2907L47.2396 21.7827L24.3994 40.0683L24.43 23.5287Z" fill="url(#paint1_linear)"/>
<path d="M48.4727 22.1828L49.9175 6.3584L48.5213 22.1426L48.4727 22.1828Z" fill="#CFCFCF"/>
<path d="M49.9174 6.35846L27.877 0.56665L49.9672 6.32546L49.9174 6.35846Z" fill="#CBCBCB"/>
<path d="M2.32937 31.151L1.09277 16.271L16.8596 22.0742L2.32937 31.151Z" fill="url(#paint2_linear)"/>
<path d="M2.3291 31.151L16.8593 22.0742L23.1641 24.395L23.2079 40.223L2.3291 31.151Z" fill="url(#paint3_linear)"/>
<path d="M23.2231 40.2464L2.29688 31.1534L16.8577 22.0574L16.8643 22.0598L23.1787 24.3842V24.3944L23.2231 40.2464ZM2.36108 31.1486L23.1931 40.2008L23.1493 24.4064L16.8613 22.0916L2.36108 31.1486Z" fill="black"/>
<path d="M1.50523 31.7958L1.49316 31.8232L24.3163 41.8464L24.3284 41.8189L1.50523 31.7958Z" fill="black"/>
<path d="M24.3376 41.8339H24.3076L24.3376 23.5459H24.3676L24.3376 41.8339Z" fill="black"/>
<path d="M1.109 16.271L1.0791 16.2734L2.31539 31.1537L2.34528 31.1512L1.109 16.271Z" fill="black"/>
<path d="M0.0287847 14.7064L0.0185547 14.7346L24.3487 23.5598L24.3589 23.5316L0.0287847 14.7064Z" fill="black"/>
<path d="M49.1057 6.88845L24.4316 23.5322L24.4484 23.5571L49.1224 6.91332L49.1057 6.88845Z" fill="black"/>
<path d="M28.4813 1.41681L28.4736 1.4458L49.1229 6.93503L49.1306 6.90603L28.4813 1.41681Z" fill="black"/>
<path d="M49.9376 6.35884L48.4424 22.1787L48.4573 22.1801L49.9525 6.36025L49.9376 6.35884Z" fill="black"/>
<path d="M49.9154 6.36623L27.875 0.573838L27.8792 0.558838L49.9196 6.35123L49.9154 6.36623Z" fill="black"/>
<path d="M49.1219 6.91432L47.8262 21.2854L47.8561 21.2881L49.1517 6.91701L49.1219 6.91432Z" fill="black"/>
<path d="M49.9859 6.32509L48.4912 22.1384L48.5061 22.1398L50.0008 6.32651L49.9859 6.32509Z" fill="black"/>
<path d="M49.9647 6.33266L27.9297 0.545649L27.9333 0.53125L49.9683 6.31826L49.9647 6.33266Z" fill="black"/>
<path d="M1.74069 15.254L1.73047 15.2822L24.4256 23.5063L24.4358 23.4781L1.74069 15.254Z" fill="black"/>
<path d="M0.0257516 14.7058L0.0166016 14.7344L1.72903 15.2828L1.73818 15.2543L0.0257516 14.7058Z" fill="black"/>
<path d="M0.0386782 14.7203L0.00878906 14.7229L0.156015 16.4206L0.185905 16.418L0.0386782 14.7203Z" fill="black"/>
<path d="M1.09923 16.2565L1.08887 16.2847L16.8562 22.0876L16.8666 22.0594L1.09923 16.2565Z" fill="black"/>
<path d="M47.2356 21.776L24.3877 40.0537L24.4064 40.0771L47.2543 21.7994L47.2356 21.776Z" fill="black"/>
<path d="M24.4148 40.0682H24.3848L24.4154 23.5286H24.4454L24.4148 40.0682Z" fill="black"/>
<path d="M0.184185 16.4176L0.154297 16.4202L0.292065 18.0162L0.321953 18.0137L0.184185 16.4176Z" fill="black"/>
<path d="M0.323836 18.014L0.293945 18.0166L0.383612 19.0628L0.413503 19.0602L0.323836 18.014Z" fill="black"/>
<path d="M0.412696 19.0596L0.382812 19.0623L0.421622 19.5052L0.451506 19.5026L0.412696 19.0596Z" fill="black"/>
<path d="M0.451764 19.5025L0.421875 19.5051L1.48545 31.8122L1.51533 31.8096L0.451764 19.5025Z" fill="black"/>
<defs>
<linearGradient id="paint0_linear" x1="15.4042" y1="20.5084" x2="32.938" y2="4.04472" gradientUnits="userSpaceOnUse">
<stop stop-color="#F2F2F2"/>
<stop offset="1" stop-color="#B3B3B3"/>
</linearGradient>
<linearGradient id="paint1_linear" x1="24.3991" y1="23.4931" x2="49.127" y2="23.4931" gradientUnits="userSpaceOnUse">
<stop stop-color="#F2F2F2"/>
<stop offset="1" stop-color="#B3B3B3"/>
</linearGradient>
<linearGradient id="paint2_linear" x1="1.09304" y1="23.711" x2="16.8595" y2="23.711" gradientUnits="userSpaceOnUse">
<stop stop-color="#F2F2F2"/>
<stop offset="1" stop-color="#B3B3B3"/>
</linearGradient>
<linearGradient id="paint3_linear" x1="2.32881" y1="31.1488" x2="23.2081" y2="31.1488" gradientUnits="userSpaceOnUse">
<stop stop-color="#F2F2F2"/>
<stop offset="1" stop-color="#B3B3B3"/>
</linearGradient>
</defs>
</svg>
