<svg xmlns="http://www.w3.org/2000/svg" viewBox="0 0 40 40" width="40" height="40">
	<style>
		tspan { white-space:pre }
		.shp0 { fill: #ffffff } 
		.shp1 { fill: #272e5b } 
	</style>
	<g id="Layer">
		<path id="Layer" class="shp0" d="M0 0L40 0L40 40L0 40L0 0Z" />
		<path id="Layer" fill-rule="evenodd" class="shp1" d="M36.28 5L36.28 14C36.28 14.55 35.84 15 35.28 15C34.73 15 34.28 14.55 34.28 14L34.28 7.41L21.85 19.85L20.43 18.43L32.87 6L26.28 6C25.73 6 25.28 5.55 25.28 5C25.28 4.45 25.73 4 26.28 4L35.28 4C35.84 4 36.28 4.45 36.28 5ZM4 35.28L4 26.28C4 25.73 4.45 25.28 5 25.28C5.55 25.28 6 25.73 6 26.28L6 32.87L18.43 20.43L19.85 21.85L7.41 34.28L14 34.28C14.55 34.28 15 34.73 15 35.28C15 35.84 14.55 36.28 14 36.28L5 36.28C4.45 36.28 4 35.84 4 35.28Z" />
	</g>
</svg>