<svg width="48" height="40" viewBox="0 0 48 40" fill="none" xmlns="http://www.w3.org/2000/svg">
<g filter="url(#filter0_dd)">
<rect width="40" height="40" fill="white"/>
<path fill-rule="evenodd" clip-rule="evenodd" d="M35.2843 4H26.2843C25.732 4 25.2843 4.44772 25.2843 5C25.2843 5.55228 25.732 6 26.2843 6L32.8701 6L20.435 18.435L21.8492 19.8492L34.2843 7.41421V14C34.2843 14.5523 34.732 15 35.2843 15C35.8366 15 36.2843 14.5523 36.2843 14V5C36.2843 4.44772 35.8366 4 35.2843 4ZM5 36.2843H14C14.5523 36.2843 15 35.8366 15 35.2843C15 34.732 14.5523 34.2843 14 34.2843H7.41421L19.8492 21.8492L18.435 20.435L6 32.8701L6 26.2843C6 25.732 5.55228 25.2843 5 25.2843C4.44772 25.2843 4 25.732 4 26.2843V35.2843C4 35.8366 4.44772 36.2843 5 36.2843Z" fill="#272E5B"/>
</g>
<defs>
<filter id="filter0_dd" x="-12" y="-12" width="60" height="60" filterUnits="userSpaceOnUse" color-interpolation-filters="sRGB">
<feFlood flood-opacity="0" result="BackgroundImageFix"/>
<feColorMatrix in="SourceAlpha" type="matrix" values="0 0 0 0 0 0 0 0 0 0 0 0 0 0 0 0 0 0 127 0"/>
<feOffset dx="2" dy="2"/>
<feGaussianBlur stdDeviation="2.5"/>
<feColorMatrix type="matrix" values="0 0 0 0 0 0 0 0 0 0 0 0 0 0 0 0 0 0 0.1 0"/>
<feBlend mode="normal" in2="BackgroundImageFix" result="effect1_dropShadow"/>
<feColorMatrix in="SourceAlpha" type="matrix" values="0 0 0 0 0 0 0 0 0 0 0 0 0 0 0 0 0 0 127 0"/>
<feOffset dx="-2" dy="-2"/>
<feGaussianBlur stdDeviation="5"/>
<feColorMatrix type="matrix" values="0 0 0 0 0 0 0 0 0 0 0 0 0 0 0 0 0 0 0.1 0"/>
<feBlend mode="normal" in2="effect1_dropShadow" result="effect2_dropShadow"/>
<feBlend mode="normal" in="SourceGraphic" in2="effect2_dropShadow" result="shape"/>
</filter>
</defs>
</svg>
